<?xml version="1.0" encoding="UTF-8" standalone="no"?>
<!DOCTYPE svg PUBLIC "-//W3C//DTD SVG 1.1//EN"
 "http://www.w3.org/Graphics/SVG/1.1/DTD/svg11.dtd">
<!-- Generated by graphviz version 15.0.0 (20260523.1842)
 -->
<!-- Title: dependency&#45;cruiser output Pages: 1 -->
<svg width="424pt" height="396pt"
 viewBox="0.00 0.00 424.00 396.00" xmlns="http://www.w3.org/2000/svg" xmlns:xlink="http://www.w3.org/1999/xlink">
<g id="graph0" class="graph" transform="scale(1 1) rotate(0) translate(4 392)">
<title>dependency&#45;cruiser output</title>
<polygon fill="white" stroke="none" points="-4,4 -4,-392 420,-392 420,4 -4,4"/>
<g id="clust1" class="cluster">
<title>cluster_@</title>
<path fill="#ffffff" stroke="black" stroke-width="2" d="M301.38,-16C301.38,-16 365.88,-16 365.88,-16 371.88,-16 377.88,-22 377.88,-28 377.88,-28 377.88,-92 377.88,-92 377.88,-98 371.88,-104 365.88,-104 365.88,-104 301.38,-104 301.38,-104 295.38,-104 289.38,-98 289.38,-92 289.38,-92 289.38,-28 289.38,-28 289.38,-22 295.38,-16 301.38,-16"/>
<text xml:space="preserve" text-anchor="middle" x="333.62" y="-91.45" font-family="Helvetica,sans-Serif" font-weight="bold" font-size="9.00">@</text>
</g>
<g id="clust2" class="cluster">
<title>cluster_@/lib</title>
<path fill="#ffffff" stroke="black" stroke-width="2" d="M309.38,-24C309.38,-24 357.88,-24 357.88,-24 363.88,-24 369.88,-30 369.88,-36 369.88,-36 369.88,-65 369.88,-65 369.88,-71 363.88,-77 357.88,-77 357.88,-77 309.38,-77 309.38,-77 303.38,-77 297.38,-71 297.38,-65 297.38,-65 297.38,-36 297.38,-36 297.38,-30 303.38,-24 309.38,-24"/>
<text xml:space="preserve" text-anchor="middle" x="333.62" y="-64.45" font-family="Helvetica,sans-Serif" font-weight="bold" font-size="9.00">lib</text>
</g>
<g id="clust3" class="cluster">
<title>cluster_hooks</title>
<path fill="#ffffff" stroke="black" stroke-width="2" d="M20,-168C20,-168 98.5,-168 98.5,-168 104.5,-168 110.5,-174 110.5,-180 110.5,-180 110.5,-271 110.5,-271 110.5,-277 104.5,-283 98.5,-283 98.5,-283 20,-283 20,-283 14,-283 8,-277 8,-271 8,-271 8,-180 8,-180 8,-174 14,-168 20,-168"/>
<text xml:space="preserve" text-anchor="middle" x="59.25" y="-270.45" font-family="Helvetica,sans-Serif" font-weight="bold" font-size="9.00">hooks</text>
</g>
<g id="clust4" class="cluster">
<title>cluster_lib</title>
<path fill="#ffffff" stroke="black" stroke-width="2" d="M130.5,-8C130.5,-8 255.25,-8 255.25,-8 261.25,-8 267.25,-14 267.25,-20 267.25,-20 267.25,-206 267.25,-206 267.25,-212 261.25,-218 255.25,-218 255.25,-218 130.5,-218 130.5,-218 124.5,-218 118.5,-212 118.5,-206 118.5,-206 118.5,-20 118.5,-20 118.5,-14 124.5,-8 130.5,-8"/>
<text xml:space="preserve" text-anchor="middle" x="192.88" y="-205.45" font-family="Helvetica,sans-Serif" font-weight="bold" font-size="9.00">lib</text>
</g>
<g id="clust5" class="cluster">
<title>cluster_lib/ghostme</title>
<path fill="#ffffff" stroke="black" stroke-width="2" d="M138.5,-16C138.5,-16 247.25,-16 247.25,-16 253.25,-16 259.25,-22 259.25,-28 259.25,-28 259.25,-153 259.25,-153 259.25,-159 253.25,-165 247.25,-165 247.25,-165 138.5,-165 138.5,-165 132.5,-165 126.5,-159 126.5,-153 126.5,-153 126.5,-28 126.5,-28 126.5,-22 132.5,-16 138.5,-16"/>
<text xml:space="preserve" text-anchor="middle" x="192.88" y="-152.45" font-family="Helvetica,sans-Serif" font-weight="bold" font-size="9.00">ghostme</text>
</g>
<g id="clust6" class="cluster">
<title>cluster_lib/ghostme/auth</title>
<path fill="#ffffff" stroke="black" stroke-width="2" d="M146.5,-24C146.5,-24 239.25,-24 239.25,-24 245.25,-24 251.25,-30 251.25,-36 251.25,-36 251.25,-65 251.25,-65 251.25,-71 245.25,-77 239.25,-77 239.25,-77 146.5,-77 146.5,-77 140.5,-77 134.5,-71 134.5,-65 134.5,-65 134.5,-36 134.5,-36 134.5,-30 140.5,-24 146.5,-24"/>
<text xml:space="preserve" text-anchor="middle" x="192.88" y="-64.45" font-family="Helvetica,sans-Serif" font-weight="bold" font-size="9.00">auth</text>
</g>
<g id="clust7" class="cluster">
<title>cluster_lib/ghostme/ui</title>
<path fill="#ffffff" stroke="black" stroke-width="2" d="M153.62,-85C153.62,-85 232.12,-85 232.12,-85 238.12,-85 244.12,-91 244.12,-97 244.12,-97 244.12,-126 244.12,-126 244.12,-132 238.12,-138 232.12,-138 232.12,-138 153.62,-138 153.62,-138 147.62,-138 141.62,-132 141.62,-126 141.62,-126 141.62,-97 141.62,-97 141.62,-91 147.62,-85 153.62,-85"/>
<text xml:space="preserve" text-anchor="middle" x="192.88" y="-125.45" font-family="Helvetica,sans-Serif" font-weight="bold" font-size="9.00">ui</text>
</g>
<g id="clust8" class="cluster">
<title>cluster_node_modules</title>
<path fill="#ffffff" stroke="black" stroke-width="2" d="M161.88,-226C161.88,-226 396,-226 396,-226 402,-226 408,-232 408,-238 408,-238 408,-368 408,-368 408,-374 402,-380 396,-380 396,-380 161.88,-380 161.88,-380 155.88,-380 149.88,-374 149.88,-368 149.88,-368 149.88,-238 149.88,-238 149.88,-232 155.88,-226 161.88,-226"/>
<text xml:space="preserve" text-anchor="middle" x="278.94" y="-367.45" font-family="Helvetica,sans-Serif" font-weight="bold" font-size="9.00">node_modules</text>
</g>
<g id="clust9" class="cluster">
<title>cluster_node_modules/react</title>
<path fill="#ffffff" stroke="black" stroke-width="2" d="M169.88,-234C169.88,-234 388,-234 388,-234 394,-234 400,-240 400,-246 400,-246 400,-341 400,-341 400,-347 394,-353 388,-353 388,-353 169.88,-353 169.88,-353 163.88,-353 157.88,-347 157.88,-341 157.88,-341 157.88,-246 157.88,-246 157.88,-240 163.88,-234 169.88,-234"/>
<text xml:space="preserve" text-anchor="middle" x="278.94" y="-340.45" font-family="Helvetica,sans-Serif" font-weight="bold" font-size="9.00">react</text>
</g>
<g id="clust10" class="cluster">
<title>cluster_node_modules/react/cjs</title>
<path fill="#ffffff" stroke="black" stroke-width="2" d="M287.25,-242C287.25,-242 380,-242 380,-242 386,-242 392,-248 392,-254 392,-254 392,-314 392,-314 392,-320 386,-326 380,-326 380,-326 287.25,-326 287.25,-326 281.25,-326 275.25,-320 275.25,-314 275.25,-314 275.25,-254 275.25,-254 275.25,-248 281.25,-242 287.25,-242"/>
<text xml:space="preserve" text-anchor="middle" x="333.62" y="-313.45" font-family="Helvetica,sans-Serif" font-weight="bold" font-size="9.00">cjs</text>
</g>
<!-- @/lib/supabase -->
<g id="node1" class="node">
<title>@/lib/supabase</title>
<g id="a_node1"><a xlink:title="supabase">
<path fill="#ffffcc" stroke="black" d="M355.71,-50.25C355.71,-50.25 311.54,-50.25 311.54,-50.25 308.46,-50.25 305.38,-47.17 305.38,-44.08 305.38,-44.08 305.38,-37.92 305.38,-37.92 305.38,-34.83 308.46,-31.75 311.54,-31.75 311.54,-31.75 355.71,-31.75 355.71,-31.75 358.79,-31.75 361.88,-34.83 361.88,-37.92 361.88,-37.92 361.88,-44.08 361.88,-44.08 361.88,-47.17 358.79,-50.25 355.71,-50.25"/>
<text xml:space="preserve" text-anchor="start" x="313.38" y="-38" font-family="Helvetica,sans-Serif" font-size="9.00">supabase</text>
</a>
</g>
</g>
<!-- hooks/useGhostBrain.ts -->
<g id="node2" class="node">
<title>hooks/useGhostBrain.ts</title>
<g id="a_node2"><a xlink:href="hooks/useGhostBrain.ts" xlink:title="useGhostBrain.ts">
<path fill="#ddfeff" stroke="black" d="M95.96,-194.25C95.96,-194.25 22.54,-194.25 22.54,-194.25 19.46,-194.25 16.38,-191.17 16.38,-188.08 16.38,-188.08 16.38,-181.92 16.38,-181.92 16.38,-178.83 19.46,-175.75 22.54,-175.75 22.54,-175.75 95.96,-175.75 95.96,-175.75 99.04,-175.75 102.12,-178.83 102.12,-181.92 102.12,-181.92 102.12,-188.08 102.12,-188.08 102.12,-191.17 99.04,-194.25 95.96,-194.25"/>
<text xml:space="preserve" text-anchor="start" x="24.38" y="-182" font-family="Helvetica,sans-Serif" font-size="9.00">useGhostBrain.ts</text>
</a>
</g>
</g>
<!-- lib/ghostme/auth/clientAuthHeaders.ts -->
<g id="node3" class="node">
<title>lib/ghostme/auth/clientAuthHeaders.ts</title>
<g id="a_node3"><a xlink:href="lib/ghostme/auth/clientAuthHeaders.ts" xlink:title="clientAuthHeaders.ts">
<path fill="#ddfeff" stroke="black" d="M237.08,-50.25C237.08,-50.25 148.67,-50.25 148.67,-50.25 145.58,-50.25 142.5,-47.17 142.5,-44.08 142.5,-44.08 142.5,-37.92 142.5,-37.92 142.5,-34.83 145.58,-31.75 148.67,-31.75 148.67,-31.75 237.08,-31.75 237.08,-31.75 240.17,-31.75 243.25,-34.83 243.25,-37.92 243.25,-37.92 243.25,-44.08 243.25,-44.08 243.25,-47.17 240.17,-50.25 237.08,-50.25"/>
<text xml:space="preserve" text-anchor="start" x="150.5" y="-38" font-family="Helvetica,sans-Serif" font-size="9.00">clientAuthHeaders.ts</text>
</a>
</g>
</g>
<!-- hooks/useGhostBrain.ts&#45;&gt;lib/ghostme/auth/clientAuthHeaders.ts -->
<g id="edge1" class="edge">
<title>hooks/useGhostBrain.ts&#45;&gt;lib/ghostme/auth/clientAuthHeaders.ts</title>
<path fill="none" stroke="#000000" stroke-width="2" stroke-opacity="0.200000" d="M63.65,-175.36C70.97,-155.69 89.96,-110.4 118.5,-82 130.09,-70.47 145.58,-61.18 159.35,-54.38"/>
<polygon fill="#000000" fill-opacity="0.200000" stroke="#000000" stroke-width="2" stroke-opacity="0.200000" points="159.95,-56.42 164.47,-51.96 158.15,-52.62 159.95,-56.42"/>
</g>
<!-- lib/ghostme/ui/brainUiAdapter.ts -->
<g id="node4" class="node">
<title>lib/ghostme/ui/brainUiAdapter.ts</title>
<g id="a_node4"><a xlink:href="lib/ghostme/ui/brainUiAdapter.ts" xlink:title="brainUiAdapter.ts">
<path fill="#ddfeff" stroke="black" d="M229.96,-111.25C229.96,-111.25 155.79,-111.25 155.79,-111.25 152.71,-111.25 149.62,-108.17 149.62,-105.08 149.62,-105.08 149.62,-98.92 149.62,-98.92 149.62,-95.83 152.71,-92.75 155.79,-92.75 155.79,-92.75 229.96,-92.75 229.96,-92.75 233.04,-92.75 236.12,-95.83 236.12,-98.92 236.12,-98.92 236.12,-105.08 236.12,-105.08 236.12,-108.17 233.04,-111.25 229.96,-111.25"/>
<text xml:space="preserve" text-anchor="start" x="157.62" y="-99" font-family="Helvetica,sans-Serif" font-size="9.00">brainUiAdapter.ts</text>
</a>
</g>
</g>
<!-- hooks/useGhostBrain.ts&#45;&gt;lib/ghostme/ui/brainUiAdapter.ts -->
<g id="edge2" class="edge">
<title>hooks/useGhostBrain.ts&#45;&gt;lib/ghostme/ui/brainUiAdapter.ts</title>
<path fill="none" stroke="#000000" stroke-width="2" stroke-opacity="0.200000" d="M65.23,-175.47C73.84,-160.03 93.07,-129.77 118.5,-115 125.32,-111.04 133.05,-108.23 140.87,-106.24"/>
<polygon fill="#000000" fill-opacity="0.200000" stroke="#000000" stroke-width="2" stroke-opacity="0.200000" points="140.98,-108.37 146.4,-105.04 140.09,-104.27 140.98,-108.37"/>
</g>
<!-- lib/personality.ts -->
<g id="node5" class="node">
<title>lib/personality.ts</title>
<g id="a_node5"><a xlink:href="lib/personality.ts" xlink:title="personality.ts">
<path fill="#ddfeff" stroke="black" d="M221.33,-191.25C221.33,-191.25 164.42,-191.25 164.42,-191.25 161.33,-191.25 158.25,-188.17 158.25,-185.08 158.25,-185.08 158.25,-178.92 158.25,-178.92 158.25,-175.83 161.33,-172.75 164.42,-172.75 164.42,-172.75 221.33,-172.75 221.33,-172.75 224.42,-172.75 227.5,-175.83 227.5,-178.92 227.5,-178.92 227.5,-185.08 227.5,-185.08 227.5,-188.17 224.42,-191.25 221.33,-191.25"/>
<text xml:space="preserve" text-anchor="start" x="166.25" y="-179" font-family="Helvetica,sans-Serif" font-size="9.00">personality.ts</text>
</a>
</g>
</g>
<!-- hooks/useGhostBrain.ts&#45;&gt;lib/personality.ts -->
<g id="edge3" class="edge">
<title>hooks/useGhostBrain.ts&#45;&gt;lib/personality.ts</title>
<path fill="none" stroke="#000000" stroke-width="2" stroke-opacity="0.200000" d="M102.62,-184.03C117.43,-183.7 134.07,-183.32 148.93,-182.98"/>
<polygon fill="#000000" fill-opacity="0.200000" stroke="#000000" stroke-width="2" stroke-opacity="0.200000" points="148.94,-185.08 154.89,-182.84 148.84,-180.88 148.94,-185.08"/>
</g>
<!-- node_modules/react/index.js -->
<g id="node6" class="node">
<title>node_modules/react/index.js</title>
<g id="a_node6"><a xlink:href="node_modules/react/index.js" xlink:title="index.js">
<path fill="#c40b0a" fill-opacity="0.101961" stroke="black" d="M213.71,-260.25C213.71,-260.25 172.04,-260.25 172.04,-260.25 168.96,-260.25 165.88,-257.17 165.88,-254.08 165.88,-254.08 165.88,-247.92 165.88,-247.92 165.88,-244.83 168.96,-241.75 172.04,-241.75 172.04,-241.75 213.71,-241.75 213.71,-241.75 216.79,-241.75 219.88,-244.83 219.88,-247.92 219.88,-247.92 219.88,-254.08 219.88,-254.08 219.88,-257.17 216.79,-260.25 213.71,-260.25"/>
<text xml:space="preserve" text-anchor="start" x="177.12" y="-248" font-family="Helvetica,sans-Serif" font-size="9.00" fill="#c40b0a">index.js</text>
</a>
</g>
</g>
<!-- hooks/useGhostBrain.ts&#45;&gt;node_modules/react/index.js -->
<g id="edge4" class="edge">
<title>hooks/useGhostBrain.ts&#45;&gt;node_modules/react/index.js</title>
<path fill="none" stroke="#000000" stroke-opacity="0.200000" d="M101.48,-194.62C104.75,-196.4 107.82,-198.51 110.5,-201 117.51,-207.52 111.76,-214.2 118.5,-221 129.31,-231.9 144.64,-238.99 158.48,-243.53"/>
<polygon fill="#000000" fill-opacity="0.200000" stroke="#000000" stroke-opacity="0.200000" points="157.76,-245.51 164.11,-245.24 158.98,-241.49 157.76,-245.51"/>
</g>
<!-- lib/ghostme/auth/clientAuthHeaders.ts&#45;&gt;@/lib/supabase -->
<g id="edge7" class="edge">
<title>lib/ghostme/auth/clientAuthHeaders.ts&#45;&gt;@/lib/supabase</title>
<path fill="none" stroke="#000000" stroke-width="2" stroke-opacity="0.200000" d="M243.58,-41C261.03,-41 280.29,-41 296.42,-41"/>
<polygon fill="#000000" fill-opacity="0.200000" stroke="#000000" stroke-width="2" stroke-opacity="0.200000" points="296.01,-43.1 302.01,-41 296.01,-38.9 296.01,-43.1"/>
</g>
<!-- node_modules/react/cjs/react.development.js -->
<g id="node9" class="node">
<title>node_modules/react/cjs/react.development.js</title>
<g id="a_node9"><a xlink:href="node_modules/react/cjs/react.development.js" xlink:title="react.development.js">
<path fill="#c40b0a" fill-opacity="0.101961" stroke="black" d="M377.83,-268.25C377.83,-268.25 289.42,-268.25 289.42,-268.25 286.33,-268.25 283.25,-265.17 283.25,-262.08 283.25,-262.08 283.25,-255.92 283.25,-255.92 283.25,-252.83 286.33,-249.75 289.42,-249.75 289.42,-249.75 377.83,-249.75 377.83,-249.75 380.92,-249.75 384,-252.83 384,-255.92 384,-255.92 384,-262.08 384,-262.08 384,-265.17 380.92,-268.25 377.83,-268.25"/>
<text xml:space="preserve" text-anchor="start" x="291.25" y="-256" font-family="Helvetica,sans-Serif" font-size="9.00" fill="#c40b0a">react.development.js</text>
</a>
</g>
</g>
<!-- node_modules/react/index.js&#45;&gt;node_modules/react/cjs/react.development.js -->
<g id="edge8" class="edge">
<title>node_modules/react/index.js&#45;&gt;node_modules/react/cjs/react.development.js</title>
<path fill="none" stroke="#000000" stroke-width="2" stroke-opacity="0.200000" d="M220.3,-252.52C235.57,-253.4 255.42,-254.55 274.18,-255.63"/>
<polygon fill="#000000" fill-opacity="0.200000" stroke="#000000" stroke-width="2" stroke-opacity="0.200000" points="273.85,-257.71 279.96,-255.96 274.1,-253.52 273.85,-257.71"/>
</g>
<!-- node_modules/react/cjs/react.production.js -->
<g id="node10" class="node">
<title>node_modules/react/cjs/react.production.js</title>
<g id="a_node10"><a xlink:href="node_modules/react/cjs/react.production.js" xlink:title="react.production.js">
<path fill="#c40b0a" fill-opacity="0.101961" stroke="black" d="M372.96,-299.25C372.96,-299.25 294.29,-299.25 294.29,-299.25 291.21,-299.25 288.12,-296.17 288.12,-293.08 288.12,-293.08 288.12,-286.92 288.12,-286.92 288.12,-283.83 291.21,-280.75 294.29,-280.75 294.29,-280.75 372.96,-280.75 372.96,-280.75 376.04,-280.75 379.12,-283.83 379.12,-286.92 379.12,-286.92 379.12,-293.08 379.12,-293.08 379.12,-296.17 376.04,-299.25 372.96,-299.25"/>
<text xml:space="preserve" text-anchor="start" x="296.12" y="-287" font-family="Helvetica,sans-Serif" font-size="9.00" fill="#c40b0a">react.production.js</text>
</a>
</g>
</g>
<!-- node_modules/react/index.js&#45;&gt;node_modules/react/cjs/react.production.js -->
<g id="edge9" class="edge">
<title>node_modules/react/index.js&#45;&gt;node_modules/react/cjs/react.production.js</title>
<path fill="none" stroke="#000000" stroke-width="2" stroke-opacity="0.200000" d="M220.26,-258.48C236.18,-262.99 256.88,-268.84 275.25,-274 279.79,-275.28 284.54,-276.6 289.27,-277.93"/>
<polygon fill="#000000" fill-opacity="0.200000" stroke="#000000" stroke-width="2" stroke-opacity="0.200000" points="288.47,-279.88 294.81,-279.47 289.6,-275.84 288.47,-279.88"/>
</g>
<!-- hooks/useGhostChat.ts -->
<g id="node7" class="node">
<title>hooks/useGhostChat.ts</title>
<g id="a_node7"><a xlink:href="hooks/useGhostChat.ts" xlink:title="useGhostChat.ts">
<path fill="#ddfeff" stroke="black" d="M94.83,-225.25C94.83,-225.25 23.67,-225.25 23.67,-225.25 20.58,-225.25 17.5,-222.17 17.5,-219.08 17.5,-219.08 17.5,-212.92 17.5,-212.92 17.5,-209.83 20.58,-206.75 23.67,-206.75 23.67,-206.75 94.83,-206.75 94.83,-206.75 97.92,-206.75 101,-209.83 101,-212.92 101,-212.92 101,-219.08 101,-219.08 101,-222.17 97.92,-225.25 94.83,-225.25"/>
<text xml:space="preserve" text-anchor="start" x="25.5" y="-213" font-family="Helvetica,sans-Serif" font-size="9.00">useGhostChat.ts</text>
</a>
</g>
</g>
<!-- hooks/useGhostChat.ts&#45;&gt;node_modules/react/index.js -->
<g id="edge5" class="edge">
<title>hooks/useGhostChat.ts&#45;&gt;node_modules/react/index.js</title>
<path fill="none" stroke="#000000" stroke-opacity="0.200000" d="M96.91,-225.75C116.12,-230.86 139.48,-237.07 158.22,-242.05"/>
<polygon fill="#000000" fill-opacity="0.200000" stroke="#000000" stroke-opacity="0.200000" points="157.62,-244.06 163.96,-243.58 158.7,-240 157.62,-244.06"/>
</g>
<!-- hooks/useGhostVoice.ts -->
<g id="node8" class="node">
<title>hooks/useGhostVoice.ts</title>
<g id="a_node8"><a xlink:href="hooks/useGhostVoice.ts" xlink:title="useGhostVoice.ts">
<path fill="#ddfeff" stroke="black" d="M96.33,-256.25C96.33,-256.25 22.17,-256.25 22.17,-256.25 19.08,-256.25 16,-253.17 16,-250.08 16,-250.08 16,-243.92 16,-243.92 16,-240.83 19.08,-237.75 22.17,-237.75 22.17,-237.75 96.33,-237.75 96.33,-237.75 99.42,-237.75 102.5,-240.83 102.5,-243.92 102.5,-243.92 102.5,-250.08 102.5,-250.08 102.5,-253.17 99.42,-256.25 96.33,-256.25"/>
<text xml:space="preserve" text-anchor="start" x="24" y="-244" font-family="Helvetica,sans-Serif" font-size="9.00">useGhostVoice.ts</text>
</a>
</g>
</g>
<!-- hooks/useGhostVoice.ts&#45;&gt;node_modules/react/index.js -->
<g id="edge6" class="edge">
<title>hooks/useGhostVoice.ts&#45;&gt;node_modules/react/index.js</title>
<path fill="none" stroke="#000000" stroke-opacity="0.200000" d="M102.98,-248.3C120.82,-248.84 141.25,-249.46 158.02,-249.97"/>
<polygon fill="#000000" fill-opacity="0.200000" stroke="#000000" stroke-opacity="0.200000" points="157.87,-252.07 163.93,-250.15 158,-247.87 157.87,-252.07"/>
</g>
</g>
</svg>
