<?xml version="1.0" encoding="UTF-8" standalone="no"?>
<!DOCTYPE svg PUBLIC "-//W3C//DTD SVG 1.1//EN"
 "http://www.w3.org/Graphics/SVG/1.1/DTD/svg11.dtd">
<!-- Generated by graphviz version 15.0.0 (20260523.1842)
 -->
<!-- Title: dependency&#45;cruiser output Pages: 1 -->
<svg width="529pt" height="301pt"
 viewBox="0.00 0.00 529.00 301.00" xmlns="http://www.w3.org/2000/svg" xmlns:xlink="http://www.w3.org/1999/xlink">
<g id="graph0" class="graph" transform="scale(1 1) rotate(0) translate(4 297)">
<title>dependency&#45;cruiser output</title>
<polygon fill="white" stroke="none" points="-4,4 -4,-297 524.5,-297 524.5,4 -4,4"/>
<g id="clust1" class="cluster">
<title>cluster_lib</title>
<path fill="#ffffff" stroke="black" stroke-width="2" d="M20,-8C20,-8 394.25,-8 394.25,-8 400.25,-8 406.25,-14 406.25,-20 406.25,-20 406.25,-273 406.25,-273 406.25,-279 400.25,-285 394.25,-285 394.25,-285 20,-285 20,-285 14,-285 8,-279 8,-273 8,-273 8,-20 8,-20 8,-14 14,-8 20,-8"/>
<text xml:space="preserve" text-anchor="middle" x="207.12" y="-272.45" font-family="Helvetica,sans-Serif" font-weight="bold" font-size="9.00">lib</text>
</g>
<g id="clust2" class="cluster">
<title>cluster_lib/ghostme</title>
<path fill="#ffffff" stroke="black" stroke-width="2" d="M28,-16C28,-16 286.5,-16 286.5,-16 292.5,-16 298.5,-22 298.5,-28 298.5,-28 298.5,-246 298.5,-246 298.5,-252 292.5,-258 286.5,-258 286.5,-258 28,-258 28,-258 22,-258 16,-252 16,-246 16,-246 16,-28 16,-28 16,-22 22,-16 28,-16"/>
<text xml:space="preserve" text-anchor="middle" x="157.25" y="-245.45" font-family="Helvetica,sans-Serif" font-weight="bold" font-size="9.00">ghostme</text>
</g>
<g id="clust3" class="cluster">
<title>cluster_lib/ghostme/memory</title>
<path fill="#ffffff" stroke="black" stroke-width="2" d="M55.5,-147C55.5,-147 153.5,-147 153.5,-147 159.5,-147 165.5,-153 165.5,-159 165.5,-159 165.5,-219 165.5,-219 165.5,-225 159.5,-231 153.5,-231 153.5,-231 55.5,-231 55.5,-231 49.5,-231 43.5,-225 43.5,-219 43.5,-219 43.5,-159 43.5,-159 43.5,-153 49.5,-147 55.5,-147"/>
<text xml:space="preserve" text-anchor="middle" x="104.5" y="-218.45" font-family="Helvetica,sans-Serif" font-weight="bold" font-size="9.00">memory</text>
</g>
<g id="clust4" class="cluster">
<title>cluster_lib/ghostme/people</title>
<path fill="#ffffff" stroke="black" stroke-width="2" d="M36,-24C36,-24 278.5,-24 278.5,-24 284.5,-24 290.5,-30 290.5,-36 290.5,-36 290.5,-127 290.5,-127 290.5,-133 284.5,-139 278.5,-139 278.5,-139 36,-139 36,-139 30,-139 24,-133 24,-127 24,-127 24,-36 24,-36 24,-30 30,-24 36,-24"/>
<text xml:space="preserve" text-anchor="middle" x="157.25" y="-126.45" font-family="Helvetica,sans-Serif" font-weight="bold" font-size="9.00">people</text>
</g>
<g id="clust5" class="cluster">
<title>cluster_node_modules</title>
<path fill="#ffffff" stroke="black" stroke-width="2" d="M426.25,-110C426.25,-110 500.5,-110 500.5,-110 506.5,-110 512.5,-116 512.5,-122 512.5,-122 512.5,-186 512.5,-186 512.5,-192 506.5,-198 500.5,-198 500.5,-198 426.25,-198 426.25,-198 420.25,-198 414.25,-192 414.25,-186 414.25,-186 414.25,-122 414.25,-122 414.25,-116 420.25,-110 426.25,-110"/>
<text xml:space="preserve" text-anchor="middle" x="463.38" y="-185.45" font-family="Helvetica,sans-Serif" font-weight="bold" font-size="9.00">node_modules</text>
</g>
<g id="clust6" class="cluster">
<title>cluster_node_modules/@supabase</title>
<path fill="#ffffff" stroke="black" stroke-width="2" d="M434.25,-118C434.25,-118 492.5,-118 492.5,-118 498.5,-118 504.5,-124 504.5,-130 504.5,-130 504.5,-159 504.5,-159 504.5,-165 498.5,-171 492.5,-171 492.5,-171 434.25,-171 434.25,-171 428.25,-171 422.25,-165 422.25,-159 422.25,-159 422.25,-130 422.25,-130 422.25,-124 428.25,-118 434.25,-118"/>
<text xml:space="preserve" text-anchor="middle" x="463.38" y="-158.45" font-family="Helvetica,sans-Serif" font-weight="bold" font-size="9.00">@supabase</text>
</g>
<!-- lib/ghostme/memory/memorySearchFlow.ts -->
<g id="node1" class="node">
<title>lib/ghostme/memory/memorySearchFlow.ts</title>
<g id="a_node1"><a xlink:href="lib/ghostme/memory/memorySearchFlow.ts" xlink:title="memorySearchFlow.ts">
<path fill="#ddfeff" stroke="black" d="M151.33,-173.25C151.33,-173.25 57.67,-173.25 57.67,-173.25 54.58,-173.25 51.5,-170.17 51.5,-167.08 51.5,-167.08 51.5,-160.92 51.5,-160.92 51.5,-157.83 54.58,-154.75 57.67,-154.75 57.67,-154.75 151.33,-154.75 151.33,-154.75 154.42,-154.75 157.5,-157.83 157.5,-160.92 157.5,-160.92 157.5,-167.08 157.5,-167.08 157.5,-170.17 154.42,-173.25 151.33,-173.25"/>
<text xml:space="preserve" text-anchor="start" x="59.5" y="-161" font-family="Helvetica,sans-Serif" font-size="9.00">memorySearchFlow.ts</text>
</a>
</g>
</g>
<!-- lib/supabaseAdmin.ts -->
<g id="node2" class="node">
<title>lib/supabaseAdmin.ts</title>
<g id="a_node2"><a xlink:href="lib/supabaseAdmin.ts" xlink:title="supabaseAdmin.ts">
<path fill="#ddfeff" stroke="black" d="M392.08,-144.25C392.08,-144.25 312.67,-144.25 312.67,-144.25 309.58,-144.25 306.5,-141.17 306.5,-138.08 306.5,-138.08 306.5,-131.92 306.5,-131.92 306.5,-128.83 309.58,-125.75 312.67,-125.75 312.67,-125.75 392.08,-125.75 392.08,-125.75 395.17,-125.75 398.25,-128.83 398.25,-131.92 398.25,-131.92 398.25,-138.08 398.25,-138.08 398.25,-141.17 395.17,-144.25 392.08,-144.25"/>
<text xml:space="preserve" text-anchor="start" x="314.5" y="-132" font-family="Helvetica,sans-Serif" font-size="9.00">supabaseAdmin.ts</text>
</a>
</g>
</g>
<!-- lib/ghostme/memory/memorySearchFlow.ts&#45;&gt;lib/supabaseAdmin.ts -->
<g id="edge1" class="edge">
<title>lib/ghostme/memory/memorySearchFlow.ts&#45;&gt;lib/supabaseAdmin.ts</title>
<path fill="none" stroke="#000000" stroke-width="2" stroke-opacity="0.200000" d="M157.96,-158.28C194.74,-154.21 245.3,-148.5 297.39,-142.12"/>
<polygon fill="#000000" fill-opacity="0.200000" stroke="#000000" stroke-width="2" stroke-opacity="0.200000" points="297.39,-144.23 303.09,-141.42 296.88,-140.07 297.39,-144.23"/>
</g>
<!-- node_modules/@supabase/supabase&#45;js -->
<g id="node8" class="node">
<title>node_modules/@supabase/supabase&#45;js</title>
<g id="a_node8"><a xlink:href="https://www.npmjs.com/package/@supabase/supabase-js" xlink:title="supabase&#45;js">
<polygon fill="#c40b0a" fill-opacity="0.101961" stroke="black" points="496.5,-144.25 432.31,-144.25 430.25,-142.19 430.25,-125.75 494.44,-125.75 496.5,-127.81 496.5,-144.25"/>
<polyline fill="none" stroke="black" points="494.44,-142.19 430.25,-142.19"/>
<polyline fill="none" stroke="black" points="494.44,-142.19 494.44,-125.75"/>
<polyline fill="none" stroke="black" points="494.44,-142.19 496.5,-144.25"/>
<text xml:space="preserve" text-anchor="start" x="438.25" y="-132" font-family="Helvetica,sans-Serif" font-size="9.00" fill="#c40b0a">supabase&#45;js</text>
</a>
</g>
</g>
<!-- lib/supabaseAdmin.ts&#45;&gt;node_modules/@supabase/supabase&#45;js -->
<g id="edge6" class="edge">
<title>lib/supabaseAdmin.ts&#45;&gt;node_modules/@supabase/supabase&#45;js</title>
<path fill="none" stroke="#000000" stroke-opacity="0.200000" d="M398.65,-135C406.71,-135 415.05,-135 422.93,-135"/>
<polygon fill="#000000" fill-opacity="0.200000" stroke="#000000" stroke-opacity="0.200000" points="422.51,-137.1 428.51,-135 422.51,-132.9 422.51,-137.1"/>
</g>
<!-- lib/ghostme/memory/memorySnapshot.ts -->
<g id="node3" class="node">
<title>lib/ghostme/memory/memorySnapshot.ts</title>
<g id="a_node3"><a xlink:href="lib/ghostme/memory/memorySnapshot.ts" xlink:title="memorySnapshot.ts">
<path fill="#ddfeff" stroke="black" d="M146.83,-204.25C146.83,-204.25 62.17,-204.25 62.17,-204.25 59.08,-204.25 56,-201.17 56,-198.08 56,-198.08 56,-191.92 56,-191.92 56,-188.83 59.08,-185.75 62.17,-185.75 62.17,-185.75 146.83,-185.75 146.83,-185.75 149.92,-185.75 153,-188.83 153,-191.92 153,-191.92 153,-198.08 153,-198.08 153,-201.17 149.92,-204.25 146.83,-204.25"/>
<text xml:space="preserve" text-anchor="start" x="64" y="-192" font-family="Helvetica,sans-Serif" font-size="9.00">memorySnapshot.ts</text>
</a>
</g>
</g>
<!-- lib/ghostme/memory/memorySnapshot.ts&#45;&gt;lib/supabaseAdmin.ts -->
<g id="edge2" class="edge">
<title>lib/ghostme/memory/memorySnapshot.ts&#45;&gt;lib/supabaseAdmin.ts</title>
<path fill="none" stroke="#000000" stroke-width="2" stroke-opacity="0.200000" d="M153.39,-185.61C192.62,-177.61 249.47,-165.31 298.5,-152 303.69,-150.59 309.13,-148.99 314.46,-147.34"/>
<polygon fill="#000000" fill-opacity="0.200000" stroke="#000000" stroke-width="2" stroke-opacity="0.200000" points="314.73,-149.46 319.82,-145.66 313.46,-145.46 314.73,-149.46"/>
</g>
<!-- lib/ghostme/people/peopleGraphService.ts -->
<g id="node4" class="node">
<title>lib/ghostme/people/peopleGraphService.ts</title>
<g id="a_node4"><a xlink:href="lib/ghostme/people/peopleGraphService.ts" xlink:title="peopleGraphService.ts">
<path fill="#ddfeff" stroke="black" d="M153.21,-50.25C153.21,-50.25 55.79,-50.25 55.79,-50.25 52.71,-50.25 49.62,-47.17 49.62,-44.08 49.62,-44.08 49.62,-37.92 49.62,-37.92 49.62,-34.83 52.71,-31.75 55.79,-31.75 55.79,-31.75 153.21,-31.75 153.21,-31.75 156.29,-31.75 159.38,-34.83 159.38,-37.92 159.38,-37.92 159.38,-44.08 159.38,-44.08 159.38,-47.17 156.29,-50.25 153.21,-50.25"/>
<text xml:space="preserve" text-anchor="start" x="57.62" y="-38" font-family="Helvetica,sans-Serif" font-size="9.00">peopleGraphService.ts</text>
</a>
</g>
</g>
<!-- lib/ghostme/people/peopleGraphService.ts&#45;&gt;lib/supabaseAdmin.ts -->
<g id="edge4" class="edge">
<title>lib/ghostme/people/peopleGraphService.ts&#45;&gt;lib/supabaseAdmin.ts</title>
<path fill="none" stroke="#000000" stroke-width="2" stroke-opacity="0.200000" d="M159.64,-47.26C165.93,-49.62 171.9,-52.78 177,-57 188.2,-66.26 179.13,-77.36 190,-87 219.64,-113.28 263.12,-125.19 297.48,-130.58"/>
<polygon fill="#000000" fill-opacity="0.200000" stroke="#000000" stroke-width="2" stroke-opacity="0.200000" points="296.77,-132.6 303.01,-131.38 297.37,-128.44 296.77,-132.6"/>
</g>
<!-- lib/ghostme/people/peopleSnapshot.ts -->
<g id="node5" class="node">
<title>lib/ghostme/people/peopleSnapshot.ts</title>
<g id="a_node5"><a xlink:href="lib/ghostme/people/peopleSnapshot.ts" xlink:title="peopleSnapshot.ts">
<path fill="#ddfeff" stroke="black" d="M276.33,-81.25C276.33,-81.25 196.17,-81.25 196.17,-81.25 193.08,-81.25 190,-78.17 190,-75.08 190,-75.08 190,-68.92 190,-68.92 190,-65.83 193.08,-62.75 196.17,-62.75 196.17,-62.75 276.33,-62.75 276.33,-62.75 279.42,-62.75 282.5,-65.83 282.5,-68.92 282.5,-68.92 282.5,-75.08 282.5,-75.08 282.5,-78.17 279.42,-81.25 276.33,-81.25"/>
<text xml:space="preserve" text-anchor="start" x="198" y="-69" font-family="Helvetica,sans-Serif" font-size="9.00">peopleSnapshot.ts</text>
</a>
</g>
</g>
<!-- lib/ghostme/people/peopleGraphService.ts&#45;&gt;lib/ghostme/people/peopleSnapshot.ts -->
<g id="edge3" class="edge">
<title>lib/ghostme/people/peopleGraphService.ts&#45;&gt;lib/ghostme/people/peopleSnapshot.ts</title>
<path fill="none" stroke="#000000" stroke-width="2" stroke-opacity="0.200000" d="M149.79,-50.68C158.81,-52.72 168.22,-54.89 177,-57 181.1,-57.99 185.35,-59.03 189.61,-60.1"/>
<polygon fill="#000000" fill-opacity="0.200000" stroke="#000000" stroke-width="2" stroke-opacity="0.200000" points="189.05,-62.12 195.38,-61.56 190.08,-58.05 189.05,-62.12"/>
</g>
<!-- lib/ghostme/people/peopleSnapshot.ts&#45;&gt;lib/supabaseAdmin.ts -->
<g id="edge5" class="edge">
<title>lib/ghostme/people/peopleSnapshot.ts&#45;&gt;lib/supabaseAdmin.ts</title>
<path fill="none" stroke="#000000" stroke-width="2" stroke-opacity="0.200000" d="M282.73,-78.7C288.21,-80.36 293.59,-82.42 298.5,-85 314.28,-93.28 328.73,-107.62 338.52,-118.83"/>
<polygon fill="#000000" fill-opacity="0.200000" stroke="#000000" stroke-width="2" stroke-opacity="0.200000" points="336.83,-120.08 342.3,-123.33 340.05,-117.38 336.83,-120.08"/>
</g>
<!-- lib/ghostme/people/relationshipMemorySnapshot.ts -->
<g id="node6" class="node">
<title>lib/ghostme/people/relationshipMemorySnapshot.ts</title>
<g id="a_node6"><a xlink:href="lib/ghostme/people/relationshipMemorySnapshot.ts" xlink:title="no&#45;orphans">
<path fill="#ccffcc" stroke="orange" d="M170.83,-81.25C170.83,-81.25 38.17,-81.25 38.17,-81.25 35.08,-81.25 32,-78.17 32,-75.08 32,-75.08 32,-68.92 32,-68.92 32,-65.83 35.08,-62.75 38.17,-62.75 38.17,-62.75 170.83,-62.75 170.83,-62.75 173.92,-62.75 177,-65.83 177,-68.92 177,-68.92 177,-75.08 177,-75.08 177,-78.17 173.92,-81.25 170.83,-81.25"/>
<text xml:space="preserve" text-anchor="start" x="40" y="-69" font-family="Helvetica,sans-Serif" font-size="9.00" fill="orange">relationshipMemorySnapshot.ts</text>
</a>
</g>
</g>
<!-- lib/ghostme/people/socialSuggestionSnapshot.ts -->
<g id="node7" class="node">
<title>lib/ghostme/people/socialSuggestionSnapshot.ts</title>
<g id="a_node7"><a xlink:href="lib/ghostme/people/socialSuggestionSnapshot.ts" xlink:title="no&#45;orphans">
<path fill="#ccffcc" stroke="orange" d="M165.58,-112.25C165.58,-112.25 43.42,-112.25 43.42,-112.25 40.33,-112.25 37.25,-109.17 37.25,-106.08 37.25,-106.08 37.25,-99.92 37.25,-99.92 37.25,-96.83 40.33,-93.75 43.42,-93.75 43.42,-93.75 165.58,-93.75 165.58,-93.75 168.67,-93.75 171.75,-96.83 171.75,-99.92 171.75,-99.92 171.75,-106.08 171.75,-106.08 171.75,-109.17 168.67,-112.25 165.58,-112.25"/>
<text xml:space="preserve" text-anchor="start" x="45.25" y="-100" font-family="Helvetica,sans-Serif" font-size="9.00" fill="orange">socialSuggestionSnapshot.ts</text>
</a>
</g>
</g>
</g>
</svg>
