<?xml version="1.0" encoding="UTF-8" standalone="no"?>
<!DOCTYPE svg PUBLIC "-//W3C//DTD SVG 1.1//EN"
 "http://www.w3.org/Graphics/SVG/1.1/DTD/svg11.dtd">
<!-- Generated by graphviz version 15.0.0 (20260523.1842)
 -->
<!-- Title: dependency&#45;cruiser output Pages: 1 -->
<svg width="757pt" height="245pt"
 viewBox="0.00 0.00 757.00 245.00" xmlns="http://www.w3.org/2000/svg" xmlns:xlink="http://www.w3.org/1999/xlink">
<g id="graph0" class="graph" transform="scale(1 1) rotate(0) translate(4 241)">
<title>dependency&#45;cruiser output</title>
<polygon fill="white" stroke="none" points="-4,4 -4,-241 753,-241 753,4 -4,4"/>
<g id="clust1" class="cluster">
<title>cluster_lib</title>
<path fill="#ffffff" stroke="black" stroke-width="2" d="M20,-8C20,-8 622.75,-8 622.75,-8 628.75,-8 634.75,-14 634.75,-20 634.75,-20 634.75,-217 634.75,-217 634.75,-223 628.75,-229 622.75,-229 622.75,-229 20,-229 20,-229 14,-229 8,-223 8,-217 8,-217 8,-20 8,-20 8,-14 14,-8 20,-8"/>
<text xml:space="preserve" text-anchor="middle" x="321.38" y="-216.45" font-family="Helvetica,sans-Serif" font-weight="bold" font-size="9.00">lib</text>
</g>
<g id="clust2" class="cluster">
<title>cluster_lib/ghostme</title>
<path fill="#ffffff" stroke="black" stroke-width="2" d="M28,-16C28,-16 614.75,-16 614.75,-16 620.75,-16 626.75,-22 626.75,-28 626.75,-28 626.75,-164 626.75,-164 626.75,-170 620.75,-176 614.75,-176 614.75,-176 28,-176 28,-176 22,-176 16,-170 16,-164 16,-164 16,-28 16,-28 16,-22 22,-16 28,-16"/>
<text xml:space="preserve" text-anchor="middle" x="321.38" y="-163.45" font-family="Helvetica,sans-Serif" font-weight="bold" font-size="9.00">ghostme</text>
</g>
<g id="clust3" class="cluster">
<title>cluster_lib/ghostme/agenda</title>
<path fill="#ffffff" stroke="black" stroke-width="2" d="M151.75,-34C151.75,-34 306,-34 306,-34 312,-34 318,-40 318,-46 318,-46 318,-137 318,-137 318,-143 312,-149 306,-149 306,-149 151.75,-149 151.75,-149 145.75,-149 139.75,-143 139.75,-137 139.75,-137 139.75,-46 139.75,-46 139.75,-40 145.75,-34 151.75,-34"/>
<text xml:space="preserve" text-anchor="middle" x="228.88" y="-136.45" font-family="Helvetica,sans-Serif" font-weight="bold" font-size="9.00">agenda</text>
</g>
<g id="clust4" class="cluster">
<title>cluster_lib/ghostme/calendar</title>
<path fill="#ffffff" stroke="black" stroke-width="2" d="M36,-24C36,-24 119.75,-24 119.75,-24 125.75,-24 131.75,-30 131.75,-36 131.75,-36 131.75,-96 131.75,-96 131.75,-102 125.75,-108 119.75,-108 119.75,-108 36,-108 36,-108 30,-108 24,-102 24,-96 24,-96 24,-36 24,-36 24,-30 30,-24 36,-24"/>
<text xml:space="preserve" text-anchor="middle" x="77.88" y="-95.45" font-family="Helvetica,sans-Serif" font-weight="bold" font-size="9.00">calendar</text>
</g>
<g id="clust5" class="cluster">
<title>cluster_lib/ghostme/proactive</title>
<path fill="#ffffff" stroke="black" stroke-width="2" d="M338,-65C338,-65 606.75,-65 606.75,-65 612.75,-65 618.75,-71 618.75,-77 618.75,-77 618.75,-137 618.75,-137 618.75,-143 612.75,-149 606.75,-149 606.75,-149 338,-149 338,-149 332,-149 326,-143 326,-137 326,-137 326,-77 326,-77 326,-71 332,-65 338,-65"/>
<text xml:space="preserve" text-anchor="middle" x="472.38" y="-136.45" font-family="Helvetica,sans-Serif" font-weight="bold" font-size="9.00">proactive</text>
</g>
<g id="clust6" class="cluster">
<title>cluster_node_modules</title>
<path fill="#ffffff" stroke="black" stroke-width="2" d="M654.75,-56C654.75,-56 729,-56 729,-56 735,-56 741,-62 741,-68 741,-68 741,-158 741,-158 741,-164 735,-170 729,-170 729,-170 654.75,-170 654.75,-170 648.75,-170 642.75,-164 642.75,-158 642.75,-158 642.75,-68 642.75,-68 642.75,-62 648.75,-56 654.75,-56"/>
<text xml:space="preserve" text-anchor="middle" x="691.88" y="-157.45" font-family="Helvetica,sans-Serif" font-weight="bold" font-size="9.00">node_modules</text>
</g>
<g id="clust7" class="cluster">
<title>cluster_node_modules/@supabase</title>
<path fill="#ffffff" stroke="black" stroke-width="2" d="M662.75,-90C662.75,-90 721,-90 721,-90 727,-90 733,-96 733,-102 733,-102 733,-131 733,-131 733,-137 727,-143 721,-143 721,-143 662.75,-143 662.75,-143 656.75,-143 650.75,-137 650.75,-131 650.75,-131 650.75,-102 650.75,-102 650.75,-96 656.75,-90 662.75,-90"/>
<text xml:space="preserve" text-anchor="middle" x="691.88" y="-130.45" font-family="Helvetica,sans-Serif" font-weight="bold" font-size="9.00">@supabase</text>
</g>
<!-- lib/ghostme/agenda/agendaEngine.ts -->
<g id="node1" class="node">
<title>lib/ghostme/agenda/agendaEngine.ts</title>
<g id="a_node1"><a xlink:href="lib/ghostme/agenda/agendaEngine.ts" xlink:title="agendaEngine.ts">
<path fill="#ddfeff" stroke="black" d="M265.58,-60.25C265.58,-60.25 192.17,-60.25 192.17,-60.25 189.08,-60.25 186,-57.17 186,-54.08 186,-54.08 186,-47.92 186,-47.92 186,-44.83 189.08,-41.75 192.17,-41.75 192.17,-41.75 265.58,-41.75 265.58,-41.75 268.67,-41.75 271.75,-44.83 271.75,-47.92 271.75,-47.92 271.75,-54.08 271.75,-54.08 271.75,-57.17 268.67,-60.25 265.58,-60.25"/>
<text xml:space="preserve" text-anchor="start" x="194" y="-48" font-family="Helvetica,sans-Serif" font-size="9.00">agendaEngine.ts</text>
</a>
</g>
</g>
<!-- lib/ghostme/agenda/appointmentReminderNotification.ts -->
<g id="node2" class="node">
<title>lib/ghostme/agenda/appointmentReminderNotification.ts</title>
<g id="a_node2"><a xlink:href="lib/ghostme/agenda/appointmentReminderNotification.ts" xlink:title="no&#45;orphans">
<path fill="#ccffcc" stroke="orange" d="M303.83,-91.25C303.83,-91.25 153.92,-91.25 153.92,-91.25 150.83,-91.25 147.75,-88.17 147.75,-85.08 147.75,-85.08 147.75,-78.92 147.75,-78.92 147.75,-75.83 150.83,-72.75 153.92,-72.75 153.92,-72.75 303.83,-72.75 303.83,-72.75 306.92,-72.75 310,-75.83 310,-78.92 310,-78.92 310,-85.08 310,-85.08 310,-88.17 306.92,-91.25 303.83,-91.25"/>
<text xml:space="preserve" text-anchor="start" x="155.75" y="-79" font-family="Helvetica,sans-Serif" font-size="9.00" fill="orange">appointmentReminderNotification.ts</text>
</a>
</g>
</g>
<!-- lib/ghostme/agenda/reminderEngine.ts -->
<g id="node3" class="node">
<title>lib/ghostme/agenda/reminderEngine.ts</title>
<g id="a_node3"><a xlink:href="lib/ghostme/agenda/reminderEngine.ts" xlink:title="reminderEngine.ts">
<path fill="#ddfeff" stroke="black" d="M268.21,-122.25C268.21,-122.25 189.54,-122.25 189.54,-122.25 186.46,-122.25 183.38,-119.17 183.38,-116.08 183.38,-116.08 183.38,-109.92 183.38,-109.92 183.38,-106.83 186.46,-103.75 189.54,-103.75 189.54,-103.75 268.21,-103.75 268.21,-103.75 271.29,-103.75 274.38,-106.83 274.38,-109.92 274.38,-109.92 274.38,-116.08 274.38,-116.08 274.38,-119.17 271.29,-122.25 268.21,-122.25"/>
<text xml:space="preserve" text-anchor="start" x="191.38" y="-110" font-family="Helvetica,sans-Serif" font-size="9.00">reminderEngine.ts</text>
</a>
</g>
</g>
<!-- lib/ghostme/proactive/proactiveMessageService.ts -->
<g id="node4" class="node">
<title>lib/ghostme/proactive/proactiveMessageService.ts</title>
<g id="a_node4"><a xlink:href="lib/ghostme/proactive/proactiveMessageService.ts" xlink:title="proactiveMessageService.ts">
<path fill="#ddfeff" stroke="black" d="M458.58,-122.25C458.58,-122.25 340.17,-122.25 340.17,-122.25 337.08,-122.25 334,-119.17 334,-116.08 334,-116.08 334,-109.92 334,-109.92 334,-106.83 337.08,-103.75 340.17,-103.75 340.17,-103.75 458.58,-103.75 458.58,-103.75 461.67,-103.75 464.75,-106.83 464.75,-109.92 464.75,-109.92 464.75,-116.08 464.75,-116.08 464.75,-119.17 461.67,-122.25 458.58,-122.25"/>
<text xml:space="preserve" text-anchor="start" x="342" y="-110" font-family="Helvetica,sans-Serif" font-size="9.00">proactiveMessageService.ts</text>
</a>
</g>
</g>
<!-- lib/ghostme/agenda/reminderEngine.ts&#45;&gt;lib/ghostme/proactive/proactiveMessageService.ts -->
<g id="edge1" class="edge">
<title>lib/ghostme/agenda/reminderEngine.ts&#45;&gt;lib/ghostme/proactive/proactiveMessageService.ts</title>
<path fill="none" stroke="#000000" stroke-width="2" stroke-opacity="0.200000" d="M274.59,-113C290.03,-113 307.77,-113 324.9,-113"/>
<polygon fill="#000000" fill-opacity="0.200000" stroke="#000000" stroke-width="2" stroke-opacity="0.200000" points="324.76,-115.1 330.76,-113 324.76,-110.9 324.76,-115.1"/>
</g>
<!-- lib/supabaseAdmin.ts -->
<g id="node5" class="node">
<title>lib/supabaseAdmin.ts</title>
<g id="a_node5"><a xlink:href="lib/supabaseAdmin.ts" xlink:title="supabaseAdmin.ts">
<path fill="#ddfeff" stroke="black" d="M583.96,-202.25C583.96,-202.25 504.54,-202.25 504.54,-202.25 501.46,-202.25 498.38,-199.17 498.38,-196.08 498.38,-196.08 498.38,-189.92 498.38,-189.92 498.38,-186.83 501.46,-183.75 504.54,-183.75 504.54,-183.75 583.96,-183.75 583.96,-183.75 587.04,-183.75 590.12,-186.83 590.12,-189.92 590.12,-189.92 590.12,-196.08 590.12,-196.08 590.12,-199.17 587.04,-202.25 583.96,-202.25"/>
<text xml:space="preserve" text-anchor="start" x="506.38" y="-190" font-family="Helvetica,sans-Serif" font-size="9.00">supabaseAdmin.ts</text>
</a>
</g>
</g>
<!-- lib/ghostme/agenda/reminderEngine.ts&#45;&gt;lib/supabaseAdmin.ts -->
<g id="edge2" class="edge">
<title>lib/ghostme/agenda/reminderEngine.ts&#45;&gt;lib/supabaseAdmin.ts</title>
<path fill="none" stroke="#000000" stroke-width="2" stroke-opacity="0.200000" d="M274.64,-110.34C289.93,-111.66 306.15,-115.83 318,-126 327.17,-133.88 316.99,-143.94 326,-152 338.1,-162.82 429.09,-177.24 489.41,-185.78"/>
<polygon fill="#000000" fill-opacity="0.200000" stroke="#000000" stroke-width="2" stroke-opacity="0.200000" points="488.85,-187.83 495.08,-186.58 489.43,-183.67 488.85,-187.83"/>
</g>
<!-- lib/ghostme/proactive/proactiveMessageService.ts&#45;&gt;lib/supabaseAdmin.ts -->
<g id="edge10" class="edge">
<title>lib/ghostme/proactive/proactiveMessageService.ts&#45;&gt;lib/supabaseAdmin.ts</title>
<path fill="none" stroke="#000000" stroke-width="2" stroke-opacity="0.200000" d="M459.61,-122.58C461.4,-123.62 463.12,-124.75 464.75,-126 475.01,-133.85 469.06,-142.44 477.75,-152 487.82,-163.08 501.55,-172.29 513.84,-179.15"/>
<polygon fill="#000000" fill-opacity="0.200000" stroke="#000000" stroke-width="2" stroke-opacity="0.200000" points="512.7,-180.92 518.98,-181.9 514.68,-177.22 512.7,-180.92"/>
</g>
<!-- lib/ghostme/proactive/proactiveCardLifecycle.ts -->
<g id="node9" class="node">
<title>lib/ghostme/proactive/proactiveCardLifecycle.ts</title>
<g id="a_node9"><a xlink:href="lib/ghostme/proactive/proactiveCardLifecycle.ts" xlink:title="proactiveCardLifecycle.ts">
<path fill="#ddfeff" stroke="black" d="M597.46,-91.25C597.46,-91.25 491.04,-91.25 491.04,-91.25 487.96,-91.25 484.88,-88.17 484.88,-85.08 484.88,-85.08 484.88,-78.92 484.88,-78.92 484.88,-75.83 487.96,-72.75 491.04,-72.75 491.04,-72.75 597.46,-72.75 597.46,-72.75 600.54,-72.75 603.62,-75.83 603.62,-78.92 603.62,-78.92 603.62,-85.08 603.62,-85.08 603.62,-88.17 600.54,-91.25 597.46,-91.25"/>
<text xml:space="preserve" text-anchor="start" x="492.88" y="-79" font-family="Helvetica,sans-Serif" font-size="9.00">proactiveCardLifecycle.ts</text>
</a>
</g>
</g>
<!-- lib/ghostme/proactive/proactiveMessageService.ts&#45;&gt;lib/ghostme/proactive/proactiveCardLifecycle.ts -->
<g id="edge8" class="edge">
<title>lib/ghostme/proactive/proactiveMessageService.ts&#45;&gt;lib/ghostme/proactive/proactiveCardLifecycle.ts</title>
<path fill="none" stroke="#000000" stroke-width="2" stroke-opacity="0.200000" d="M445.19,-103.28C459.42,-100.19 475.29,-96.74 490.05,-93.54"/>
<polygon fill="#000000" fill-opacity="0.200000" stroke="#000000" stroke-width="2" stroke-opacity="0.200000" points="490.22,-95.66 495.64,-92.33 489.33,-91.55 490.22,-95.66"/>
</g>
<!-- lib/ghostme/proactive/proactiveMessageDedupe.ts -->
<g id="node10" class="node">
<title>lib/ghostme/proactive/proactiveMessageDedupe.ts</title>
<g id="a_node10"><a xlink:href="lib/ghostme/proactive/proactiveMessageDedupe.ts" xlink:title="proactiveMessageDedupe.ts">
<path fill="#ddfeff" stroke="black" d="M604.58,-122.25C604.58,-122.25 483.92,-122.25 483.92,-122.25 480.83,-122.25 477.75,-119.17 477.75,-116.08 477.75,-116.08 477.75,-109.92 477.75,-109.92 477.75,-106.83 480.83,-103.75 483.92,-103.75 483.92,-103.75 604.58,-103.75 604.58,-103.75 607.67,-103.75 610.75,-106.83 610.75,-109.92 610.75,-109.92 610.75,-116.08 610.75,-116.08 610.75,-119.17 607.67,-122.25 604.58,-122.25"/>
<text xml:space="preserve" text-anchor="start" x="485.75" y="-110" font-family="Helvetica,sans-Serif" font-size="9.00">proactiveMessageDedupe.ts</text>
</a>
</g>
</g>
<!-- lib/ghostme/proactive/proactiveMessageService.ts&#45;&gt;lib/ghostme/proactive/proactiveMessageDedupe.ts -->
<g id="edge9" class="edge">
<title>lib/ghostme/proactive/proactiveMessageService.ts&#45;&gt;lib/ghostme/proactive/proactiveMessageDedupe.ts</title>
<path fill="none" stroke="#000000" stroke-width="2" stroke-opacity="0.200000" d="M465.12,-113C466.29,-113 467.45,-113 468.62,-113"/>
<polygon fill="#000000" fill-opacity="0.200000" stroke="#000000" stroke-width="2" stroke-opacity="0.200000" points="468.54,-115.1 474.54,-113 468.54,-110.9 468.54,-115.1"/>
</g>
<!-- node_modules/@supabase/supabase&#45;js -->
<g id="node11" class="node">
<title>node_modules/@supabase/supabase&#45;js</title>
<g id="a_node11"><a xlink:href="https://www.npmjs.com/package/@supabase/supabase-js" xlink:title="supabase&#45;js">
<polygon fill="#c40b0a" fill-opacity="0.101961" stroke="black" points="725,-116.25 660.81,-116.25 658.75,-114.19 658.75,-97.75 722.94,-97.75 725,-99.81 725,-116.25"/>
<polyline fill="none" stroke="black" points="722.94,-114.19 658.75,-114.19"/>
<polyline fill="none" stroke="black" points="722.94,-114.19 722.94,-97.75"/>
<polyline fill="none" stroke="black" points="722.94,-114.19 725,-116.25"/>
<text xml:space="preserve" text-anchor="start" x="666.75" y="-104" font-family="Helvetica,sans-Serif" font-size="9.00" fill="#c40b0a">supabase&#45;js</text>
</a>
</g>
</g>
<!-- lib/supabaseAdmin.ts&#45;&gt;node_modules/@supabase/supabase&#45;js -->
<g id="edge11" class="edge">
<title>lib/supabaseAdmin.ts&#45;&gt;node_modules/@supabase/supabase&#45;js</title>
<path fill="none" stroke="#000000" stroke-opacity="0.200000" d="M570.79,-183.27C589.17,-175.8 614.24,-164.65 634.75,-152 649.28,-143.04 664.29,-130.82 675.13,-121.37"/>
<polygon fill="#000000" fill-opacity="0.200000" stroke="#000000" stroke-opacity="0.200000" points="676.46,-123 679.56,-117.45 673.68,-119.86 676.46,-123"/>
</g>
<!-- lib/ghostme/calendar/calendarIntent.ts -->
<g id="node6" class="node">
<title>lib/ghostme/calendar/calendarIntent.ts</title>
<g id="a_node6"><a xlink:href="lib/ghostme/calendar/calendarIntent.ts" xlink:title="calendarIntent.ts">
<path fill="#ddfeff" stroke="black" d="M113.46,-50.25C113.46,-50.25 42.29,-50.25 42.29,-50.25 39.21,-50.25 36.12,-47.17 36.12,-44.08 36.12,-44.08 36.12,-37.92 36.12,-37.92 36.12,-34.83 39.21,-31.75 42.29,-31.75 42.29,-31.75 113.46,-31.75 113.46,-31.75 116.54,-31.75 119.62,-34.83 119.62,-37.92 119.62,-37.92 119.62,-44.08 119.62,-44.08 119.62,-47.17 116.54,-50.25 113.46,-50.25"/>
<text xml:space="preserve" text-anchor="start" x="44.12" y="-38" font-family="Helvetica,sans-Serif" font-size="9.00">calendarIntent.ts</text>
</a>
</g>
</g>
<!-- node_modules/openai -->
<g id="node7" class="node">
<title>node_modules/openai</title>
<g id="a_node7"><a xlink:href="https://www.npmjs.com/package/openai" xlink:title="openai">
<polygon fill="#c40b0a" fill-opacity="0.101961" stroke="black" points="718.88,-82.25 666.93,-82.25 664.88,-80.19 664.88,-63.75 716.82,-63.75 718.88,-65.81 718.88,-82.25"/>
<polyline fill="none" stroke="black" points="716.82,-80.19 664.88,-80.19"/>
<polyline fill="none" stroke="black" points="716.82,-80.19 716.82,-63.75"/>
<polyline fill="none" stroke="black" points="716.82,-80.19 718.88,-82.25"/>
<text xml:space="preserve" text-anchor="start" x="677.62" y="-70" font-family="Helvetica,sans-Serif" font-size="9.00" fill="#c40b0a">openai</text>
</a>
</g>
</g>
<!-- lib/ghostme/calendar/calendarIntent.ts&#45;&gt;node_modules/openai -->
<g id="edge3" class="edge">
<title>lib/ghostme/calendar/calendarIntent.ts&#45;&gt;node_modules/openai</title>
<path fill="none" stroke="#000000" stroke-opacity="0.200000" d="M97.21,-31.27C108.99,-25.57 124.84,-18.94 139.75,-16 333.46,22.23 570.86,-37.5 657.34,-62.67"/>
<polygon fill="#000000" fill-opacity="0.200000" stroke="#000000" stroke-opacity="0.200000" points="656.72,-64.67 663.06,-64.35 657.9,-60.64 656.72,-64.67"/>
</g>
<!-- lib/ghostme/calendar/calendarService.ts -->
<g id="node8" class="node">
<title>lib/ghostme/calendar/calendarService.ts</title>
<g id="a_node8"><a xlink:href="lib/ghostme/calendar/calendarService.ts" xlink:title="calendarService.ts">
<path fill="#ddfeff" stroke="black" d="M117.58,-81.25C117.58,-81.25 38.17,-81.25 38.17,-81.25 35.08,-81.25 32,-78.17 32,-75.08 32,-75.08 32,-68.92 32,-68.92 32,-65.83 35.08,-62.75 38.17,-62.75 38.17,-62.75 117.58,-62.75 117.58,-62.75 120.67,-62.75 123.75,-65.83 123.75,-68.92 123.75,-68.92 123.75,-75.08 123.75,-75.08 123.75,-78.17 120.67,-81.25 117.58,-81.25"/>
<text xml:space="preserve" text-anchor="start" x="40" y="-69" font-family="Helvetica,sans-Serif" font-size="9.00">calendarService.ts</text>
</a>
</g>
</g>
<!-- lib/ghostme/calendar/calendarService.ts&#45;&gt;lib/ghostme/agenda/agendaEngine.ts -->
<g id="edge4" class="edge">
<title>lib/ghostme/calendar/calendarService.ts&#45;&gt;lib/ghostme/agenda/agendaEngine.ts</title>
<path fill="none" stroke="#000000" stroke-width="2" stroke-opacity="0.200000" d="M123.98,-65.64C140.69,-63.29 159.74,-60.6 176.92,-58.18"/>
<polygon fill="#000000" fill-opacity="0.200000" stroke="#000000" stroke-width="2" stroke-opacity="0.200000" points="177.07,-60.28 182.72,-57.36 176.49,-56.12 177.07,-60.28"/>
</g>
<!-- lib/ghostme/calendar/calendarService.ts&#45;&gt;lib/ghostme/agenda/reminderEngine.ts -->
<g id="edge5" class="edge">
<title>lib/ghostme/calendar/calendarService.ts&#45;&gt;lib/ghostme/agenda/reminderEngine.ts</title>
<path fill="none" stroke="#000000" stroke-width="2" stroke-opacity="0.200000" d="M99.34,-81.67C110.97,-86.84 125.93,-92.96 139.75,-97 150.81,-100.24 162.85,-102.94 174.38,-105.15"/>
<polygon fill="#000000" fill-opacity="0.200000" stroke="#000000" stroke-width="2" stroke-opacity="0.200000" points="173.81,-107.18 180.09,-106.19 174.57,-103.05 173.81,-107.18"/>
</g>
<!-- lib/ghostme/calendar/calendarService.ts&#45;&gt;lib/ghostme/proactive/proactiveMessageService.ts -->
<g id="edge6" class="edge">
<title>lib/ghostme/calendar/calendarService.ts&#45;&gt;lib/ghostme/proactive/proactiveMessageService.ts</title>
<path fill="none" stroke="#000000" stroke-width="2" stroke-opacity="0.200000" d="M123.2,-62.37C126.32,-60.59 129.22,-58.49 131.75,-56 140.06,-47.82 130.33,-37.88 139.75,-31 171.74,-7.65 281.48,-15.66 318,-31 349.18,-44.1 374.33,-75.84 387.75,-95.77"/>
<polygon fill="#000000" fill-opacity="0.200000" stroke="#000000" stroke-width="2" stroke-opacity="0.200000" points="385.93,-96.83 390.96,-100.72 389.45,-94.54 385.93,-96.83"/>
</g>
<!-- lib/ghostme/calendar/calendarService.ts&#45;&gt;lib/supabaseAdmin.ts -->
<g id="edge7" class="edge">
<title>lib/ghostme/calendar/calendarService.ts&#45;&gt;lib/supabaseAdmin.ts</title>
<path fill="none" stroke="#000000" stroke-width="2" stroke-opacity="0.200000" d="M83.03,-81.7C91.1,-99.19 110.67,-135.7 139.75,-152 251.45,-214.63 408.1,-208.96 489.45,-200.43"/>
<polygon fill="#000000" fill-opacity="0.200000" stroke="#000000" stroke-width="2" stroke-opacity="0.200000" points="489.29,-202.56 495.02,-199.82 488.83,-198.39 489.29,-202.56"/>
</g>
</g>
</svg>
