<?xml version="1.0" encoding="UTF-8" standalone="no"?>
<!DOCTYPE svg PUBLIC "-//W3C//DTD SVG 1.1//EN"
 "http://www.w3.org/Graphics/SVG/1.1/DTD/svg11.dtd">
<!-- Generated by graphviz version 15.0.0 (20260523.1842)
 -->
<!-- Title: dependency&#45;cruiser output Pages: 1 -->
<svg width="882pt" height="405pt"
 viewBox="0.00 0.00 882.00 405.00" xmlns="http://www.w3.org/2000/svg" xmlns:xlink="http://www.w3.org/1999/xlink">
<g id="graph0" class="graph" transform="scale(1 1) rotate(0) translate(4 400.69)">
<title>dependency&#45;cruiser output</title>
<polygon fill="#fbfbfd" stroke="none" points="-4,4 -4,-400.69 878,-400.69 878,4 -4,4"/>
<g id="clust1" class="cluster">
<title>cluster_lib</title>
<path fill="#ffffff" stroke="black" stroke-width="2" d="M20,-12.69C20,-12.69 747.75,-12.69 747.75,-12.69 753.75,-12.69 759.75,-18.69 759.75,-24.69 759.75,-24.69 759.75,-376.69 759.75,-376.69 759.75,-382.69 753.75,-388.69 747.75,-388.69 747.75,-388.69 20,-388.69 20,-388.69 14,-388.69 8,-382.69 8,-376.69 8,-376.69 8,-24.69 8,-24.69 8,-18.69 14,-12.69 20,-12.69"/>
<text xml:space="preserve" text-anchor="middle" x="383.88" y="-376.14" font-family="Helvetica,sans-Serif" font-weight="bold" font-size="9.00" fill="#374151">lib</text>
</g>
<g id="clust2" class="cluster">
<title>cluster_lib/ghostme</title>
<path fill="#ffffff" stroke="black" stroke-width="2" d="M28,-20.69C28,-20.69 640,-20.69 640,-20.69 646,-20.69 652,-26.69 652,-32.69 652,-32.69 652,-324.69 652,-324.69 652,-330.69 646,-336.69 640,-336.69 640,-336.69 28,-336.69 28,-336.69 22,-336.69 16,-330.69 16,-324.69 16,-324.69 16,-32.69 16,-32.69 16,-26.69 22,-20.69 28,-20.69"/>
<text xml:space="preserve" text-anchor="middle" x="334" y="-324.14" font-family="Helvetica,sans-Serif" font-weight="bold" font-size="9.00" fill="#374151">ghostme</text>
</g>
<g id="clust3" class="cluster">
<title>cluster_lib/ghostme/context</title>
<path fill="#ffffff" stroke="black" stroke-width="2" d="M286.62,-28.69C286.62,-28.69 367.38,-28.69 367.38,-28.69 373.38,-28.69 379.38,-34.69 379.38,-40.69 379.38,-40.69 379.38,-69.69 379.38,-69.69 379.38,-75.69 373.38,-81.69 367.38,-81.69 367.38,-81.69 286.62,-81.69 286.62,-81.69 280.62,-81.69 274.62,-75.69 274.62,-69.69 274.62,-69.69 274.62,-40.69 274.62,-40.69 274.62,-34.69 280.62,-28.69 286.62,-28.69"/>
<text xml:space="preserve" text-anchor="middle" x="327" y="-69.14" font-family="Helvetica,sans-Serif" font-weight="bold" font-size="9.00" fill="#374151">context</text>
</g>
<g id="clust4" class="cluster">
<title>cluster_lib/ghostme/curiosity</title>
<path fill="#ffffff" stroke="black" stroke-width="2" d="M36,-150.69C36,-150.69 125.75,-150.69 125.75,-150.69 131.75,-150.69 137.75,-156.69 137.75,-162.69 137.75,-162.69 137.75,-222.69 137.75,-222.69 137.75,-228.69 131.75,-234.69 125.75,-234.69 125.75,-234.69 36,-234.69 36,-234.69 30,-234.69 24,-228.69 24,-222.69 24,-222.69 24,-162.69 24,-162.69 24,-156.69 30,-150.69 36,-150.69"/>
<text xml:space="preserve" text-anchor="middle" x="80.88" y="-222.14" font-family="Helvetica,sans-Serif" font-weight="bold" font-size="9.00" fill="#374151">curiosity</text>
</g>
<g id="clust5" class="cluster">
<title>cluster_lib/ghostme/location</title>
<path fill="#ffffff" stroke="black" stroke-width="2" d="M270.5,-89.69C270.5,-89.69 383.5,-89.69 383.5,-89.69 389.5,-89.69 395.5,-95.69 395.5,-101.69 395.5,-101.69 395.5,-161.69 395.5,-161.69 395.5,-167.69 389.5,-173.69 383.5,-173.69 383.5,-173.69 270.5,-173.69 270.5,-173.69 264.5,-173.69 258.5,-167.69 258.5,-161.69 258.5,-161.69 258.5,-101.69 258.5,-101.69 258.5,-95.69 264.5,-89.69 270.5,-89.69"/>
<text xml:space="preserve" text-anchor="middle" x="327" y="-161.14" font-family="Helvetica,sans-Serif" font-weight="bold" font-size="9.00" fill="#374151">location</text>
</g>
<g id="clust6" class="cluster">
<title>cluster_lib/ghostme/observation</title>
<path fill="#ffffff" stroke="black" stroke-width="2" d="M282.5,-181.69C282.5,-181.69 371.5,-181.69 371.5,-181.69 377.5,-181.69 383.5,-187.69 383.5,-193.69 383.5,-193.69 383.5,-222.69 383.5,-222.69 383.5,-228.69 377.5,-234.69 371.5,-234.69 371.5,-234.69 282.5,-234.69 282.5,-234.69 276.5,-234.69 270.5,-228.69 270.5,-222.69 270.5,-222.69 270.5,-193.69 270.5,-193.69 270.5,-187.69 276.5,-181.69 282.5,-181.69"/>
<text xml:space="preserve" text-anchor="middle" x="327" y="-222.14" font-family="Helvetica,sans-Serif" font-weight="bold" font-size="9.00" fill="#374151">observation</text>
</g>
<g id="clust7" class="cluster">
<title>cluster_lib/ghostme/people</title>
<path fill="#ffffff" stroke="black" stroke-width="2" d="M276.12,-242.69C276.12,-242.69 632,-242.69 632,-242.69 638,-242.69 644,-248.69 644,-254.69 644,-254.69 644,-297.69 644,-297.69 644,-303.69 638,-309.69 632,-309.69 632,-309.69 276.12,-309.69 276.12,-309.69 270.12,-309.69 264.12,-303.69 264.12,-297.69 264.12,-297.69 264.12,-254.69 264.12,-254.69 264.12,-248.69 270.12,-242.69 276.12,-242.69"/>
<text xml:space="preserve" text-anchor="middle" x="454.06" y="-297.14" font-family="Helvetica,sans-Serif" font-weight="bold" font-size="9.00" fill="#374151">people</text>
</g>
<g id="clust8" class="cluster">
<title>cluster_lib/ghostme/situation</title>
<path fill="#ffffff" stroke="black" stroke-width="2" d="M157.75,-150.69C157.75,-150.69 238.5,-150.69 238.5,-150.69 244.5,-150.69 250.5,-156.69 250.5,-162.69 250.5,-162.69 250.5,-191.69 250.5,-191.69 250.5,-197.69 244.5,-203.69 238.5,-203.69 238.5,-203.69 157.75,-203.69 157.75,-203.69 151.75,-203.69 145.75,-197.69 145.75,-191.69 145.75,-191.69 145.75,-162.69 145.75,-162.69 145.75,-156.69 151.75,-150.69 157.75,-150.69"/>
<text xml:space="preserve" text-anchor="middle" x="198.12" y="-191.14" font-family="Helvetica,sans-Serif" font-weight="bold" font-size="9.00" fill="#374151">situation</text>
</g>
<g id="clust9" class="cluster">
<title>cluster_node_modules</title>
<path fill="#ffffff" stroke="black" stroke-width="2" d="M779.75,-140.69C779.75,-140.69 854,-140.69 854,-140.69 860,-140.69 866,-146.69 866,-152.69 866,-152.69 866,-242.69 866,-242.69 866,-248.69 860,-254.69 854,-254.69 854,-254.69 779.75,-254.69 779.75,-254.69 773.75,-254.69 767.75,-248.69 767.75,-242.69 767.75,-242.69 767.75,-152.69 767.75,-152.69 767.75,-146.69 773.75,-140.69 779.75,-140.69"/>
<text xml:space="preserve" text-anchor="middle" x="816.88" y="-242.14" font-family="Helvetica,sans-Serif" font-weight="bold" font-size="9.00" fill="#374151">node_modules</text>
</g>
<g id="clust10" class="cluster">
<title>cluster_node_modules/@supabase</title>
<path fill="#ffffff" stroke="black" stroke-width="2" d="M787.75,-174.69C787.75,-174.69 846,-174.69 846,-174.69 852,-174.69 858,-180.69 858,-186.69 858,-186.69 858,-215.69 858,-215.69 858,-221.69 852,-227.69 846,-227.69 846,-227.69 787.75,-227.69 787.75,-227.69 781.75,-227.69 775.75,-221.69 775.75,-215.69 775.75,-215.69 775.75,-186.69 775.75,-186.69 775.75,-180.69 781.75,-174.69 787.75,-174.69"/>
<text xml:space="preserve" text-anchor="middle" x="816.88" y="-215.14" font-family="Helvetica,sans-Serif" font-weight="bold" font-size="9.00" fill="#374151">@supabase</text>
</g>
<!-- lib/ghostme/context/temporalPriority.ts -->
<g id="node1" class="node">
<title>lib/ghostme/context/temporalPriority.ts</title>
<g id="a_node1"><a xlink:href="lib/ghostme/context/temporalPriority.ts" xlink:title="temporalPriority.ts">
<path fill="#ddfeff" stroke="#9ca3af" d="M365.21,-54.94C365.21,-54.94 288.79,-54.94 288.79,-54.94 285.71,-54.94 282.62,-51.86 282.62,-48.77 282.62,-48.77 282.62,-42.61 282.62,-42.61 282.62,-39.52 285.71,-36.44 288.79,-36.44 288.79,-36.44 365.21,-36.44 365.21,-36.44 368.29,-36.44 371.38,-39.52 371.38,-42.61 371.38,-42.61 371.38,-48.77 371.38,-48.77 371.38,-51.86 368.29,-54.94 365.21,-54.94"/>
<text xml:space="preserve" text-anchor="start" x="290.62" y="-42.69" font-family="Helvetica,sans-Serif" font-size="9.00" fill="#111827">temporalPriority.ts</text>
</a>
</g>
</g>
<!-- lib/ghostme/curiosity/curiosityEngine.ts -->
<g id="node2" class="node">
<title>lib/ghostme/curiosity/curiosityEngine.ts</title>
<g id="a_node2"><a xlink:href="lib/ghostme/curiosity/curiosityEngine.ts" xlink:title="curiosityEngine.ts">
<path fill="#dcfce7" stroke="#4ade80" d="M118.71,-176.94C118.71,-176.94 43.04,-176.94 43.04,-176.94 39.96,-176.94 36.88,-173.86 36.88,-170.77 36.88,-170.77 36.88,-164.61 36.88,-164.61 36.88,-161.52 39.96,-158.44 43.04,-158.44 43.04,-158.44 118.71,-158.44 118.71,-158.44 121.79,-158.44 124.88,-161.52 124.88,-164.61 124.88,-164.61 124.88,-170.77 124.88,-170.77 124.88,-173.86 121.79,-176.94 118.71,-176.94"/>
<text xml:space="preserve" text-anchor="start" x="44.88" y="-164.69" font-family="Helvetica,sans-Serif" font-size="9.00" fill="#111827">curiosityEngine.ts</text>
</a>
</g>
</g>
<!-- lib/ghostme/situation/situationEngine.ts -->
<g id="node3" class="node">
<title>lib/ghostme/situation/situationEngine.ts</title>
<g id="a_node3"><a xlink:href="lib/ghostme/situation/situationEngine.ts" xlink:title="situationEngine.ts">
<path fill="#dcfce7" stroke="#4ade80" d="M236.33,-176.94C236.33,-176.94 159.92,-176.94 159.92,-176.94 156.83,-176.94 153.75,-173.86 153.75,-170.77 153.75,-170.77 153.75,-164.61 153.75,-164.61 153.75,-161.52 156.83,-158.44 159.92,-158.44 159.92,-158.44 236.33,-158.44 236.33,-158.44 239.42,-158.44 242.5,-161.52 242.5,-164.61 242.5,-164.61 242.5,-170.77 242.5,-170.77 242.5,-173.86 239.42,-176.94 236.33,-176.94"/>
<text xml:space="preserve" text-anchor="start" x="161.75" y="-164.69" font-family="Helvetica,sans-Serif" font-size="9.00" fill="#111827">situationEngine.ts</text>
</a>
</g>
</g>
<!-- lib/ghostme/curiosity/curiosityEngine.ts&#45;&gt;lib/ghostme/situation/situationEngine.ts -->
<g id="edge1" class="edge">
<title>lib/ghostme/curiosity/curiosityEngine.ts&#45;&gt;lib/ghostme/situation/situationEngine.ts</title>
<path fill="none" stroke="#6b7280" stroke-width="2" stroke-opacity="0.400000" d="M125.12,-167.69C131.44,-167.69 138.01,-167.69 144.5,-167.69"/>
<polygon fill="#6b7280" fill-opacity="0.400000" stroke="#6b7280" stroke-width="2" stroke-opacity="0.400000" points="144.23,-169.79 150.23,-167.69 144.23,-165.59 144.23,-169.79"/>
</g>
<!-- lib/supabaseAdmin.ts -->
<g id="node4" class="node">
<title>lib/supabaseAdmin.ts</title>
<g id="a_node4"><a xlink:href="lib/supabaseAdmin.ts" xlink:title="supabaseAdmin.ts">
<path fill="#d1d5db" stroke="#4b5563" stroke-width="2" d="M745.58,-327.94C745.58,-327.94 666.17,-327.94 666.17,-327.94 663.08,-327.94 660,-324.86 660,-321.77 660,-321.77 660,-315.61 660,-315.61 660,-312.52 663.08,-309.44 666.17,-309.44 666.17,-309.44 745.58,-309.44 745.58,-309.44 748.67,-309.44 751.75,-312.52 751.75,-315.61 751.75,-315.61 751.75,-321.77 751.75,-321.77 751.75,-324.86 748.67,-327.94 745.58,-327.94"/>
<text xml:space="preserve" text-anchor="start" x="668" y="-315.69" font-family="Helvetica,sans-Serif" font-size="9.00" fill="#111827">supabaseAdmin.ts</text>
</a>
</g>
</g>
<!-- lib/ghostme/curiosity/curiosityEngine.ts&#45;&gt;lib/supabaseAdmin.ts -->
<g id="edge2" class="edge">
<title>lib/ghostme/curiosity/curiosityEngine.ts&#45;&gt;lib/supabaseAdmin.ts</title>
<path fill="none" stroke="#6b7280" stroke-width="2" stroke-opacity="0.400000" d="M125.35,-175.49C129.89,-177.61 134.16,-180.29 137.75,-183.69 145.61,-191.13 140.33,-197.32 145.75,-206.69 184.06,-272.89 195.33,-293.57 258.5,-336.69 284.8,-354.64 294.16,-360.69 326,-360.69 326,-360.69 326,-360.69 450.75,-360.69 540.33,-360.69 566.23,-375.51 652,-349.69 663.46,-346.24 675.06,-339.83 684.46,-333.74"/>
<polygon fill="#6b7280" fill-opacity="0.400000" stroke="#6b7280" stroke-width="2" stroke-opacity="0.400000" points="685.5,-335.57 689.29,-330.46 683.15,-332.09 685.5,-335.57"/>
</g>
<!-- node_modules/openai -->
<g id="node5" class="node">
<title>node_modules/openai</title>
<g id="a_node5"><a xlink:href="https://www.npmjs.com/package/openai" xlink:title="openai">
<polygon fill="#d1d5db" stroke="#4b5563" stroke-width="2" points="843.88,-166.94 791.93,-166.94 789.88,-164.88 789.88,-148.44 841.82,-148.44 843.88,-150.49 843.88,-166.94"/>
<polyline fill="none" stroke="#4b5563" stroke-width="2" points="841.82,-164.88 789.88,-164.88"/>
<polyline fill="none" stroke="#4b5563" stroke-width="2" points="841.82,-164.88 841.82,-148.44"/>
<polyline fill="none" stroke="#4b5563" stroke-width="2" points="841.82,-164.88 843.88,-166.94"/>
<text xml:space="preserve" text-anchor="start" x="802.62" y="-154.69" font-family="Helvetica,sans-Serif" font-size="9.00" fill="#111827">openai</text>
</a>
</g>
</g>
<!-- lib/ghostme/curiosity/curiosityEngine.ts&#45;&gt;node_modules/openai -->
<g id="edge3" class="edge">
<title>lib/ghostme/curiosity/curiosityEngine.ts&#45;&gt;node_modules/openai</title>
<path fill="none" stroke="#6b7280" stroke-opacity="0.400000" d="M90.32,-158.16C113.96,-132.13 183.99,-59.55 258.5,-25.69 286.24,-13.08 295.53,-13.69 326,-13.69 326,-13.69 326,-13.69 573.5,-13.69 656.42,-13.69 692.03,23.17 759.75,-24.69 798.26,-51.91 810.48,-110.98 814.25,-140.36"/>
<polygon fill="#6b7280" fill-opacity="0.400000" stroke="#6b7280" stroke-opacity="0.400000" points="812.13,-140.26 814.9,-145.98 816.3,-139.78 812.13,-140.26"/>
</g>
<!-- lib/ghostme/situation/situationEngine.ts&#45;&gt;lib/ghostme/context/temporalPriority.ts -->
<g id="edge11" class="edge">
<title>lib/ghostme/situation/situationEngine.ts&#45;&gt;lib/ghostme/context/temporalPriority.ts</title>
<path fill="none" stroke="#6b7280" stroke-width="2" stroke-opacity="0.400000" d="M204.5,-158.01C213.86,-141.79 234.47,-108.72 258.5,-86.69 270.22,-75.95 285.17,-66.52 298.02,-59.43"/>
<polygon fill="#6b7280" fill-opacity="0.400000" stroke="#6b7280" stroke-width="2" stroke-opacity="0.400000" points="298.73,-61.43 303.03,-56.75 296.75,-57.73 298.73,-61.43"/>
</g>
<!-- lib/ghostme/situation/situationEngine.ts&#45;&gt;lib/supabaseAdmin.ts -->
<g id="edge16" class="edge">
<title>lib/ghostme/situation/situationEngine.ts&#45;&gt;lib/supabaseAdmin.ts</title>
<path fill="none" stroke="#6b7280" stroke-width="2" stroke-opacity="0.400000" d="M242.59,-174.06C245.57,-175.82 248.27,-178 250.5,-180.69 269.25,-203.32 238.75,-290.93 258.5,-312.69 317.39,-377.57 565.68,-352.73 652,-337.69 659.25,-336.43 666.82,-334.26 673.9,-331.82"/>
<polygon fill="#6b7280" fill-opacity="0.400000" stroke="#6b7280" stroke-width="2" stroke-opacity="0.400000" points="674.16,-333.96 679.08,-329.93 672.72,-330.02 674.16,-333.96"/>
</g>
<!-- lib/ghostme/location/locationStateFreshness.ts -->
<g id="node7" class="node">
<title>lib/ghostme/location/locationStateFreshness.ts</title>
<g id="a_node7"><a xlink:href="lib/ghostme/location/locationStateFreshness.ts" xlink:title="locationStateFreshness.ts">
<path fill="#ddfeff" stroke="#9ca3af" d="M381.33,-115.94C381.33,-115.94 272.67,-115.94 272.67,-115.94 269.58,-115.94 266.5,-112.86 266.5,-109.77 266.5,-109.77 266.5,-103.61 266.5,-103.61 266.5,-100.52 269.58,-97.44 272.67,-97.44 272.67,-97.44 381.33,-97.44 381.33,-97.44 384.42,-97.44 387.5,-100.52 387.5,-103.61 387.5,-103.61 387.5,-109.77 387.5,-109.77 387.5,-112.86 384.42,-115.94 381.33,-115.94"/>
<text xml:space="preserve" text-anchor="start" x="274.5" y="-103.69" font-family="Helvetica,sans-Serif" font-size="9.00" fill="#111827">locationStateFreshness.ts</text>
</a>
</g>
</g>
<!-- lib/ghostme/situation/situationEngine.ts&#45;&gt;lib/ghostme/location/locationStateFreshness.ts -->
<g id="edge12" class="edge">
<title>lib/ghostme/situation/situationEngine.ts&#45;&gt;lib/ghostme/location/locationStateFreshness.ts</title>
<path fill="none" stroke="#6b7280" stroke-width="2" stroke-opacity="0.400000" d="M208.78,-158.31C219.88,-148.05 239.08,-131.85 258.5,-122.69 261.11,-121.46 263.83,-120.31 266.61,-119.26"/>
<polygon fill="#6b7280" fill-opacity="0.400000" stroke="#6b7280" stroke-width="2" stroke-opacity="0.400000" points="267.24,-121.26 272.22,-117.32 265.87,-117.29 267.24,-121.26"/>
</g>
<!-- lib/ghostme/location/placeService.ts -->
<g id="node8" class="node">
<title>lib/ghostme/location/placeService.ts</title>
<g id="a_node8"><a xlink:href="lib/ghostme/location/placeService.ts" xlink:title="placeService.ts">
<path fill="#fef3c7" stroke="#f59e0b" d="M359.96,-146.94C359.96,-146.94 294.04,-146.94 294.04,-146.94 290.96,-146.94 287.88,-143.86 287.88,-140.77 287.88,-140.77 287.88,-134.61 287.88,-134.61 287.88,-131.52 290.96,-128.44 294.04,-128.44 294.04,-128.44 359.96,-128.44 359.96,-128.44 363.04,-128.44 366.12,-131.52 366.12,-134.61 366.12,-134.61 366.12,-140.77 366.12,-140.77 366.12,-143.86 363.04,-146.94 359.96,-146.94"/>
<text xml:space="preserve" text-anchor="start" x="295.88" y="-134.69" font-family="Helvetica,sans-Serif" font-size="9.00" fill="#111827">placeService.ts</text>
</a>
</g>
</g>
<!-- lib/ghostme/situation/situationEngine.ts&#45;&gt;lib/ghostme/location/placeService.ts -->
<g id="edge13" class="edge">
<title>lib/ghostme/situation/situationEngine.ts&#45;&gt;lib/ghostme/location/placeService.ts</title>
<path fill="none" stroke="#6b7280" stroke-width="2" stroke-opacity="0.400000" d="M240.32,-157.95C252.66,-155.03 266.3,-151.81 278.99,-148.81"/>
<polygon fill="#6b7280" fill-opacity="0.400000" stroke="#6b7280" stroke-width="2" stroke-opacity="0.400000" points="279.29,-150.89 284.65,-147.47 278.33,-146.8 279.29,-150.89"/>
</g>
<!-- lib/ghostme/observation/observationPolicy.ts -->
<g id="node9" class="node">
<title>lib/ghostme/observation/observationPolicy.ts</title>
<g id="a_node9"><a xlink:href="lib/ghostme/observation/observationPolicy.ts" xlink:title="observationPolicy.ts">
<path fill="#ddfeff" stroke="#9ca3af" d="M369.33,-207.94C369.33,-207.94 284.67,-207.94 284.67,-207.94 281.58,-207.94 278.5,-204.86 278.5,-201.77 278.5,-201.77 278.5,-195.61 278.5,-195.61 278.5,-192.52 281.58,-189.44 284.67,-189.44 284.67,-189.44 369.33,-189.44 369.33,-189.44 372.42,-189.44 375.5,-192.52 375.5,-195.61 375.5,-195.61 375.5,-201.77 375.5,-201.77 375.5,-204.86 372.42,-207.94 369.33,-207.94"/>
<text xml:space="preserve" text-anchor="start" x="286.5" y="-195.69" font-family="Helvetica,sans-Serif" font-size="9.00" fill="#111827">observationPolicy.ts</text>
</a>
</g>
</g>
<!-- lib/ghostme/situation/situationEngine.ts&#45;&gt;lib/ghostme/observation/observationPolicy.ts -->
<g id="edge14" class="edge">
<title>lib/ghostme/situation/situationEngine.ts&#45;&gt;lib/ghostme/observation/observationPolicy.ts</title>
<path fill="none" stroke="#6b7280" stroke-width="2" stroke-opacity="0.400000" d="M238.92,-177.41C251.2,-180.41 264.86,-183.75 277.66,-186.88"/>
<polygon fill="#6b7280" fill-opacity="0.400000" stroke="#6b7280" stroke-width="2" stroke-opacity="0.400000" points="277.08,-188.9 283.4,-188.28 278.07,-184.82 277.08,-188.9"/>
</g>
<!-- lib/ghostme/people/peopleGraphService.ts -->
<g id="node11" class="node">
<title>lib/ghostme/people/peopleGraphService.ts</title>
<g id="a_node11"><a xlink:href="lib/ghostme/people/peopleGraphService.ts" xlink:title="peopleGraphService.ts">
<path fill="#fef3c7" stroke="#f59e0b" d="M375.71,-275.94C375.71,-275.94 278.29,-275.94 278.29,-275.94 275.21,-275.94 272.12,-272.86 272.12,-269.77 272.12,-269.77 272.12,-263.61 272.12,-263.61 272.12,-260.52 275.21,-257.44 278.29,-257.44 278.29,-257.44 375.71,-257.44 375.71,-257.44 378.79,-257.44 381.88,-260.52 381.88,-263.61 381.88,-263.61 381.88,-269.77 381.88,-269.77 381.88,-272.86 378.79,-275.94 375.71,-275.94"/>
<text xml:space="preserve" text-anchor="start" x="280.12" y="-263.69" font-family="Helvetica,sans-Serif" font-size="9.00" fill="#111827">peopleGraphService.ts</text>
</a>
</g>
</g>
<!-- lib/ghostme/situation/situationEngine.ts&#45;&gt;lib/ghostme/people/peopleGraphService.ts -->
<g id="edge15" class="edge">
<title>lib/ghostme/situation/situationEngine.ts&#45;&gt;lib/ghostme/people/peopleGraphService.ts</title>
<path fill="none" stroke="#6b7280" stroke-width="2" stroke-opacity="0.400000" d="M242.84,-174.53C245.68,-176.19 248.29,-178.22 250.5,-180.69 267.58,-199.73 242.97,-217.36 258.5,-237.69 263.45,-244.17 270.13,-249.22 277.37,-253.15"/>
<polygon fill="#6b7280" fill-opacity="0.400000" stroke="#6b7280" stroke-width="2" stroke-opacity="0.400000" points="276.35,-254.99 282.66,-255.68 278.16,-251.2 276.35,-254.99"/>
</g>
<!-- node_modules/@supabase/supabase&#45;js -->
<g id="node13" class="node">
<title>node_modules/@supabase/supabase&#45;js</title>
<g id="a_node13"><a xlink:href="https://www.npmjs.com/package/@supabase/supabase-js" xlink:title="supabase&#45;js">
<polygon fill="#d1d5db" stroke="#4b5563" stroke-width="2" points="850,-200.94 785.81,-200.94 783.75,-198.88 783.75,-182.44 847.94,-182.44 850,-184.49 850,-200.94"/>
<polyline fill="none" stroke="#4b5563" stroke-width="2" points="847.94,-198.88 783.75,-198.88"/>
<polyline fill="none" stroke="#4b5563" stroke-width="2" points="847.94,-198.88 847.94,-182.44"/>
<polyline fill="none" stroke="#4b5563" stroke-width="2" points="847.94,-198.88 850,-200.94"/>
<text xml:space="preserve" text-anchor="start" x="791.75" y="-188.69" font-family="Helvetica,sans-Serif" font-size="9.00" fill="#111827">supabase&#45;js</text>
</a>
</g>
</g>
<!-- lib/supabaseAdmin.ts&#45;&gt;node_modules/@supabase/supabase&#45;js -->
<g id="edge17" class="edge">
<title>lib/supabaseAdmin.ts&#45;&gt;node_modules/@supabase/supabase&#45;js</title>
<path fill="none" stroke="#6b7280" stroke-opacity="0.400000" d="M715.43,-308.72C734.37,-286.65 779.98,-233.52 802.64,-207.12"/>
<polygon fill="#6b7280" fill-opacity="0.400000" stroke="#6b7280" stroke-opacity="0.400000" points="804.06,-208.68 806.38,-202.76 800.87,-205.94 804.06,-208.68"/>
</g>
<!-- lib/ghostme/curiosity/curiositySnapshot.ts -->
<g id="node6" class="node">
<title>lib/ghostme/curiosity/curiositySnapshot.ts</title>
<g id="a_node6"><a xlink:href="lib/ghostme/curiosity/curiositySnapshot.ts" xlink:title="no&#45;orphans">
<path fill="#fee2e2" stroke="#ef4444" stroke-width="2.5" d="M123.58,-207.94C123.58,-207.94 38.17,-207.94 38.17,-207.94 35.08,-207.94 32,-204.86 32,-201.77 32,-201.77 32,-195.61 32,-195.61 32,-192.52 35.08,-189.44 38.17,-189.44 38.17,-189.44 123.58,-189.44 123.58,-189.44 126.67,-189.44 129.75,-192.52 129.75,-195.61 129.75,-195.61 129.75,-201.77 129.75,-201.77 129.75,-204.86 126.67,-207.94 123.58,-207.94"/>
<text xml:space="preserve" text-anchor="start" x="40" y="-195.69" font-family="Helvetica,sans-Serif" font-size="9.00" fill="#991b1b">curiositySnapshot.ts</text>
</a>
</g>
</g>
<!-- lib/ghostme/location/placeService.ts&#45;&gt;lib/supabaseAdmin.ts -->
<g id="edge4" class="edge">
<title>lib/ghostme/location/placeService.ts&#45;&gt;lib/supabaseAdmin.ts</title>
<path fill="none" stroke="#6b7280" stroke-width="2" stroke-opacity="0.400000" d="M355.99,-147.38C370.35,-153.89 386.65,-164.01 395.5,-178.69 403.2,-191.46 392.75,-302.35 403.5,-312.69 412.23,-321.08 565.74,-320.47 650.21,-319.5"/>
<polygon fill="#6b7280" fill-opacity="0.400000" stroke="#6b7280" stroke-width="2" stroke-opacity="0.400000" points="650.16,-321.6 656.14,-319.42 650.11,-317.4 650.16,-321.6"/>
</g>
<!-- lib/ghostme/people/peopleGraphLinkService.ts -->
<g id="node10" class="node">
<title>lib/ghostme/people/peopleGraphLinkService.ts</title>
<g id="a_node10"><a xlink:href="lib/ghostme/people/peopleGraphLinkService.ts" xlink:title="peopleGraphLinkService.ts">
<path fill="#fef3c7" stroke="#f59e0b" d="M629.83,-282.94C629.83,-282.94 515.17,-282.94 515.17,-282.94 512.08,-282.94 509,-279.86 509,-276.77 509,-276.77 509,-270.61 509,-270.61 509,-267.52 512.08,-264.44 515.17,-264.44 515.17,-264.44 629.83,-264.44 629.83,-264.44 632.92,-264.44 636,-267.52 636,-270.61 636,-270.61 636,-276.77 636,-276.77 636,-279.86 632.92,-282.94 629.83,-282.94"/>
<text xml:space="preserve" text-anchor="start" x="517" y="-270.69" font-family="Helvetica,sans-Serif" font-size="9.00" fill="#111827">peopleGraphLinkService.ts</text>
</a>
</g>
</g>
<!-- lib/ghostme/people/peopleGraphLinkService.ts&#45;&gt;lib/supabaseAdmin.ts -->
<g id="edge5" class="edge">
<title>lib/ghostme/people/peopleGraphLinkService.ts&#45;&gt;lib/supabaseAdmin.ts</title>
<path fill="none" stroke="#6b7280" stroke-width="2" stroke-opacity="0.400000" d="M636.2,-281.85C641.61,-283.22 646.95,-284.82 652,-286.69 663.16,-290.82 674.58,-297.38 683.94,-303.49"/>
<polygon fill="#6b7280" fill-opacity="0.400000" stroke="#6b7280" stroke-width="2" stroke-opacity="0.400000" points="682.61,-305.12 688.75,-306.75 684.96,-301.64 682.61,-305.12"/>
</g>
<!-- lib/ghostme/people/peopleGraphService.ts&#45;&gt;lib/supabaseAdmin.ts -->
<g id="edge8" class="edge">
<title>lib/ghostme/people/peopleGraphService.ts&#45;&gt;lib/supabaseAdmin.ts</title>
<path fill="none" stroke="#6b7280" stroke-width="2" stroke-opacity="0.400000" d="M382.26,-270.86C387.17,-273.01 391.71,-275.88 395.5,-279.69 409.2,-293.48 388.55,-310.26 403.5,-322.69 439.73,-352.8 574.09,-338.57 650.61,-327.49"/>
<polygon fill="#6b7280" fill-opacity="0.400000" stroke="#6b7280" stroke-width="2" stroke-opacity="0.400000" points="650.57,-329.61 656.2,-326.66 649.96,-325.46 650.57,-329.61"/>
</g>
<!-- lib/ghostme/people/peopleGraphService.ts&#45;&gt;lib/ghostme/people/peopleGraphLinkService.ts -->
<g id="edge6" class="edge">
<title>lib/ghostme/people/peopleGraphService.ts&#45;&gt;lib/ghostme/people/peopleGraphLinkService.ts</title>
<path fill="none" stroke="#6b7280" stroke-width="2" stroke-opacity="0.400000" d="M382.2,-260.12C415.16,-257.11 458.08,-254.96 496,-258.69 504.29,-259.5 513.02,-260.81 521.49,-262.33"/>
<polygon fill="#6b7280" fill-opacity="0.400000" stroke="#6b7280" stroke-width="2" stroke-opacity="0.400000" points="520.92,-264.36 527.21,-263.4 521.7,-260.23 520.92,-264.36"/>
</g>
<!-- lib/ghostme/people/peopleSnapshot.ts -->
<g id="node12" class="node">
<title>lib/ghostme/people/peopleSnapshot.ts</title>
<g id="a_node12"><a xlink:href="lib/ghostme/people/peopleSnapshot.ts" xlink:title="peopleSnapshot.ts">
<path fill="#dbeafe" stroke="#60a5fa" d="M489.83,-282.94C489.83,-282.94 409.67,-282.94 409.67,-282.94 406.58,-282.94 403.5,-279.86 403.5,-276.77 403.5,-276.77 403.5,-270.61 403.5,-270.61 403.5,-267.52 406.58,-264.44 409.67,-264.44 409.67,-264.44 489.83,-264.44 489.83,-264.44 492.92,-264.44 496,-267.52 496,-270.61 496,-270.61 496,-276.77 496,-276.77 496,-279.86 492.92,-282.94 489.83,-282.94"/>
<text xml:space="preserve" text-anchor="start" x="411.5" y="-270.69" font-family="Helvetica,sans-Serif" font-size="9.00" fill="#111827">peopleSnapshot.ts</text>
</a>
</g>
</g>
<!-- lib/ghostme/people/peopleGraphService.ts&#45;&gt;lib/ghostme/people/peopleSnapshot.ts -->
<g id="edge7" class="edge">
<title>lib/ghostme/people/peopleGraphService.ts&#45;&gt;lib/ghostme/people/peopleSnapshot.ts</title>
<path fill="none" stroke="#6b7280" stroke-width="2" stroke-opacity="0.400000" d="M382.37,-269.84C386.42,-270.08 390.51,-270.31 394.56,-270.55"/>
<polygon fill="#6b7280" fill-opacity="0.400000" stroke="#6b7280" stroke-width="2" stroke-opacity="0.400000" points="394.21,-272.63 400.32,-270.88 394.46,-268.44 394.21,-272.63"/>
</g>
<!-- lib/ghostme/people/peopleSnapshot.ts&#45;&gt;lib/supabaseAdmin.ts -->
<g id="edge10" class="edge">
<title>lib/ghostme/people/peopleSnapshot.ts&#45;&gt;lib/supabaseAdmin.ts</title>
<path fill="none" stroke="#6b7280" stroke-width="2" stroke-opacity="0.400000" d="M486.04,-283.38C493.59,-285.28 501.53,-287.16 509,-288.69 556.47,-298.41 611,-306.52 650.45,-311.84"/>
<polygon fill="#6b7280" fill-opacity="0.400000" stroke="#6b7280" stroke-width="2" stroke-opacity="0.400000" points="649.9,-313.89 656.13,-312.6 650.46,-309.72 649.9,-313.89"/>
</g>
<!-- lib/ghostme/people/peopleSnapshot.ts&#45;&gt;lib/ghostme/people/peopleGraphLinkService.ts -->
<g id="edge9" class="edge">
<title>lib/ghostme/people/peopleSnapshot.ts&#45;&gt;lib/ghostme/people/peopleGraphLinkService.ts</title>
<path fill="none" stroke="#6b7280" stroke-width="2" stroke-opacity="0.400000" d="M496.4,-273.69C497.53,-273.69 498.66,-273.69 499.8,-273.69"/>
<polygon fill="#6b7280" fill-opacity="0.400000" stroke="#6b7280" stroke-width="2" stroke-opacity="0.400000" points="499.59,-275.79 505.59,-273.69 499.59,-271.59 499.59,-275.79"/>
</g>
</g>
</svg>
