<?xml version="1.0" encoding="UTF-8" standalone="no"?>
<!DOCTYPE svg PUBLIC "-//W3C//DTD SVG 1.1//EN"
 "http://www.w3.org/Graphics/SVG/1.1/DTD/svg11.dtd">
<!-- Generated by graphviz version 15.0.0 (20260523.1842)
 -->
<!-- Title: dependency&#45;cruiser output Pages: 1 -->
<svg width="728pt" height="269pt"
 viewBox="0.00 0.00 728.00 269.00" xmlns="http://www.w3.org/2000/svg" xmlns:xlink="http://www.w3.org/1999/xlink">
<g id="graph0" class="graph" transform="scale(1 1) rotate(0) translate(4 265)">
<title>dependency&#45;cruiser output</title>
<polygon fill="#fbfbfd" stroke="none" points="-4,4 -4,-265 723.75,-265 723.75,4 -4,4"/>
<g id="clust1" class="cluster">
<title>cluster_lib</title>
<path fill="#ffffff" stroke="black" stroke-width="2" d="M20,-8C20,-8 593.5,-8 593.5,-8 599.5,-8 605.5,-14 605.5,-20 605.5,-20 605.5,-241 605.5,-241 605.5,-247 599.5,-253 593.5,-253 593.5,-253 20,-253 20,-253 14,-253 8,-247 8,-241 8,-241 8,-20 8,-20 8,-14 14,-8 20,-8"/>
<text xml:space="preserve" text-anchor="middle" x="306.75" y="-240.45" font-family="Helvetica,sans-Serif" font-weight="bold" font-size="9.00" fill="#374151">lib</text>
</g>
<g id="clust2" class="cluster">
<title>cluster_lib/ghostme</title>
<path fill="#ffffff" stroke="black" stroke-width="2" d="M28,-16C28,-16 485.75,-16 485.75,-16 491.75,-16 497.75,-22 497.75,-28 497.75,-28 497.75,-214 497.75,-214 497.75,-220 491.75,-226 485.75,-226 485.75,-226 28,-226 28,-226 22,-226 16,-220 16,-214 16,-214 16,-28 16,-28 16,-22 22,-16 28,-16"/>
<text xml:space="preserve" text-anchor="middle" x="256.88" y="-213.45" font-family="Helvetica,sans-Serif" font-weight="bold" font-size="9.00" fill="#374151">ghostme</text>
</g>
<g id="clust3" class="cluster">
<title>cluster_lib/ghostme/context</title>
<path fill="#ffffff" stroke="black" stroke-width="2" d="M281,-24C281,-24 361.75,-24 361.75,-24 367.75,-24 373.75,-30 373.75,-36 373.75,-36 373.75,-65 373.75,-65 373.75,-71 367.75,-77 361.75,-77 361.75,-77 281,-77 281,-77 275,-77 269,-71 269,-65 269,-65 269,-36 269,-36 269,-30 275,-24 281,-24"/>
<text xml:space="preserve" text-anchor="middle" x="321.38" y="-64.45" font-family="Helvetica,sans-Serif" font-weight="bold" font-size="9.00" fill="#374151">context</text>
</g>
<g id="clust4" class="cluster">
<title>cluster_lib/ghostme/curiosity</title>
<path fill="#ffffff" stroke="black" stroke-width="2" d="M36,-100C36,-100 125.75,-100 125.75,-100 131.75,-100 137.75,-106 137.75,-112 137.75,-112 137.75,-172 137.75,-172 137.75,-178 131.75,-184 125.75,-184 125.75,-184 36,-184 36,-184 30,-184 24,-178 24,-172 24,-172 24,-112 24,-112 24,-106 30,-100 36,-100"/>
<text xml:space="preserve" text-anchor="middle" x="80.88" y="-171.45" font-family="Helvetica,sans-Serif" font-weight="bold" font-size="9.00" fill="#374151">curiosity</text>
</g>
<g id="clust5" class="cluster">
<title>cluster_lib/ghostme/location</title>
<path fill="#ffffff" stroke="black" stroke-width="2" d="M286.25,-146C286.25,-146 356.5,-146 356.5,-146 362.5,-146 368.5,-152 368.5,-158 368.5,-158 368.5,-187 368.5,-187 368.5,-193 362.5,-199 356.5,-199 356.5,-199 286.25,-199 286.25,-199 280.25,-199 274.25,-193 274.25,-187 274.25,-187 274.25,-158 274.25,-158 274.25,-152 280.25,-146 286.25,-146"/>
<text xml:space="preserve" text-anchor="middle" x="321.38" y="-186.45" font-family="Helvetica,sans-Serif" font-weight="bold" font-size="9.00" fill="#374151">location</text>
</g>
<g id="clust6" class="cluster">
<title>cluster_lib/ghostme/people</title>
<path fill="#ffffff" stroke="black" stroke-width="2" d="M270.5,-85C270.5,-85 477.75,-85 477.75,-85 483.75,-85 489.75,-91 489.75,-97 489.75,-97 489.75,-126 489.75,-126 489.75,-132 483.75,-138 477.75,-138 477.75,-138 270.5,-138 270.5,-138 264.5,-138 258.5,-132 258.5,-126 258.5,-126 258.5,-97 258.5,-97 258.5,-91 264.5,-85 270.5,-85"/>
<text xml:space="preserve" text-anchor="middle" x="374.12" y="-125.45" font-family="Helvetica,sans-Serif" font-weight="bold" font-size="9.00" fill="#374151">people</text>
</g>
<g id="clust7" class="cluster">
<title>cluster_lib/ghostme/situation</title>
<path fill="#ffffff" stroke="black" stroke-width="2" d="M157.75,-100C157.75,-100 238.5,-100 238.5,-100 244.5,-100 250.5,-106 250.5,-112 250.5,-112 250.5,-141 250.5,-141 250.5,-147 244.5,-153 238.5,-153 238.5,-153 157.75,-153 157.75,-153 151.75,-153 145.75,-147 145.75,-141 145.75,-141 145.75,-112 145.75,-112 145.75,-106 151.75,-100 157.75,-100"/>
<text xml:space="preserve" text-anchor="middle" x="198.12" y="-140.45" font-family="Helvetica,sans-Serif" font-weight="bold" font-size="9.00" fill="#374151">situation</text>
</g>
<g id="clust8" class="cluster">
<title>cluster_node_modules</title>
<path fill="#ffffff" stroke="black" stroke-width="2" d="M625.5,-57C625.5,-57 699.75,-57 699.75,-57 705.75,-57 711.75,-63 711.75,-69 711.75,-69 711.75,-159 711.75,-159 711.75,-165 705.75,-171 699.75,-171 699.75,-171 625.5,-171 625.5,-171 619.5,-171 613.5,-165 613.5,-159 613.5,-159 613.5,-69 613.5,-69 613.5,-63 619.5,-57 625.5,-57"/>
<text xml:space="preserve" text-anchor="middle" x="662.62" y="-158.45" font-family="Helvetica,sans-Serif" font-weight="bold" font-size="9.00" fill="#374151">node_modules</text>
</g>
<g id="clust9" class="cluster">
<title>cluster_node_modules/@supabase</title>
<path fill="#ffffff" stroke="black" stroke-width="2" d="M633.5,-91C633.5,-91 691.75,-91 691.75,-91 697.75,-91 703.75,-97 703.75,-103 703.75,-103 703.75,-132 703.75,-132 703.75,-138 697.75,-144 691.75,-144 691.75,-144 633.5,-144 633.5,-144 627.5,-144 621.5,-138 621.5,-132 621.5,-132 621.5,-103 621.5,-103 621.5,-97 627.5,-91 633.5,-91"/>
<text xml:space="preserve" text-anchor="middle" x="662.62" y="-131.45" font-family="Helvetica,sans-Serif" font-weight="bold" font-size="9.00" fill="#374151">@supabase</text>
</g>
<!-- lib/ghostme/context/temporalPriority.ts -->
<g id="node1" class="node">
<title>lib/ghostme/context/temporalPriority.ts</title>
<g id="a_node1"><a xlink:href="lib/ghostme/context/temporalPriority.ts" xlink:title="temporalPriority.ts">
<path fill="#ddfeff" stroke="#9ca3af" d="M359.58,-50.25C359.58,-50.25 283.17,-50.25 283.17,-50.25 280.08,-50.25 277,-47.17 277,-44.08 277,-44.08 277,-37.92 277,-37.92 277,-34.83 280.08,-31.75 283.17,-31.75 283.17,-31.75 359.58,-31.75 359.58,-31.75 362.67,-31.75 365.75,-34.83 365.75,-37.92 365.75,-37.92 365.75,-44.08 365.75,-44.08 365.75,-47.17 362.67,-50.25 359.58,-50.25"/>
<text xml:space="preserve" text-anchor="start" x="285" y="-38" font-family="Helvetica,sans-Serif" font-size="9.00" fill="#111827">temporalPriority.ts</text>
</a>
</g>
</g>
<!-- lib/ghostme/curiosity/curiosityEngine.ts -->
<g id="node2" class="node">
<title>lib/ghostme/curiosity/curiosityEngine.ts</title>
<g id="a_node2"><a xlink:href="lib/ghostme/curiosity/curiosityEngine.ts" xlink:title="curiosityEngine.ts">
<path fill="#dcfce7" stroke="#4ade80" d="M118.71,-126.25C118.71,-126.25 43.04,-126.25 43.04,-126.25 39.96,-126.25 36.88,-123.17 36.88,-120.08 36.88,-120.08 36.88,-113.92 36.88,-113.92 36.88,-110.83 39.96,-107.75 43.04,-107.75 43.04,-107.75 118.71,-107.75 118.71,-107.75 121.79,-107.75 124.88,-110.83 124.88,-113.92 124.88,-113.92 124.88,-120.08 124.88,-120.08 124.88,-123.17 121.79,-126.25 118.71,-126.25"/>
<text xml:space="preserve" text-anchor="start" x="44.88" y="-114" font-family="Helvetica,sans-Serif" font-size="9.00" fill="#111827">curiosityEngine.ts</text>
</a>
</g>
</g>
<!-- lib/ghostme/situation/situationEngine.ts -->
<g id="node3" class="node">
<title>lib/ghostme/situation/situationEngine.ts</title>
<g id="a_node3"><a xlink:href="lib/ghostme/situation/situationEngine.ts" xlink:title="situationEngine.ts">
<path fill="#dcfce7" stroke="#4ade80" d="M236.33,-126.25C236.33,-126.25 159.92,-126.25 159.92,-126.25 156.83,-126.25 153.75,-123.17 153.75,-120.08 153.75,-120.08 153.75,-113.92 153.75,-113.92 153.75,-110.83 156.83,-107.75 159.92,-107.75 159.92,-107.75 236.33,-107.75 236.33,-107.75 239.42,-107.75 242.5,-110.83 242.5,-113.92 242.5,-113.92 242.5,-120.08 242.5,-120.08 242.5,-123.17 239.42,-126.25 236.33,-126.25"/>
<text xml:space="preserve" text-anchor="start" x="161.75" y="-114" font-family="Helvetica,sans-Serif" font-size="9.00" fill="#111827">situationEngine.ts</text>
</a>
</g>
</g>
<!-- lib/ghostme/curiosity/curiosityEngine.ts&#45;&gt;lib/ghostme/situation/situationEngine.ts -->
<g id="edge1" class="edge">
<title>lib/ghostme/curiosity/curiosityEngine.ts&#45;&gt;lib/ghostme/situation/situationEngine.ts</title>
<path fill="none" stroke="#6b7280" stroke-width="2" stroke-opacity="0.400000" d="M125.12,-117C131.44,-117 138.01,-117 144.5,-117"/>
<polygon fill="#6b7280" fill-opacity="0.400000" stroke="#6b7280" stroke-width="2" stroke-opacity="0.400000" points="144.23,-119.1 150.23,-117 144.23,-114.9 144.23,-119.1"/>
</g>
<!-- lib/supabaseAdmin.ts -->
<g id="node4" class="node">
<title>lib/supabaseAdmin.ts</title>
<g id="a_node4"><a xlink:href="lib/supabaseAdmin.ts" xlink:title="supabaseAdmin.ts">
<path fill="#d1d5db" stroke="#4b5563" stroke-width="2" d="M591.33,-155.25C591.33,-155.25 511.92,-155.25 511.92,-155.25 508.83,-155.25 505.75,-152.17 505.75,-149.08 505.75,-149.08 505.75,-142.92 505.75,-142.92 505.75,-139.83 508.83,-136.75 511.92,-136.75 511.92,-136.75 591.33,-136.75 591.33,-136.75 594.42,-136.75 597.5,-139.83 597.5,-142.92 597.5,-142.92 597.5,-149.08 597.5,-149.08 597.5,-152.17 594.42,-155.25 591.33,-155.25"/>
<text xml:space="preserve" text-anchor="start" x="513.75" y="-143" font-family="Helvetica,sans-Serif" font-size="9.00" fill="#111827">supabaseAdmin.ts</text>
</a>
</g>
</g>
<!-- lib/ghostme/curiosity/curiosityEngine.ts&#45;&gt;lib/supabaseAdmin.ts -->
<g id="edge2" class="edge">
<title>lib/ghostme/curiosity/curiosityEngine.ts&#45;&gt;lib/supabaseAdmin.ts</title>
<path fill="none" stroke="#6b7280" stroke-width="2" stroke-opacity="0.400000" d="M125.35,-124.8C129.89,-126.92 134.16,-129.6 137.75,-133 145.61,-140.44 138.6,-147.88 145.75,-156 182.74,-197.98 204.03,-199.22 258.5,-212 362.63,-236.44 400.49,-230.51 497.75,-186 510.89,-179.99 523.86,-170.25 533.66,-161.89"/>
<polygon fill="#6b7280" fill-opacity="0.400000" stroke="#6b7280" stroke-width="2" stroke-opacity="0.400000" points="534.82,-163.67 537.93,-158.12 532.04,-160.52 534.82,-163.67"/>
</g>
<!-- node_modules/openai -->
<g id="node5" class="node">
<title>node_modules/openai</title>
<g id="a_node5"><a xlink:href="https://www.npmjs.com/package/openai" xlink:title="openai">
<polygon fill="#d1d5db" stroke="#4b5563" stroke-width="2" points="689.62,-83.25 637.68,-83.25 635.62,-81.19 635.62,-64.75 687.57,-64.75 689.62,-66.81 689.62,-83.25"/>
<polyline fill="none" stroke="#4b5563" stroke-width="2" points="687.57,-81.19 635.62,-81.19"/>
<polyline fill="none" stroke="#4b5563" stroke-width="2" points="687.57,-81.19 687.57,-64.75"/>
<polyline fill="none" stroke="#4b5563" stroke-width="2" points="687.57,-81.19 689.62,-83.25"/>
<text xml:space="preserve" text-anchor="start" x="648.38" y="-71" font-family="Helvetica,sans-Serif" font-size="9.00" fill="#111827">openai</text>
</a>
</g>
</g>
<!-- lib/ghostme/curiosity/curiosityEngine.ts&#45;&gt;node_modules/openai -->
<g id="edge3" class="edge">
<title>lib/ghostme/curiosity/curiosityEngine.ts&#45;&gt;node_modules/openai</title>
<path fill="none" stroke="#6b7280" stroke-opacity="0.400000" d="M93.43,-107.42C126.53,-80.98 225.38,-9 320.38,-9 320.38,-9 320.38,-9 436.5,-9 511.77,-9 536.64,10.39 605.5,-20 624,-28.16 640.04,-45.21 650.18,-57.98"/>
<polygon fill="#6b7280" fill-opacity="0.400000" stroke="#6b7280" stroke-opacity="0.400000" points="648.43,-59.16 653.74,-62.65 651.77,-56.61 648.43,-59.16"/>
</g>
<!-- lib/ghostme/situation/situationEngine.ts&#45;&gt;lib/ghostme/context/temporalPriority.ts -->
<g id="edge8" class="edge">
<title>lib/ghostme/situation/situationEngine.ts&#45;&gt;lib/ghostme/context/temporalPriority.ts</title>
<path fill="none" stroke="#6b7280" stroke-width="2" stroke-opacity="0.400000" d="M214.48,-107.37C235.53,-94.18 273.48,-70.39 297.77,-55.17"/>
<polygon fill="#6b7280" fill-opacity="0.400000" stroke="#6b7280" stroke-width="2" stroke-opacity="0.400000" points="298.61,-57.12 302.58,-52.15 296.38,-53.56 298.61,-57.12"/>
</g>
<!-- lib/ghostme/situation/situationEngine.ts&#45;&gt;lib/supabaseAdmin.ts -->
<g id="edge11" class="edge">
<title>lib/ghostme/situation/situationEngine.ts&#45;&gt;lib/supabaseAdmin.ts</title>
<path fill="none" stroke="#6b7280" stroke-width="2" stroke-opacity="0.400000" d="M242.92,-123.77C245.74,-125.45 248.32,-127.5 250.5,-130 261.08,-142.14 246.5,-191.26 258.5,-202 296.23,-235.77 447.59,-184.94 516.34,-159.3"/>
<polygon fill="#6b7280" fill-opacity="0.400000" stroke="#6b7280" stroke-width="2" stroke-opacity="0.400000" points="516.98,-161.31 521.86,-157.23 515.5,-157.38 516.98,-161.31"/>
</g>
<!-- lib/ghostme/location/placeService.ts -->
<g id="node7" class="node">
<title>lib/ghostme/location/placeService.ts</title>
<g id="a_node7"><a xlink:href="lib/ghostme/location/placeService.ts" xlink:title="placeService.ts">
<path fill="#fef3c7" stroke="#f59e0b" d="M354.33,-172.25C354.33,-172.25 288.42,-172.25 288.42,-172.25 285.33,-172.25 282.25,-169.17 282.25,-166.08 282.25,-166.08 282.25,-159.92 282.25,-159.92 282.25,-156.83 285.33,-153.75 288.42,-153.75 288.42,-153.75 354.33,-153.75 354.33,-153.75 357.42,-153.75 360.5,-156.83 360.5,-159.92 360.5,-159.92 360.5,-166.08 360.5,-166.08 360.5,-169.17 357.42,-172.25 354.33,-172.25"/>
<text xml:space="preserve" text-anchor="start" x="290.25" y="-160" font-family="Helvetica,sans-Serif" font-size="9.00" fill="#111827">placeService.ts</text>
</a>
</g>
</g>
<!-- lib/ghostme/situation/situationEngine.ts&#45;&gt;lib/ghostme/location/placeService.ts -->
<g id="edge9" class="edge">
<title>lib/ghostme/situation/situationEngine.ts&#45;&gt;lib/ghostme/location/placeService.ts</title>
<path fill="none" stroke="#6b7280" stroke-width="2" stroke-opacity="0.400000" d="M242.95,-125.77C245.59,-127 248.14,-128.4 250.5,-130 255.51,-133.39 253.66,-137.38 258.5,-141 263.16,-144.49 268.43,-147.46 273.87,-149.98"/>
<polygon fill="#6b7280" fill-opacity="0.400000" stroke="#6b7280" stroke-width="2" stroke-opacity="0.400000" points="272.78,-151.8 279.13,-152.19 274.41,-147.93 272.78,-151.8"/>
</g>
<!-- lib/ghostme/people/peopleGraphService.ts -->
<g id="node8" class="node">
<title>lib/ghostme/people/peopleGraphService.ts</title>
<g id="a_node8"><a xlink:href="lib/ghostme/people/peopleGraphService.ts" xlink:title="peopleGraphService.ts">
<path fill="#fef3c7" stroke="#f59e0b" d="M370.08,-111.25C370.08,-111.25 272.67,-111.25 272.67,-111.25 269.58,-111.25 266.5,-108.17 266.5,-105.08 266.5,-105.08 266.5,-98.92 266.5,-98.92 266.5,-95.83 269.58,-92.75 272.67,-92.75 272.67,-92.75 370.08,-92.75 370.08,-92.75 373.17,-92.75 376.25,-95.83 376.25,-98.92 376.25,-98.92 376.25,-105.08 376.25,-105.08 376.25,-108.17 373.17,-111.25 370.08,-111.25"/>
<text xml:space="preserve" text-anchor="start" x="274.5" y="-99" font-family="Helvetica,sans-Serif" font-size="9.00" fill="#111827">peopleGraphService.ts</text>
</a>
</g>
</g>
<!-- lib/ghostme/situation/situationEngine.ts&#45;&gt;lib/ghostme/people/peopleGraphService.ts -->
<g id="edge10" class="edge">
<title>lib/ghostme/situation/situationEngine.ts&#45;&gt;lib/ghostme/people/peopleGraphService.ts</title>
<path fill="none" stroke="#6b7280" stroke-width="2" stroke-opacity="0.400000" d="M242.9,-111.58C247.65,-111 252.55,-110.39 257.46,-109.78"/>
<polygon fill="#6b7280" fill-opacity="0.400000" stroke="#6b7280" stroke-width="2" stroke-opacity="0.400000" points="257.61,-111.88 263.31,-109.06 257.09,-107.71 257.61,-111.88"/>
</g>
<!-- node_modules/@supabase/supabase&#45;js -->
<g id="node10" class="node">
<title>node_modules/@supabase/supabase&#45;js</title>
<g id="a_node10"><a xlink:href="https://www.npmjs.com/package/@supabase/supabase-js" xlink:title="supabase&#45;js">
<polygon fill="#d1d5db" stroke="#4b5563" stroke-width="2" points="695.75,-117.25 631.56,-117.25 629.5,-115.19 629.5,-98.75 693.69,-98.75 695.75,-100.81 695.75,-117.25"/>
<polyline fill="none" stroke="#4b5563" stroke-width="2" points="693.69,-115.19 629.5,-115.19"/>
<polyline fill="none" stroke="#4b5563" stroke-width="2" points="693.69,-115.19 693.69,-98.75"/>
<polyline fill="none" stroke="#4b5563" stroke-width="2" points="693.69,-115.19 695.75,-117.25"/>
<text xml:space="preserve" text-anchor="start" x="637.5" y="-105" font-family="Helvetica,sans-Serif" font-size="9.00" fill="#111827">supabase&#45;js</text>
</a>
</g>
</g>
<!-- lib/supabaseAdmin.ts&#45;&gt;node_modules/@supabase/supabase&#45;js -->
<g id="edge12" class="edge">
<title>lib/supabaseAdmin.ts&#45;&gt;node_modules/@supabase/supabase&#45;js</title>
<path fill="none" stroke="#6b7280" stroke-opacity="0.400000" d="M581.83,-135.82C595.27,-131.13 611.35,-125.53 625.54,-120.58"/>
<polygon fill="#6b7280" fill-opacity="0.400000" stroke="#6b7280" stroke-opacity="0.400000" points="625.93,-122.67 630.91,-118.71 624.55,-118.7 625.93,-122.67"/>
</g>
<!-- lib/ghostme/curiosity/curiositySnapshot.ts -->
<g id="node6" class="node">
<title>lib/ghostme/curiosity/curiositySnapshot.ts</title>
<g id="a_node6"><a xlink:href="lib/ghostme/curiosity/curiositySnapshot.ts" xlink:title="no&#45;orphans">
<path fill="#fee2e2" stroke="#ef4444" stroke-width="2.5" d="M123.58,-157.25C123.58,-157.25 38.17,-157.25 38.17,-157.25 35.08,-157.25 32,-154.17 32,-151.08 32,-151.08 32,-144.92 32,-144.92 32,-141.83 35.08,-138.75 38.17,-138.75 38.17,-138.75 123.58,-138.75 123.58,-138.75 126.67,-138.75 129.75,-141.83 129.75,-144.92 129.75,-144.92 129.75,-151.08 129.75,-151.08 129.75,-154.17 126.67,-157.25 123.58,-157.25"/>
<text xml:space="preserve" text-anchor="start" x="40" y="-145" font-family="Helvetica,sans-Serif" font-size="9.00" fill="#991b1b">curiositySnapshot.ts</text>
</a>
</g>
</g>
<!-- lib/ghostme/location/placeService.ts&#45;&gt;lib/supabaseAdmin.ts -->
<g id="edge4" class="edge">
<title>lib/ghostme/location/placeService.ts&#45;&gt;lib/supabaseAdmin.ts</title>
<path fill="none" stroke="#6b7280" stroke-width="2" stroke-opacity="0.400000" d="M360.84,-160.14C397.88,-157.38 454.29,-153.17 495.99,-150.07"/>
<polygon fill="#6b7280" fill-opacity="0.400000" stroke="#6b7280" stroke-width="2" stroke-opacity="0.400000" points="496.08,-152.17 501.9,-149.63 495.76,-147.98 496.08,-152.17"/>
</g>
<!-- lib/ghostme/people/peopleGraphService.ts&#45;&gt;lib/supabaseAdmin.ts -->
<g id="edge6" class="edge">
<title>lib/ghostme/people/peopleGraphService.ts&#45;&gt;lib/supabaseAdmin.ts</title>
<path fill="none" stroke="#6b7280" stroke-width="2" stroke-opacity="0.400000" d="M364.41,-111.72C372.63,-113.54 381.2,-115.38 389.25,-117 424.83,-124.18 465,-131.41 496.36,-136.85"/>
<polygon fill="#6b7280" fill-opacity="0.400000" stroke="#6b7280" stroke-width="2" stroke-opacity="0.400000" points="495.71,-138.86 501.98,-137.82 496.43,-134.73 495.71,-138.86"/>
</g>
<!-- lib/ghostme/people/peopleSnapshot.ts -->
<g id="node9" class="node">
<title>lib/ghostme/people/peopleSnapshot.ts</title>
<g id="a_node9"><a xlink:href="lib/ghostme/people/peopleSnapshot.ts" xlink:title="peopleSnapshot.ts">
<path fill="#dbeafe" stroke="#60a5fa" d="M475.58,-111.25C475.58,-111.25 395.42,-111.25 395.42,-111.25 392.33,-111.25 389.25,-108.17 389.25,-105.08 389.25,-105.08 389.25,-98.92 389.25,-98.92 389.25,-95.83 392.33,-92.75 395.42,-92.75 395.42,-92.75 475.58,-92.75 475.58,-92.75 478.67,-92.75 481.75,-95.83 481.75,-98.92 481.75,-98.92 481.75,-105.08 481.75,-105.08 481.75,-108.17 478.67,-111.25 475.58,-111.25"/>
<text xml:space="preserve" text-anchor="start" x="397.25" y="-99" font-family="Helvetica,sans-Serif" font-size="9.00" fill="#111827">peopleSnapshot.ts</text>
</a>
</g>
</g>
<!-- lib/ghostme/people/peopleGraphService.ts&#45;&gt;lib/ghostme/people/peopleSnapshot.ts -->
<g id="edge5" class="edge">
<title>lib/ghostme/people/peopleGraphService.ts&#45;&gt;lib/ghostme/people/peopleSnapshot.ts</title>
<path fill="none" stroke="#6b7280" stroke-width="2" stroke-opacity="0.400000" d="M376.47,-102C377.63,-102 378.8,-102 379.96,-102"/>
<polygon fill="#6b7280" fill-opacity="0.400000" stroke="#6b7280" stroke-width="2" stroke-opacity="0.400000" points="379.82,-104.1 385.82,-102 379.82,-99.9 379.82,-104.1"/>
</g>
<!-- lib/ghostme/people/peopleSnapshot.ts&#45;&gt;lib/supabaseAdmin.ts -->
<g id="edge7" class="edge">
<title>lib/ghostme/people/peopleSnapshot.ts&#45;&gt;lib/supabaseAdmin.ts</title>
<path fill="none" stroke="#6b7280" stroke-width="2" stroke-opacity="0.400000" d="M482.14,-109.98C487.47,-111.41 492.78,-113.08 497.75,-115 508.6,-119.21 519.83,-125.48 529.14,-131.28"/>
<polygon fill="#6b7280" fill-opacity="0.400000" stroke="#6b7280" stroke-width="2" stroke-opacity="0.400000" points="527.72,-132.87 533.91,-134.35 530,-129.34 527.72,-132.87"/>
</g>
</g>
</svg>
