<?xml version="1.0" encoding="UTF-8" standalone="no"?>
<!DOCTYPE svg PUBLIC "-//W3C//DTD SVG 1.1//EN"
 "http://www.w3.org/Graphics/SVG/1.1/DTD/svg11.dtd">
<!-- Generated by graphviz version 15.0.0 (20260523.1842)
 -->
<!-- Title: dependency&#45;cruiser output Pages: 1 -->
<svg width="742pt" height="389pt"
 viewBox="0.00 0.00 742.00 389.00" xmlns="http://www.w3.org/2000/svg" xmlns:xlink="http://www.w3.org/1999/xlink">
<g id="graph0" class="graph" transform="scale(1 1) rotate(0) translate(4 384.87)">
<title>dependency&#45;cruiser output</title>
<polygon fill="#fbfbfd" stroke="none" points="-4,4 -4,-384.87 738,-384.87 738,4 -4,4"/>
<g id="clust1" class="cluster">
<title>cluster_lib</title>
<path fill="#ffffff" stroke="black" stroke-width="2" d="M20,-10.87C20,-10.87 607.75,-10.87 607.75,-10.87 613.75,-10.87 619.75,-16.87 619.75,-22.87 619.75,-22.87 619.75,-360.87 619.75,-360.87 619.75,-366.87 613.75,-372.87 607.75,-372.87 607.75,-372.87 20,-372.87 20,-372.87 14,-372.87 8,-366.87 8,-360.87 8,-360.87 8,-22.87 8,-22.87 8,-16.87 14,-10.87 20,-10.87"/>
<text xml:space="preserve" text-anchor="middle" x="313.88" y="-360.32" font-family="Helvetica,sans-Serif" font-weight="bold" font-size="9.00" fill="#374151">lib</text>
</g>
<g id="clust2" class="cluster">
<title>cluster_lib/ghostme</title>
<path fill="#ffffff" stroke="black" stroke-width="2" d="M28,-18.87C28,-18.87 500,-18.87 500,-18.87 506,-18.87 512,-24.87 512,-30.87 512,-30.87 512,-308.87 512,-308.87 512,-314.87 506,-320.87 500,-320.87 500,-320.87 28,-320.87 28,-320.87 22,-320.87 16,-314.87 16,-308.87 16,-308.87 16,-30.87 16,-30.87 16,-24.87 22,-18.87 28,-18.87"/>
<text xml:space="preserve" text-anchor="middle" x="264" y="-308.32" font-family="Helvetica,sans-Serif" font-weight="bold" font-size="9.00" fill="#374151">ghostme</text>
</g>
<g id="clust3" class="cluster">
<title>cluster_lib/ghostme/context</title>
<path fill="#ffffff" stroke="black" stroke-width="2" d="M286.62,-26.87C286.62,-26.87 367.38,-26.87 367.38,-26.87 373.38,-26.87 379.38,-32.87 379.38,-38.87 379.38,-38.87 379.38,-67.87 379.38,-67.87 379.38,-73.87 373.38,-79.87 367.38,-79.87 367.38,-79.87 286.62,-79.87 286.62,-79.87 280.62,-79.87 274.62,-73.87 274.62,-67.87 274.62,-67.87 274.62,-38.87 274.62,-38.87 274.62,-32.87 280.62,-26.87 286.62,-26.87"/>
<text xml:space="preserve" text-anchor="middle" x="327" y="-67.32" font-family="Helvetica,sans-Serif" font-weight="bold" font-size="9.00" fill="#374151">context</text>
</g>
<g id="clust4" class="cluster">
<title>cluster_lib/ghostme/curiosity</title>
<path fill="#ffffff" stroke="black" stroke-width="2" d="M36,-148.87C36,-148.87 125.75,-148.87 125.75,-148.87 131.75,-148.87 137.75,-154.87 137.75,-160.87 137.75,-160.87 137.75,-220.87 137.75,-220.87 137.75,-226.87 131.75,-232.87 125.75,-232.87 125.75,-232.87 36,-232.87 36,-232.87 30,-232.87 24,-226.87 24,-220.87 24,-220.87 24,-160.87 24,-160.87 24,-154.87 30,-148.87 36,-148.87"/>
<text xml:space="preserve" text-anchor="middle" x="80.88" y="-220.32" font-family="Helvetica,sans-Serif" font-weight="bold" font-size="9.00" fill="#374151">curiosity</text>
</g>
<g id="clust5" class="cluster">
<title>cluster_lib/ghostme/location</title>
<path fill="#ffffff" stroke="black" stroke-width="2" d="M270.5,-87.87C270.5,-87.87 383.5,-87.87 383.5,-87.87 389.5,-87.87 395.5,-93.87 395.5,-99.87 395.5,-99.87 395.5,-159.87 395.5,-159.87 395.5,-165.87 389.5,-171.87 383.5,-171.87 383.5,-171.87 270.5,-171.87 270.5,-171.87 264.5,-171.87 258.5,-165.87 258.5,-159.87 258.5,-159.87 258.5,-99.87 258.5,-99.87 258.5,-93.87 264.5,-87.87 270.5,-87.87"/>
<text xml:space="preserve" text-anchor="middle" x="327" y="-159.32" font-family="Helvetica,sans-Serif" font-weight="bold" font-size="9.00" fill="#374151">location</text>
</g>
<g id="clust6" class="cluster">
<title>cluster_lib/ghostme/observation</title>
<path fill="#ffffff" stroke="black" stroke-width="2" d="M282.5,-179.87C282.5,-179.87 371.5,-179.87 371.5,-179.87 377.5,-179.87 383.5,-185.87 383.5,-191.87 383.5,-191.87 383.5,-220.87 383.5,-220.87 383.5,-226.87 377.5,-232.87 371.5,-232.87 371.5,-232.87 282.5,-232.87 282.5,-232.87 276.5,-232.87 270.5,-226.87 270.5,-220.87 270.5,-220.87 270.5,-191.87 270.5,-191.87 270.5,-185.87 276.5,-179.87 282.5,-179.87"/>
<text xml:space="preserve" text-anchor="middle" x="327" y="-220.32" font-family="Helvetica,sans-Serif" font-weight="bold" font-size="9.00" fill="#374151">observation</text>
</g>
<g id="clust7" class="cluster">
<title>cluster_lib/ghostme/people</title>
<path fill="#ffffff" stroke="black" stroke-width="2" d="M276.12,-240.87C276.12,-240.87 492,-240.87 492,-240.87 498,-240.87 504,-246.87 504,-252.87 504,-252.87 504,-281.87 504,-281.87 504,-287.87 498,-293.87 492,-293.87 492,-293.87 276.12,-293.87 276.12,-293.87 270.12,-293.87 264.12,-287.87 264.12,-281.87 264.12,-281.87 264.12,-252.87 264.12,-252.87 264.12,-246.87 270.12,-240.87 276.12,-240.87"/>
<text xml:space="preserve" text-anchor="middle" x="384.06" y="-281.32" font-family="Helvetica,sans-Serif" font-weight="bold" font-size="9.00" fill="#374151">people</text>
</g>
<g id="clust8" class="cluster">
<title>cluster_lib/ghostme/situation</title>
<path fill="#ffffff" stroke="black" stroke-width="2" d="M157.75,-148.87C157.75,-148.87 238.5,-148.87 238.5,-148.87 244.5,-148.87 250.5,-154.87 250.5,-160.87 250.5,-160.87 250.5,-189.87 250.5,-189.87 250.5,-195.87 244.5,-201.87 238.5,-201.87 238.5,-201.87 157.75,-201.87 157.75,-201.87 151.75,-201.87 145.75,-195.87 145.75,-189.87 145.75,-189.87 145.75,-160.87 145.75,-160.87 145.75,-154.87 151.75,-148.87 157.75,-148.87"/>
<text xml:space="preserve" text-anchor="middle" x="198.12" y="-189.32" font-family="Helvetica,sans-Serif" font-weight="bold" font-size="9.00" fill="#374151">situation</text>
</g>
<g id="clust9" class="cluster">
<title>cluster_node_modules</title>
<path fill="#ffffff" stroke="black" stroke-width="2" d="M639.75,-138.87C639.75,-138.87 714,-138.87 714,-138.87 720,-138.87 726,-144.87 726,-150.87 726,-150.87 726,-240.87 726,-240.87 726,-246.87 720,-252.87 714,-252.87 714,-252.87 639.75,-252.87 639.75,-252.87 633.75,-252.87 627.75,-246.87 627.75,-240.87 627.75,-240.87 627.75,-150.87 627.75,-150.87 627.75,-144.87 633.75,-138.87 639.75,-138.87"/>
<text xml:space="preserve" text-anchor="middle" x="676.88" y="-240.32" font-family="Helvetica,sans-Serif" font-weight="bold" font-size="9.00" fill="#374151">node_modules</text>
</g>
<g id="clust10" class="cluster">
<title>cluster_node_modules/@supabase</title>
<path fill="#ffffff" stroke="black" stroke-width="2" d="M647.75,-172.87C647.75,-172.87 706,-172.87 706,-172.87 712,-172.87 718,-178.87 718,-184.87 718,-184.87 718,-213.87 718,-213.87 718,-219.87 712,-225.87 706,-225.87 706,-225.87 647.75,-225.87 647.75,-225.87 641.75,-225.87 635.75,-219.87 635.75,-213.87 635.75,-213.87 635.75,-184.87 635.75,-184.87 635.75,-178.87 641.75,-172.87 647.75,-172.87"/>
<text xml:space="preserve" text-anchor="middle" x="676.88" y="-213.32" font-family="Helvetica,sans-Serif" font-weight="bold" font-size="9.00" fill="#374151">@supabase</text>
</g>
<!-- lib/ghostme/context/temporalPriority.ts -->
<g id="node1" class="node">
<title>lib/ghostme/context/temporalPriority.ts</title>
<g id="a_node1"><a xlink:href="lib/ghostme/context/temporalPriority.ts" xlink:title="temporalPriority.ts">
<path fill="#ddfeff" stroke="#9ca3af" d="M365.21,-53.12C365.21,-53.12 288.79,-53.12 288.79,-53.12 285.71,-53.12 282.62,-50.04 282.62,-46.95 282.62,-46.95 282.62,-40.79 282.62,-40.79 282.62,-37.7 285.71,-34.62 288.79,-34.62 288.79,-34.62 365.21,-34.62 365.21,-34.62 368.29,-34.62 371.38,-37.7 371.38,-40.79 371.38,-40.79 371.38,-46.95 371.38,-46.95 371.38,-50.04 368.29,-53.12 365.21,-53.12"/>
<text xml:space="preserve" text-anchor="start" x="290.62" y="-40.87" font-family="Helvetica,sans-Serif" font-size="9.00" fill="#111827">temporalPriority.ts</text>
</a>
</g>
</g>
<!-- lib/ghostme/curiosity/curiosityEngine.ts -->
<g id="node2" class="node">
<title>lib/ghostme/curiosity/curiosityEngine.ts</title>
<g id="a_node2"><a xlink:href="lib/ghostme/curiosity/curiosityEngine.ts" xlink:title="curiosityEngine.ts">
<path fill="#dcfce7" stroke="#4ade80" d="M118.71,-175.12C118.71,-175.12 43.04,-175.12 43.04,-175.12 39.96,-175.12 36.88,-172.04 36.88,-168.95 36.88,-168.95 36.88,-162.79 36.88,-162.79 36.88,-159.7 39.96,-156.62 43.04,-156.62 43.04,-156.62 118.71,-156.62 118.71,-156.62 121.79,-156.62 124.88,-159.7 124.88,-162.79 124.88,-162.79 124.88,-168.95 124.88,-168.95 124.88,-172.04 121.79,-175.12 118.71,-175.12"/>
<text xml:space="preserve" text-anchor="start" x="44.88" y="-162.87" font-family="Helvetica,sans-Serif" font-size="9.00" fill="#111827">curiosityEngine.ts</text>
</a>
</g>
</g>
<!-- lib/ghostme/situation/situationEngine.ts -->
<g id="node3" class="node">
<title>lib/ghostme/situation/situationEngine.ts</title>
<g id="a_node3"><a xlink:href="lib/ghostme/situation/situationEngine.ts" xlink:title="situationEngine.ts">
<path fill="#dcfce7" stroke="#4ade80" d="M236.33,-175.12C236.33,-175.12 159.92,-175.12 159.92,-175.12 156.83,-175.12 153.75,-172.04 153.75,-168.95 153.75,-168.95 153.75,-162.79 153.75,-162.79 153.75,-159.7 156.83,-156.62 159.92,-156.62 159.92,-156.62 236.33,-156.62 236.33,-156.62 239.42,-156.62 242.5,-159.7 242.5,-162.79 242.5,-162.79 242.5,-168.95 242.5,-168.95 242.5,-172.04 239.42,-175.12 236.33,-175.12"/>
<text xml:space="preserve" text-anchor="start" x="161.75" y="-162.87" font-family="Helvetica,sans-Serif" font-size="9.00" fill="#111827">situationEngine.ts</text>
</a>
</g>
</g>
<!-- lib/ghostme/curiosity/curiosityEngine.ts&#45;&gt;lib/ghostme/situation/situationEngine.ts -->
<g id="edge1" class="edge">
<title>lib/ghostme/curiosity/curiosityEngine.ts&#45;&gt;lib/ghostme/situation/situationEngine.ts</title>
<path fill="none" stroke="#6b7280" stroke-width="2" stroke-opacity="0.400000" d="M125.12,-165.87C131.44,-165.87 138.01,-165.87 144.5,-165.87"/>
<polygon fill="#6b7280" fill-opacity="0.400000" stroke="#6b7280" stroke-width="2" stroke-opacity="0.400000" points="144.23,-167.97 150.23,-165.87 144.23,-163.77 144.23,-167.97"/>
</g>
<!-- lib/supabaseAdmin.ts -->
<g id="node4" class="node">
<title>lib/supabaseAdmin.ts</title>
<g id="a_node4"><a xlink:href="lib/supabaseAdmin.ts" xlink:title="supabaseAdmin.ts">
<path fill="#d1d5db" stroke="#4b5563" stroke-width="2" d="M605.58,-319.12C605.58,-319.12 526.17,-319.12 526.17,-319.12 523.08,-319.12 520,-316.04 520,-312.95 520,-312.95 520,-306.79 520,-306.79 520,-303.7 523.08,-300.62 526.17,-300.62 526.17,-300.62 605.58,-300.62 605.58,-300.62 608.67,-300.62 611.75,-303.7 611.75,-306.79 611.75,-306.79 611.75,-312.95 611.75,-312.95 611.75,-316.04 608.67,-319.12 605.58,-319.12"/>
<text xml:space="preserve" text-anchor="start" x="528" y="-306.87" font-family="Helvetica,sans-Serif" font-size="9.00" fill="#111827">supabaseAdmin.ts</text>
</a>
</g>
</g>
<!-- lib/ghostme/curiosity/curiosityEngine.ts&#45;&gt;lib/supabaseAdmin.ts -->
<g id="edge2" class="edge">
<title>lib/ghostme/curiosity/curiosityEngine.ts&#45;&gt;lib/supabaseAdmin.ts</title>
<path fill="none" stroke="#6b7280" stroke-width="2" stroke-opacity="0.400000" d="M125.35,-173.67C129.89,-175.79 134.16,-178.47 137.75,-181.87 145.61,-189.31 139.92,-195.75 145.75,-204.87 183.28,-263.61 194.82,-285.53 258.5,-313.87 361.52,-359.71 400.19,-338.42 512,-323.87 515.6,-323.4 519.31,-322.76 523.01,-322.01"/>
<polygon fill="#6b7280" fill-opacity="0.400000" stroke="#6b7280" stroke-width="2" stroke-opacity="0.400000" points="523.22,-324.11 528.62,-320.75 522.3,-320.01 523.22,-324.11"/>
</g>
<!-- node_modules/openai -->
<g id="node5" class="node">
<title>node_modules/openai</title>
<g id="a_node5"><a xlink:href="https://www.npmjs.com/package/openai" xlink:title="openai">
<polygon fill="#d1d5db" stroke="#4b5563" stroke-width="2" points="703.88,-165.12 651.93,-165.12 649.88,-163.07 649.88,-146.62 701.82,-146.62 703.88,-148.68 703.88,-165.12"/>
<polyline fill="none" stroke="#4b5563" stroke-width="2" points="701.82,-163.07 649.88,-163.07"/>
<polyline fill="none" stroke="#4b5563" stroke-width="2" points="701.82,-163.07 701.82,-146.62"/>
<polyline fill="none" stroke="#4b5563" stroke-width="2" points="701.82,-163.07 703.88,-165.12"/>
<text xml:space="preserve" text-anchor="start" x="662.62" y="-152.87" font-family="Helvetica,sans-Serif" font-size="9.00" fill="#111827">openai</text>
</a>
</g>
</g>
<!-- lib/ghostme/curiosity/curiosityEngine.ts&#45;&gt;node_modules/openai -->
<g id="edge3" class="edge">
<title>lib/ghostme/curiosity/curiosityEngine.ts&#45;&gt;node_modules/openai</title>
<path fill="none" stroke="#6b7280" stroke-opacity="0.400000" d="M90.32,-156.34C113.96,-130.31 183.99,-57.73 258.5,-23.87 286.24,-11.26 295.53,-11.87 326,-11.87 326,-11.87 326,-11.87 450.75,-11.87 526.02,-11.87 558.41,20.76 619.75,-22.87 658.18,-50.21 670.44,-109.22 674.24,-138.57"/>
<polygon fill="#6b7280" fill-opacity="0.400000" stroke="#6b7280" stroke-opacity="0.400000" points="672.11,-138.46 674.89,-144.18 676.28,-137.98 672.11,-138.46"/>
</g>
<!-- lib/ghostme/situation/situationEngine.ts&#45;&gt;lib/ghostme/context/temporalPriority.ts -->
<g id="edge8" class="edge">
<title>lib/ghostme/situation/situationEngine.ts&#45;&gt;lib/ghostme/context/temporalPriority.ts</title>
<path fill="none" stroke="#6b7280" stroke-width="2" stroke-opacity="0.400000" d="M204.5,-156.19C213.86,-139.97 234.47,-106.91 258.5,-84.87 270.22,-74.13 285.17,-64.71 298.02,-57.61"/>
<polygon fill="#6b7280" fill-opacity="0.400000" stroke="#6b7280" stroke-width="2" stroke-opacity="0.400000" points="298.73,-59.61 303.03,-54.93 296.75,-55.91 298.73,-59.61"/>
</g>
<!-- lib/ghostme/situation/situationEngine.ts&#45;&gt;lib/supabaseAdmin.ts -->
<g id="edge13" class="edge">
<title>lib/ghostme/situation/situationEngine.ts&#45;&gt;lib/supabaseAdmin.ts</title>
<path fill="none" stroke="#6b7280" stroke-width="2" stroke-opacity="0.400000" d="M242.57,-172.26C245.55,-174.01 248.26,-176.19 250.5,-178.87 267.34,-199.05 240.51,-277.71 258.5,-296.87 291.53,-332.04 431.39,-323.92 510.23,-316.19"/>
<polygon fill="#6b7280" fill-opacity="0.400000" stroke="#6b7280" stroke-width="2" stroke-opacity="0.400000" points="510.3,-318.29 516.05,-315.6 509.87,-314.11 510.3,-318.29"/>
</g>
<!-- lib/ghostme/location/locationStateFreshness.ts -->
<g id="node7" class="node">
<title>lib/ghostme/location/locationStateFreshness.ts</title>
<g id="a_node7"><a xlink:href="lib/ghostme/location/locationStateFreshness.ts" xlink:title="locationStateFreshness.ts">
<path fill="#ddfeff" stroke="#9ca3af" d="M381.33,-114.12C381.33,-114.12 272.67,-114.12 272.67,-114.12 269.58,-114.12 266.5,-111.04 266.5,-107.95 266.5,-107.95 266.5,-101.79 266.5,-101.79 266.5,-98.7 269.58,-95.62 272.67,-95.62 272.67,-95.62 381.33,-95.62 381.33,-95.62 384.42,-95.62 387.5,-98.7 387.5,-101.79 387.5,-101.79 387.5,-107.95 387.5,-107.95 387.5,-111.04 384.42,-114.12 381.33,-114.12"/>
<text xml:space="preserve" text-anchor="start" x="274.5" y="-101.87" font-family="Helvetica,sans-Serif" font-size="9.00" fill="#111827">locationStateFreshness.ts</text>
</a>
</g>
</g>
<!-- lib/ghostme/situation/situationEngine.ts&#45;&gt;lib/ghostme/location/locationStateFreshness.ts -->
<g id="edge9" class="edge">
<title>lib/ghostme/situation/situationEngine.ts&#45;&gt;lib/ghostme/location/locationStateFreshness.ts</title>
<path fill="none" stroke="#6b7280" stroke-width="2" stroke-opacity="0.400000" d="M208.78,-156.49C219.88,-146.23 239.08,-130.03 258.5,-120.87 261.11,-119.64 263.83,-118.5 266.61,-117.44"/>
<polygon fill="#6b7280" fill-opacity="0.400000" stroke="#6b7280" stroke-width="2" stroke-opacity="0.400000" points="267.24,-119.44 272.22,-115.5 265.87,-115.47 267.24,-119.44"/>
</g>
<!-- lib/ghostme/location/placeService.ts -->
<g id="node8" class="node">
<title>lib/ghostme/location/placeService.ts</title>
<g id="a_node8"><a xlink:href="lib/ghostme/location/placeService.ts" xlink:title="placeService.ts">
<path fill="#fef3c7" stroke="#f59e0b" d="M359.96,-145.12C359.96,-145.12 294.04,-145.12 294.04,-145.12 290.96,-145.12 287.88,-142.04 287.88,-138.95 287.88,-138.95 287.88,-132.79 287.88,-132.79 287.88,-129.7 290.96,-126.62 294.04,-126.62 294.04,-126.62 359.96,-126.62 359.96,-126.62 363.04,-126.62 366.12,-129.7 366.12,-132.79 366.12,-132.79 366.12,-138.95 366.12,-138.95 366.12,-142.04 363.04,-145.12 359.96,-145.12"/>
<text xml:space="preserve" text-anchor="start" x="295.88" y="-132.87" font-family="Helvetica,sans-Serif" font-size="9.00" fill="#111827">placeService.ts</text>
</a>
</g>
</g>
<!-- lib/ghostme/situation/situationEngine.ts&#45;&gt;lib/ghostme/location/placeService.ts -->
<g id="edge10" class="edge">
<title>lib/ghostme/situation/situationEngine.ts&#45;&gt;lib/ghostme/location/placeService.ts</title>
<path fill="none" stroke="#6b7280" stroke-width="2" stroke-opacity="0.400000" d="M240.32,-156.13C252.66,-153.21 266.3,-149.99 278.99,-146.99"/>
<polygon fill="#6b7280" fill-opacity="0.400000" stroke="#6b7280" stroke-width="2" stroke-opacity="0.400000" points="279.29,-149.07 284.65,-145.65 278.33,-144.99 279.29,-149.07"/>
</g>
<!-- lib/ghostme/observation/observationPolicy.ts -->
<g id="node9" class="node">
<title>lib/ghostme/observation/observationPolicy.ts</title>
<g id="a_node9"><a xlink:href="lib/ghostme/observation/observationPolicy.ts" xlink:title="observationPolicy.ts">
<path fill="#ddfeff" stroke="#9ca3af" d="M369.33,-206.12C369.33,-206.12 284.67,-206.12 284.67,-206.12 281.58,-206.12 278.5,-203.04 278.5,-199.95 278.5,-199.95 278.5,-193.79 278.5,-193.79 278.5,-190.7 281.58,-187.62 284.67,-187.62 284.67,-187.62 369.33,-187.62 369.33,-187.62 372.42,-187.62 375.5,-190.7 375.5,-193.79 375.5,-193.79 375.5,-199.95 375.5,-199.95 375.5,-203.04 372.42,-206.12 369.33,-206.12"/>
<text xml:space="preserve" text-anchor="start" x="286.5" y="-193.87" font-family="Helvetica,sans-Serif" font-size="9.00" fill="#111827">observationPolicy.ts</text>
</a>
</g>
</g>
<!-- lib/ghostme/situation/situationEngine.ts&#45;&gt;lib/ghostme/observation/observationPolicy.ts -->
<g id="edge11" class="edge">
<title>lib/ghostme/situation/situationEngine.ts&#45;&gt;lib/ghostme/observation/observationPolicy.ts</title>
<path fill="none" stroke="#6b7280" stroke-width="2" stroke-opacity="0.400000" d="M238.92,-175.59C251.2,-178.6 264.86,-181.93 277.66,-185.06"/>
<polygon fill="#6b7280" fill-opacity="0.400000" stroke="#6b7280" stroke-width="2" stroke-opacity="0.400000" points="277.08,-187.08 283.4,-186.46 278.07,-183 277.08,-187.08"/>
</g>
<!-- lib/ghostme/people/peopleGraphService.ts -->
<g id="node10" class="node">
<title>lib/ghostme/people/peopleGraphService.ts</title>
<g id="a_node10"><a xlink:href="lib/ghostme/people/peopleGraphService.ts" xlink:title="peopleGraphService.ts">
<path fill="#fef3c7" stroke="#f59e0b" d="M375.71,-267.12C375.71,-267.12 278.29,-267.12 278.29,-267.12 275.21,-267.12 272.12,-264.04 272.12,-260.95 272.12,-260.95 272.12,-254.79 272.12,-254.79 272.12,-251.7 275.21,-248.62 278.29,-248.62 278.29,-248.62 375.71,-248.62 375.71,-248.62 378.79,-248.62 381.88,-251.7 381.88,-254.79 381.88,-254.79 381.88,-260.95 381.88,-260.95 381.88,-264.04 378.79,-267.12 375.71,-267.12"/>
<text xml:space="preserve" text-anchor="start" x="280.12" y="-254.87" font-family="Helvetica,sans-Serif" font-size="9.00" fill="#111827">peopleGraphService.ts</text>
</a>
</g>
</g>
<!-- lib/ghostme/situation/situationEngine.ts&#45;&gt;lib/ghostme/people/peopleGraphService.ts -->
<g id="edge12" class="edge">
<title>lib/ghostme/situation/situationEngine.ts&#45;&gt;lib/ghostme/people/peopleGraphService.ts</title>
<path fill="none" stroke="#6b7280" stroke-width="2" stroke-opacity="0.400000" d="M242.84,-172.71C245.68,-174.38 248.29,-176.41 250.5,-178.87 267.58,-197.91 242.07,-216.27 258.5,-235.87 261.06,-238.93 264.06,-241.57 267.33,-243.84"/>
<polygon fill="#6b7280" fill-opacity="0.400000" stroke="#6b7280" stroke-width="2" stroke-opacity="0.400000" points="266.04,-245.52 272.28,-246.73 268.16,-241.89 266.04,-245.52"/>
</g>
<!-- node_modules/@supabase/supabase&#45;js -->
<g id="node12" class="node">
<title>node_modules/@supabase/supabase&#45;js</title>
<g id="a_node12"><a xlink:href="https://www.npmjs.com/package/@supabase/supabase-js" xlink:title="supabase&#45;js">
<polygon fill="#d1d5db" stroke="#4b5563" stroke-width="2" points="710,-199.12 645.81,-199.12 643.75,-197.07 643.75,-180.62 707.94,-180.62 710,-182.68 710,-199.12"/>
<polyline fill="none" stroke="#4b5563" stroke-width="2" points="707.94,-197.07 643.75,-197.07"/>
<polyline fill="none" stroke="#4b5563" stroke-width="2" points="707.94,-197.07 707.94,-180.62"/>
<polyline fill="none" stroke="#4b5563" stroke-width="2" points="707.94,-197.07 710,-199.12"/>
<text xml:space="preserve" text-anchor="start" x="651.75" y="-186.87" font-family="Helvetica,sans-Serif" font-size="9.00" fill="#111827">supabase&#45;js</text>
</a>
</g>
</g>
<!-- lib/supabaseAdmin.ts&#45;&gt;node_modules/@supabase/supabase&#45;js -->
<g id="edge14" class="edge">
<title>lib/supabaseAdmin.ts&#45;&gt;node_modules/@supabase/supabase&#45;js</title>
<path fill="none" stroke="#6b7280" stroke-opacity="0.400000" d="M576.17,-299.64C595.23,-278.65 638.88,-230.6 661.57,-205.61"/>
<polygon fill="#6b7280" fill-opacity="0.400000" stroke="#6b7280" stroke-opacity="0.400000" points="663.11,-207.05 665.59,-201.2 660,-204.23 663.11,-207.05"/>
</g>
<!-- lib/ghostme/curiosity/curiositySnapshot.ts -->
<g id="node6" class="node">
<title>lib/ghostme/curiosity/curiositySnapshot.ts</title>
<g id="a_node6"><a xlink:href="lib/ghostme/curiosity/curiositySnapshot.ts" xlink:title="no&#45;orphans">
<path fill="#fee2e2" stroke="#ef4444" stroke-width="2.5" d="M123.58,-206.12C123.58,-206.12 38.17,-206.12 38.17,-206.12 35.08,-206.12 32,-203.04 32,-199.95 32,-199.95 32,-193.79 32,-193.79 32,-190.7 35.08,-187.62 38.17,-187.62 38.17,-187.62 123.58,-187.62 123.58,-187.62 126.67,-187.62 129.75,-190.7 129.75,-193.79 129.75,-193.79 129.75,-199.95 129.75,-199.95 129.75,-203.04 126.67,-206.12 123.58,-206.12"/>
<text xml:space="preserve" text-anchor="start" x="40" y="-193.87" font-family="Helvetica,sans-Serif" font-size="9.00" fill="#991b1b">curiositySnapshot.ts</text>
</a>
</g>
</g>
<!-- lib/ghostme/location/placeService.ts&#45;&gt;lib/supabaseAdmin.ts -->
<g id="edge4" class="edge">
<title>lib/ghostme/location/placeService.ts&#45;&gt;lib/supabaseAdmin.ts</title>
<path fill="none" stroke="#6b7280" stroke-width="2" stroke-opacity="0.400000" d="M355.95,-145.58C370.3,-152.1 386.6,-162.22 395.5,-176.87 409.37,-199.71 384.73,-277.84 403.5,-296.87 407.3,-300.73 465.09,-304.66 510.44,-307.17"/>
<polygon fill="#6b7280" fill-opacity="0.400000" stroke="#6b7280" stroke-width="2" stroke-opacity="0.400000" points="510.19,-309.26 516.3,-307.49 510.42,-305.07 510.19,-309.26"/>
</g>
<!-- lib/ghostme/people/peopleGraphService.ts&#45;&gt;lib/supabaseAdmin.ts -->
<g id="edge6" class="edge">
<title>lib/ghostme/people/peopleGraphService.ts&#45;&gt;lib/supabaseAdmin.ts</title>
<path fill="none" stroke="#6b7280" stroke-width="2" stroke-opacity="0.400000" d="M382.13,-262.18C387.07,-264.3 391.65,-267.13 395.5,-270.87 407.25,-282.29 390.81,-296.5 403.5,-306.87 419.38,-319.86 469.89,-318.97 510.22,-315.83"/>
<polygon fill="#6b7280" fill-opacity="0.400000" stroke="#6b7280" stroke-width="2" stroke-opacity="0.400000" points="510.35,-317.93 516.16,-315.33 510,-313.74 510.35,-317.93"/>
</g>
<!-- lib/ghostme/people/peopleSnapshot.ts -->
<g id="node11" class="node">
<title>lib/ghostme/people/peopleSnapshot.ts</title>
<g id="a_node11"><a xlink:href="lib/ghostme/people/peopleSnapshot.ts" xlink:title="peopleSnapshot.ts">
<path fill="#dbeafe" stroke="#60a5fa" d="M489.83,-267.12C489.83,-267.12 409.67,-267.12 409.67,-267.12 406.58,-267.12 403.5,-264.04 403.5,-260.95 403.5,-260.95 403.5,-254.79 403.5,-254.79 403.5,-251.7 406.58,-248.62 409.67,-248.62 409.67,-248.62 489.83,-248.62 489.83,-248.62 492.92,-248.62 496,-251.7 496,-254.79 496,-254.79 496,-260.95 496,-260.95 496,-264.04 492.92,-267.12 489.83,-267.12"/>
<text xml:space="preserve" text-anchor="start" x="411.5" y="-254.87" font-family="Helvetica,sans-Serif" font-size="9.00" fill="#111827">peopleSnapshot.ts</text>
</a>
</g>
</g>
<!-- lib/ghostme/people/peopleGraphService.ts&#45;&gt;lib/ghostme/people/peopleSnapshot.ts -->
<g id="edge5" class="edge">
<title>lib/ghostme/people/peopleGraphService.ts&#45;&gt;lib/ghostme/people/peopleSnapshot.ts</title>
<path fill="none" stroke="#6b7280" stroke-width="2" stroke-opacity="0.400000" d="M382.37,-257.87C386.42,-257.87 390.51,-257.87 394.56,-257.87"/>
<polygon fill="#6b7280" fill-opacity="0.400000" stroke="#6b7280" stroke-width="2" stroke-opacity="0.400000" points="394.32,-259.97 400.32,-257.87 394.32,-255.77 394.32,-259.97"/>
</g>
<!-- lib/ghostme/people/peopleSnapshot.ts&#45;&gt;lib/supabaseAdmin.ts -->
<g id="edge7" class="edge">
<title>lib/ghostme/people/peopleSnapshot.ts&#45;&gt;lib/supabaseAdmin.ts</title>
<path fill="none" stroke="#6b7280" stroke-width="2" stroke-opacity="0.400000" d="M496.27,-265.25C501.68,-266.79 507.04,-268.64 512,-270.87 524.77,-276.61 537.45,-285.81 547.18,-293.83"/>
<polygon fill="#6b7280" fill-opacity="0.400000" stroke="#6b7280" stroke-width="2" stroke-opacity="0.400000" points="545.78,-295.4 551.71,-297.69 548.51,-292.2 545.78,-295.4"/>
</g>
</g>
</svg>
