<?xml version="1.0" encoding="UTF-8" standalone="no"?>
<!DOCTYPE svg PUBLIC "-//W3C//DTD SVG 1.1//EN"
 "http://www.w3.org/Graphics/SVG/1.1/DTD/svg11.dtd">
<!-- Generated by graphviz version 15.0.0 (20260523.1842)
 -->
<!-- Title: dependency&#45;cruiser output Pages: 1 -->
<svg width="728pt" height="208pt"
 viewBox="0.00 0.00 728.00 208.00" xmlns="http://www.w3.org/2000/svg" xmlns:xlink="http://www.w3.org/1999/xlink">
<g id="graph0" class="graph" transform="scale(1 1) rotate(0) translate(4 204)">
<title>dependency&#45;cruiser output</title>
<polygon fill="white" stroke="none" points="-4,4 -4,-204 723.75,-204 723.75,4 -4,4"/>
<g id="clust1" class="cluster">
<title>cluster_lib</title>
<path fill="#ffffff" stroke="black" stroke-width="2" d="M20,-8C20,-8 593.5,-8 593.5,-8 599.5,-8 605.5,-14 605.5,-20 605.5,-20 605.5,-180 605.5,-180 605.5,-186 599.5,-192 593.5,-192 593.5,-192 20,-192 20,-192 14,-192 8,-186 8,-180 8,-180 8,-20 8,-20 8,-14 14,-8 20,-8"/>
<text xml:space="preserve" text-anchor="middle" x="306.75" y="-179.45" font-family="Helvetica,sans-Serif" font-weight="bold" font-size="9.00">lib</text>
</g>
<g id="clust2" class="cluster">
<title>cluster_lib/ghostme</title>
<path fill="#ffffff" stroke="black" stroke-width="2" d="M28,-16C28,-16 485.75,-16 485.75,-16 491.75,-16 497.75,-22 497.75,-28 497.75,-28 497.75,-153 497.75,-153 497.75,-159 491.75,-165 485.75,-165 485.75,-165 28,-165 28,-165 22,-165 16,-159 16,-153 16,-153 16,-28 16,-28 16,-22 22,-16 28,-16"/>
<text xml:space="preserve" text-anchor="middle" x="256.88" y="-152.45" font-family="Helvetica,sans-Serif" font-weight="bold" font-size="9.00">ghostme</text>
</g>
<g id="clust3" class="cluster">
<title>cluster_lib/ghostme/curiosity</title>
<path fill="#ffffff" stroke="black" stroke-width="2" d="M36,-54C36,-54 125.75,-54 125.75,-54 131.75,-54 137.75,-60 137.75,-66 137.75,-66 137.75,-126 137.75,-126 137.75,-132 131.75,-138 125.75,-138 125.75,-138 36,-138 36,-138 30,-138 24,-132 24,-126 24,-126 24,-66 24,-66 24,-60 30,-54 36,-54"/>
<text xml:space="preserve" text-anchor="middle" x="80.88" y="-125.45" font-family="Helvetica,sans-Serif" font-weight="bold" font-size="9.00">curiosity</text>
</g>
<g id="clust4" class="cluster">
<title>cluster_lib/ghostme/location</title>
<path fill="#ffffff" stroke="black" stroke-width="2" d="M286.25,-85C286.25,-85 356.5,-85 356.5,-85 362.5,-85 368.5,-91 368.5,-97 368.5,-97 368.5,-126 368.5,-126 368.5,-132 362.5,-138 356.5,-138 356.5,-138 286.25,-138 286.25,-138 280.25,-138 274.25,-132 274.25,-126 274.25,-126 274.25,-97 274.25,-97 274.25,-91 280.25,-85 286.25,-85"/>
<text xml:space="preserve" text-anchor="middle" x="321.38" y="-125.45" font-family="Helvetica,sans-Serif" font-weight="bold" font-size="9.00">location</text>
</g>
<g id="clust5" class="cluster">
<title>cluster_lib/ghostme/people</title>
<path fill="#ffffff" stroke="black" stroke-width="2" d="M270.5,-24C270.5,-24 477.75,-24 477.75,-24 483.75,-24 489.75,-30 489.75,-36 489.75,-36 489.75,-65 489.75,-65 489.75,-71 483.75,-77 477.75,-77 477.75,-77 270.5,-77 270.5,-77 264.5,-77 258.5,-71 258.5,-65 258.5,-65 258.5,-36 258.5,-36 258.5,-30 264.5,-24 270.5,-24"/>
<text xml:space="preserve" text-anchor="middle" x="374.12" y="-64.45" font-family="Helvetica,sans-Serif" font-weight="bold" font-size="9.00">people</text>
</g>
<g id="clust6" class="cluster">
<title>cluster_lib/ghostme/situation</title>
<path fill="#ffffff" stroke="black" stroke-width="2" d="M157.75,-69C157.75,-69 238.5,-69 238.5,-69 244.5,-69 250.5,-75 250.5,-81 250.5,-81 250.5,-110 250.5,-110 250.5,-116 244.5,-122 238.5,-122 238.5,-122 157.75,-122 157.75,-122 151.75,-122 145.75,-116 145.75,-110 145.75,-110 145.75,-81 145.75,-81 145.75,-75 151.75,-69 157.75,-69"/>
<text xml:space="preserve" text-anchor="middle" x="198.12" y="-109.45" font-family="Helvetica,sans-Serif" font-weight="bold" font-size="9.00">situation</text>
</g>
<g id="clust7" class="cluster">
<title>cluster_node_modules</title>
<path fill="#ffffff" stroke="black" stroke-width="2" d="M625.5,-26C625.5,-26 699.75,-26 699.75,-26 705.75,-26 711.75,-32 711.75,-38 711.75,-38 711.75,-128 711.75,-128 711.75,-134 705.75,-140 699.75,-140 699.75,-140 625.5,-140 625.5,-140 619.5,-140 613.5,-134 613.5,-128 613.5,-128 613.5,-38 613.5,-38 613.5,-32 619.5,-26 625.5,-26"/>
<text xml:space="preserve" text-anchor="middle" x="662.62" y="-127.45" font-family="Helvetica,sans-Serif" font-weight="bold" font-size="9.00">node_modules</text>
</g>
<g id="clust8" class="cluster">
<title>cluster_node_modules/@supabase</title>
<path fill="#ffffff" stroke="black" stroke-width="2" d="M633.5,-60C633.5,-60 691.75,-60 691.75,-60 697.75,-60 703.75,-66 703.75,-72 703.75,-72 703.75,-101 703.75,-101 703.75,-107 697.75,-113 691.75,-113 691.75,-113 633.5,-113 633.5,-113 627.5,-113 621.5,-107 621.5,-101 621.5,-101 621.5,-72 621.5,-72 621.5,-66 627.5,-60 633.5,-60"/>
<text xml:space="preserve" text-anchor="middle" x="662.62" y="-100.45" font-family="Helvetica,sans-Serif" font-weight="bold" font-size="9.00">@supabase</text>
</g>
<!-- lib/ghostme/curiosity/curiosityEngine.ts -->
<g id="node1" class="node">
<title>lib/ghostme/curiosity/curiosityEngine.ts</title>
<g id="a_node1"><a xlink:href="lib/ghostme/curiosity/curiosityEngine.ts" xlink:title="curiosityEngine.ts">
<path fill="#ddfeff" stroke="black" d="M118.71,-80.25C118.71,-80.25 43.04,-80.25 43.04,-80.25 39.96,-80.25 36.88,-77.17 36.88,-74.08 36.88,-74.08 36.88,-67.92 36.88,-67.92 36.88,-64.83 39.96,-61.75 43.04,-61.75 43.04,-61.75 118.71,-61.75 118.71,-61.75 121.79,-61.75 124.88,-64.83 124.88,-67.92 124.88,-67.92 124.88,-74.08 124.88,-74.08 124.88,-77.17 121.79,-80.25 118.71,-80.25"/>
<text xml:space="preserve" text-anchor="start" x="44.88" y="-68" font-family="Helvetica,sans-Serif" font-size="9.00">curiosityEngine.ts</text>
</a>
</g>
</g>
<!-- lib/ghostme/situation/situationEngine.ts -->
<g id="node2" class="node">
<title>lib/ghostme/situation/situationEngine.ts</title>
<g id="a_node2"><a xlink:href="lib/ghostme/situation/situationEngine.ts" xlink:title="situationEngine.ts">
<path fill="#ddfeff" stroke="black" d="M236.33,-95.25C236.33,-95.25 159.92,-95.25 159.92,-95.25 156.83,-95.25 153.75,-92.17 153.75,-89.08 153.75,-89.08 153.75,-82.92 153.75,-82.92 153.75,-79.83 156.83,-76.75 159.92,-76.75 159.92,-76.75 236.33,-76.75 236.33,-76.75 239.42,-76.75 242.5,-79.83 242.5,-82.92 242.5,-82.92 242.5,-89.08 242.5,-89.08 242.5,-92.17 239.42,-95.25 236.33,-95.25"/>
<text xml:space="preserve" text-anchor="start" x="161.75" y="-83" font-family="Helvetica,sans-Serif" font-size="9.00">situationEngine.ts</text>
</a>
</g>
</g>
<!-- lib/ghostme/curiosity/curiosityEngine.ts&#45;&gt;lib/ghostme/situation/situationEngine.ts -->
<g id="edge1" class="edge">
<title>lib/ghostme/curiosity/curiosityEngine.ts&#45;&gt;lib/ghostme/situation/situationEngine.ts</title>
<path fill="none" stroke="#000000" stroke-width="2" stroke-opacity="0.200000" d="M125.12,-76.63C131.44,-77.45 138.01,-78.31 144.5,-79.15"/>
<polygon fill="#000000" fill-opacity="0.200000" stroke="#000000" stroke-width="2" stroke-opacity="0.200000" points="144.03,-81.21 150.25,-79.9 144.58,-77.04 144.03,-81.21"/>
</g>
<!-- lib/supabaseAdmin.ts -->
<g id="node3" class="node">
<title>lib/supabaseAdmin.ts</title>
<g id="a_node3"><a xlink:href="lib/supabaseAdmin.ts" xlink:title="supabaseAdmin.ts">
<path fill="#ddfeff" stroke="black" d="M591.33,-94.25C591.33,-94.25 511.92,-94.25 511.92,-94.25 508.83,-94.25 505.75,-91.17 505.75,-88.08 505.75,-88.08 505.75,-81.92 505.75,-81.92 505.75,-78.83 508.83,-75.75 511.92,-75.75 511.92,-75.75 591.33,-75.75 591.33,-75.75 594.42,-75.75 597.5,-78.83 597.5,-81.92 597.5,-81.92 597.5,-88.08 597.5,-88.08 597.5,-91.17 594.42,-94.25 591.33,-94.25"/>
<text xml:space="preserve" text-anchor="start" x="513.75" y="-82" font-family="Helvetica,sans-Serif" font-size="9.00">supabaseAdmin.ts</text>
</a>
</g>
</g>
<!-- lib/ghostme/curiosity/curiosityEngine.ts&#45;&gt;lib/supabaseAdmin.ts -->
<g id="edge2" class="edge">
<title>lib/ghostme/curiosity/curiosityEngine.ts&#45;&gt;lib/supabaseAdmin.ts</title>
<path fill="none" stroke="#000000" stroke-width="2" stroke-opacity="0.200000" d="M125.23,-78.1C129.92,-80.33 134.24,-83.23 137.75,-87 149.51,-99.63 133.56,-112.78 145.75,-125 218.5,-197.91 273.66,-158.21 376.25,-149 430.91,-144.09 447.76,-149.64 497.75,-127 511.67,-120.7 525.13,-109.92 534.98,-100.86"/>
<polygon fill="#000000" fill-opacity="0.200000" stroke="#000000" stroke-width="2" stroke-opacity="0.200000" points="536.39,-102.42 539.28,-96.75 533.49,-99.38 536.39,-102.42"/>
</g>
<!-- node_modules/openai -->
<g id="node4" class="node">
<title>node_modules/openai</title>
<g id="a_node4"><a xlink:href="https://www.npmjs.com/package/openai" xlink:title="openai">
<polygon fill="#c40b0a" fill-opacity="0.101961" stroke="black" points="689.62,-52.25 637.68,-52.25 635.62,-50.19 635.62,-33.75 687.57,-33.75 689.62,-35.81 689.62,-52.25"/>
<polyline fill="none" stroke="black" points="687.57,-50.19 635.62,-50.19"/>
<polyline fill="none" stroke="black" points="687.57,-50.19 687.57,-33.75"/>
<polyline fill="none" stroke="black" points="687.57,-50.19 689.62,-52.25"/>
<text xml:space="preserve" text-anchor="start" x="648.38" y="-40" font-family="Helvetica,sans-Serif" font-size="9.00" fill="#c40b0a">openai</text>
</a>
</g>
</g>
<!-- lib/ghostme/curiosity/curiosityEngine.ts&#45;&gt;node_modules/openai -->
<g id="edge3" class="edge">
<title>lib/ghostme/curiosity/curiosityEngine.ts&#45;&gt;node_modules/openai</title>
<path fill="none" stroke="#000000" stroke-opacity="0.200000" d="M103.74,-61.31C145.15,-43.88 238.23,-9 320.38,-9 320.38,-9 320.38,-9 436.5,-9 511.77,-9 532.16,-3.06 605.5,-20 615.64,-22.34 626.31,-26.3 635.6,-30.28"/>
<polygon fill="#000000" fill-opacity="0.200000" stroke="#000000" stroke-opacity="0.200000" points="634.68,-32.17 641.01,-32.69 636.38,-28.33 634.68,-32.17"/>
</g>
<!-- lib/ghostme/situation/situationEngine.ts&#45;&gt;lib/supabaseAdmin.ts -->
<g id="edge10" class="edge">
<title>lib/ghostme/situation/situationEngine.ts&#45;&gt;lib/supabaseAdmin.ts</title>
<path fill="none" stroke="#000000" stroke-width="2" stroke-opacity="0.200000" d="M242.71,-92.96C245.58,-94.6 248.23,-96.59 250.5,-99 263.53,-112.83 243.86,-128.89 258.5,-141 278.66,-157.68 350.4,-145.05 376.25,-141 428.23,-132.86 485.87,-111.84 520.13,-98"/>
<polygon fill="#000000" fill-opacity="0.200000" stroke="#000000" stroke-width="2" stroke-opacity="0.200000" points="520.76,-100.01 525.52,-95.79 519.17,-96.12 520.76,-100.01"/>
</g>
<!-- lib/ghostme/location/placeService.ts -->
<g id="node6" class="node">
<title>lib/ghostme/location/placeService.ts</title>
<g id="a_node6"><a xlink:href="lib/ghostme/location/placeService.ts" xlink:title="placeService.ts">
<path fill="#ddfeff" stroke="black" d="M354.33,-111.25C354.33,-111.25 288.42,-111.25 288.42,-111.25 285.33,-111.25 282.25,-108.17 282.25,-105.08 282.25,-105.08 282.25,-98.92 282.25,-98.92 282.25,-95.83 285.33,-92.75 288.42,-92.75 288.42,-92.75 354.33,-92.75 354.33,-92.75 357.42,-92.75 360.5,-95.83 360.5,-98.92 360.5,-98.92 360.5,-105.08 360.5,-105.08 360.5,-108.17 357.42,-111.25 354.33,-111.25"/>
<text xml:space="preserve" text-anchor="start" x="290.25" y="-99" font-family="Helvetica,sans-Serif" font-size="9.00">placeService.ts</text>
</a>
</g>
</g>
<!-- lib/ghostme/situation/situationEngine.ts&#45;&gt;lib/ghostme/location/placeService.ts -->
<g id="edge8" class="edge">
<title>lib/ghostme/situation/situationEngine.ts&#45;&gt;lib/ghostme/location/placeService.ts</title>
<path fill="none" stroke="#000000" stroke-width="2" stroke-opacity="0.200000" d="M242.9,-91.78C252.66,-93.06 263.06,-94.44 272.96,-95.74"/>
<polygon fill="#000000" fill-opacity="0.200000" stroke="#000000" stroke-width="2" stroke-opacity="0.200000" points="272.66,-97.82 278.88,-96.52 273.21,-93.66 272.66,-97.82"/>
</g>
<!-- lib/ghostme/people/peopleGraphService.ts -->
<g id="node7" class="node">
<title>lib/ghostme/people/peopleGraphService.ts</title>
<g id="a_node7"><a xlink:href="lib/ghostme/people/peopleGraphService.ts" xlink:title="peopleGraphService.ts">
<path fill="#ddfeff" stroke="black" d="M370.08,-50.25C370.08,-50.25 272.67,-50.25 272.67,-50.25 269.58,-50.25 266.5,-47.17 266.5,-44.08 266.5,-44.08 266.5,-37.92 266.5,-37.92 266.5,-34.83 269.58,-31.75 272.67,-31.75 272.67,-31.75 370.08,-31.75 370.08,-31.75 373.17,-31.75 376.25,-34.83 376.25,-37.92 376.25,-37.92 376.25,-44.08 376.25,-44.08 376.25,-47.17 373.17,-50.25 370.08,-50.25"/>
<text xml:space="preserve" text-anchor="start" x="274.5" y="-38" font-family="Helvetica,sans-Serif" font-size="9.00">peopleGraphService.ts</text>
</a>
</g>
</g>
<!-- lib/ghostme/situation/situationEngine.ts&#45;&gt;lib/ghostme/people/peopleGraphService.ts -->
<g id="edge9" class="edge">
<title>lib/ghostme/situation/situationEngine.ts&#45;&gt;lib/ghostme/people/peopleGraphService.ts</title>
<path fill="none" stroke="#000000" stroke-width="2" stroke-opacity="0.200000" d="M225.14,-76.35C242.96,-69.73 266.78,-60.89 286.14,-53.71"/>
<polygon fill="#000000" fill-opacity="0.200000" stroke="#000000" stroke-width="2" stroke-opacity="0.200000" points="286.67,-55.75 291.57,-51.69 285.21,-51.81 286.67,-55.75"/>
</g>
<!-- node_modules/@supabase/supabase&#45;js -->
<g id="node9" class="node">
<title>node_modules/@supabase/supabase&#45;js</title>
<g id="a_node9"><a xlink:href="https://www.npmjs.com/package/@supabase/supabase-js" xlink:title="supabase&#45;js">
<polygon fill="#c40b0a" fill-opacity="0.101961" stroke="black" points="695.75,-86.25 631.56,-86.25 629.5,-84.19 629.5,-67.75 693.69,-67.75 695.75,-69.81 695.75,-86.25"/>
<polyline fill="none" stroke="black" points="693.69,-84.19 629.5,-84.19"/>
<polyline fill="none" stroke="black" points="693.69,-84.19 693.69,-67.75"/>
<polyline fill="none" stroke="black" points="693.69,-84.19 695.75,-86.25"/>
<text xml:space="preserve" text-anchor="start" x="637.5" y="-74" font-family="Helvetica,sans-Serif" font-size="9.00" fill="#c40b0a">supabase&#45;js</text>
</a>
</g>
</g>
<!-- lib/supabaseAdmin.ts&#45;&gt;node_modules/@supabase/supabase&#45;js -->
<g id="edge11" class="edge">
<title>lib/supabaseAdmin.ts&#45;&gt;node_modules/@supabase/supabase&#45;js</title>
<path fill="none" stroke="#000000" stroke-opacity="0.200000" d="M597.9,-81.68C605.96,-81.09 614.3,-80.47 622.18,-79.89"/>
<polygon fill="#000000" fill-opacity="0.200000" stroke="#000000" stroke-opacity="0.200000" points="621.93,-82.02 627.76,-79.49 621.63,-77.83 621.93,-82.02"/>
</g>
<!-- lib/ghostme/curiosity/curiositySnapshot.ts -->
<g id="node5" class="node">
<title>lib/ghostme/curiosity/curiositySnapshot.ts</title>
<g id="a_node5"><a xlink:href="lib/ghostme/curiosity/curiositySnapshot.ts" xlink:title="no&#45;orphans">
<path fill="#ccffcc" stroke="orange" d="M123.58,-111.25C123.58,-111.25 38.17,-111.25 38.17,-111.25 35.08,-111.25 32,-108.17 32,-105.08 32,-105.08 32,-98.92 32,-98.92 32,-95.83 35.08,-92.75 38.17,-92.75 38.17,-92.75 123.58,-92.75 123.58,-92.75 126.67,-92.75 129.75,-95.83 129.75,-98.92 129.75,-98.92 129.75,-105.08 129.75,-105.08 129.75,-108.17 126.67,-111.25 123.58,-111.25"/>
<text xml:space="preserve" text-anchor="start" x="40" y="-99" font-family="Helvetica,sans-Serif" font-size="9.00" fill="orange">curiositySnapshot.ts</text>
</a>
</g>
</g>
<!-- lib/ghostme/location/placeService.ts&#45;&gt;lib/supabaseAdmin.ts -->
<g id="edge4" class="edge">
<title>lib/ghostme/location/placeService.ts&#45;&gt;lib/supabaseAdmin.ts</title>
<path fill="none" stroke="#000000" stroke-width="2" stroke-opacity="0.200000" d="M360.84,-99.14C398,-96.37 454.66,-92.15 496.39,-89.04"/>
<polygon fill="#000000" fill-opacity="0.200000" stroke="#000000" stroke-width="2" stroke-opacity="0.200000" points="496.48,-91.14 502.31,-88.6 496.17,-86.95 496.48,-91.14"/>
</g>
<!-- lib/ghostme/people/peopleGraphService.ts&#45;&gt;lib/supabaseAdmin.ts -->
<g id="edge6" class="edge">
<title>lib/ghostme/people/peopleGraphService.ts&#45;&gt;lib/supabaseAdmin.ts</title>
<path fill="none" stroke="#000000" stroke-width="2" stroke-opacity="0.200000" d="M364.41,-50.72C372.63,-52.54 381.2,-54.38 389.25,-56 424.96,-63.21 465.29,-70.46 496.7,-75.9"/>
<polygon fill="#000000" fill-opacity="0.200000" stroke="#000000" stroke-width="2" stroke-opacity="0.200000" points="496.06,-77.92 502.33,-76.88 496.77,-73.79 496.06,-77.92"/>
</g>
<!-- lib/ghostme/people/peopleSnapshot.ts -->
<g id="node8" class="node">
<title>lib/ghostme/people/peopleSnapshot.ts</title>
<g id="a_node8"><a xlink:href="lib/ghostme/people/peopleSnapshot.ts" xlink:title="peopleSnapshot.ts">
<path fill="#ddfeff" stroke="black" d="M475.58,-50.25C475.58,-50.25 395.42,-50.25 395.42,-50.25 392.33,-50.25 389.25,-47.17 389.25,-44.08 389.25,-44.08 389.25,-37.92 389.25,-37.92 389.25,-34.83 392.33,-31.75 395.42,-31.75 395.42,-31.75 475.58,-31.75 475.58,-31.75 478.67,-31.75 481.75,-34.83 481.75,-37.92 481.75,-37.92 481.75,-44.08 481.75,-44.08 481.75,-47.17 478.67,-50.25 475.58,-50.25"/>
<text xml:space="preserve" text-anchor="start" x="397.25" y="-38" font-family="Helvetica,sans-Serif" font-size="9.00">peopleSnapshot.ts</text>
</a>
</g>
</g>
<!-- lib/ghostme/people/peopleGraphService.ts&#45;&gt;lib/ghostme/people/peopleSnapshot.ts -->
<g id="edge5" class="edge">
<title>lib/ghostme/people/peopleGraphService.ts&#45;&gt;lib/ghostme/people/peopleSnapshot.ts</title>
<path fill="none" stroke="#000000" stroke-width="2" stroke-opacity="0.200000" d="M376.47,-41C377.63,-41 378.8,-41 379.96,-41"/>
<polygon fill="#000000" fill-opacity="0.200000" stroke="#000000" stroke-width="2" stroke-opacity="0.200000" points="379.82,-43.1 385.82,-41 379.82,-38.9 379.82,-43.1"/>
</g>
<!-- lib/ghostme/people/peopleSnapshot.ts&#45;&gt;lib/supabaseAdmin.ts -->
<g id="edge7" class="edge">
<title>lib/ghostme/people/peopleSnapshot.ts&#45;&gt;lib/supabaseAdmin.ts</title>
<path fill="none" stroke="#000000" stroke-width="2" stroke-opacity="0.200000" d="M482.14,-48.98C487.47,-50.41 492.78,-52.08 497.75,-54 508.76,-58.27 520.15,-64.66 529.54,-70.53"/>
<polygon fill="#000000" fill-opacity="0.200000" stroke="#000000" stroke-width="2" stroke-opacity="0.200000" points="528.17,-72.14 534.35,-73.64 530.45,-68.62 528.17,-72.14"/>
</g>
</g>
</svg>
