<?xml version="1.0" encoding="UTF-8" standalone="no"?>
<!DOCTYPE svg PUBLIC "-//W3C//DTD SVG 1.1//EN"
 "http://www.w3.org/Graphics/SVG/1.1/DTD/svg11.dtd">
<!-- Generated by graphviz version 15.0.0 (20260523.1842)
 -->
<!-- Title: dependency&#45;cruiser output Pages: 1 -->
<svg width="742pt" height="300pt"
 viewBox="0.00 0.00 742.00 300.00" xmlns="http://www.w3.org/2000/svg" xmlns:xlink="http://www.w3.org/1999/xlink">
<g id="graph0" class="graph" transform="scale(1 1) rotate(0) translate(4 296)">
<title>dependency&#45;cruiser output</title>
<polygon fill="#fbfbfd" stroke="none" points="-4,4 -4,-296 738,-296 738,4 -4,4"/>
<g id="clust1" class="cluster">
<title>cluster_lib</title>
<path fill="#ffffff" stroke="black" stroke-width="2" d="M20,-8C20,-8 607.75,-8 607.75,-8 613.75,-8 619.75,-14 619.75,-20 619.75,-20 619.75,-272 619.75,-272 619.75,-278 613.75,-284 607.75,-284 607.75,-284 20,-284 20,-284 14,-284 8,-278 8,-272 8,-272 8,-20 8,-20 8,-14 14,-8 20,-8"/>
<text xml:space="preserve" text-anchor="middle" x="313.88" y="-271.45" font-family="Helvetica,sans-Serif" font-weight="bold" font-size="9.00" fill="#374151">lib</text>
</g>
<g id="clust2" class="cluster">
<title>cluster_lib/ghostme</title>
<path fill="#ffffff" stroke="black" stroke-width="2" d="M28,-16C28,-16 500,-16 500,-16 506,-16 512,-22 512,-28 512,-28 512,-245 512,-245 512,-251 506,-257 500,-257 500,-257 28,-257 28,-257 22,-257 16,-251 16,-245 16,-245 16,-28 16,-28 16,-22 22,-16 28,-16"/>
<text xml:space="preserve" text-anchor="middle" x="264" y="-244.45" font-family="Helvetica,sans-Serif" font-weight="bold" font-size="9.00" fill="#374151">ghostme</text>
</g>
<g id="clust3" class="cluster">
<title>cluster_lib/ghostme/context</title>
<path fill="#ffffff" stroke="black" stroke-width="2" d="M286.62,-24C286.62,-24 367.38,-24 367.38,-24 373.38,-24 379.38,-30 379.38,-36 379.38,-36 379.38,-65 379.38,-65 379.38,-71 373.38,-77 367.38,-77 367.38,-77 286.62,-77 286.62,-77 280.62,-77 274.62,-71 274.62,-65 274.62,-65 274.62,-36 274.62,-36 274.62,-30 280.62,-24 286.62,-24"/>
<text xml:space="preserve" text-anchor="middle" x="327" y="-64.45" font-family="Helvetica,sans-Serif" font-weight="bold" font-size="9.00" fill="#374151">context</text>
</g>
<g id="clust4" class="cluster">
<title>cluster_lib/ghostme/curiosity</title>
<path fill="#ffffff" stroke="black" stroke-width="2" d="M36,-146C36,-146 125.75,-146 125.75,-146 131.75,-146 137.75,-152 137.75,-158 137.75,-158 137.75,-218 137.75,-218 137.75,-224 131.75,-230 125.75,-230 125.75,-230 36,-230 36,-230 30,-230 24,-224 24,-218 24,-218 24,-158 24,-158 24,-152 30,-146 36,-146"/>
<text xml:space="preserve" text-anchor="middle" x="80.88" y="-217.45" font-family="Helvetica,sans-Serif" font-weight="bold" font-size="9.00" fill="#374151">curiosity</text>
</g>
<g id="clust5" class="cluster">
<title>cluster_lib/ghostme/location</title>
<path fill="#ffffff" stroke="black" stroke-width="2" d="M270.5,-146C270.5,-146 383.5,-146 383.5,-146 389.5,-146 395.5,-152 395.5,-158 395.5,-158 395.5,-218 395.5,-218 395.5,-224 389.5,-230 383.5,-230 383.5,-230 270.5,-230 270.5,-230 264.5,-230 258.5,-224 258.5,-218 258.5,-218 258.5,-158 258.5,-158 258.5,-152 264.5,-146 270.5,-146"/>
<text xml:space="preserve" text-anchor="middle" x="327" y="-217.45" font-family="Helvetica,sans-Serif" font-weight="bold" font-size="9.00" fill="#374151">location</text>
</g>
<g id="clust6" class="cluster">
<title>cluster_lib/ghostme/people</title>
<path fill="#ffffff" stroke="black" stroke-width="2" d="M276.12,-85C276.12,-85 492,-85 492,-85 498,-85 504,-91 504,-97 504,-97 504,-126 504,-126 504,-132 498,-138 492,-138 492,-138 276.12,-138 276.12,-138 270.12,-138 264.12,-132 264.12,-126 264.12,-126 264.12,-97 264.12,-97 264.12,-91 270.12,-85 276.12,-85"/>
<text xml:space="preserve" text-anchor="middle" x="384.06" y="-125.45" font-family="Helvetica,sans-Serif" font-weight="bold" font-size="9.00" fill="#374151">people</text>
</g>
<g id="clust7" class="cluster">
<title>cluster_lib/ghostme/situation</title>
<path fill="#ffffff" stroke="black" stroke-width="2" d="M157.75,-146C157.75,-146 238.5,-146 238.5,-146 244.5,-146 250.5,-152 250.5,-158 250.5,-158 250.5,-187 250.5,-187 250.5,-193 244.5,-199 238.5,-199 238.5,-199 157.75,-199 157.75,-199 151.75,-199 145.75,-193 145.75,-187 145.75,-187 145.75,-158 145.75,-158 145.75,-152 151.75,-146 157.75,-146"/>
<text xml:space="preserve" text-anchor="middle" x="198.12" y="-186.45" font-family="Helvetica,sans-Serif" font-weight="bold" font-size="9.00" fill="#374151">situation</text>
</g>
<g id="clust8" class="cluster">
<title>cluster_node_modules</title>
<path fill="#ffffff" stroke="black" stroke-width="2" d="M639.75,-57C639.75,-57 714,-57 714,-57 720,-57 726,-63 726,-69 726,-69 726,-159 726,-159 726,-165 720,-171 714,-171 714,-171 639.75,-171 639.75,-171 633.75,-171 627.75,-165 627.75,-159 627.75,-159 627.75,-69 627.75,-69 627.75,-63 633.75,-57 639.75,-57"/>
<text xml:space="preserve" text-anchor="middle" x="676.88" y="-158.45" font-family="Helvetica,sans-Serif" font-weight="bold" font-size="9.00" fill="#374151">node_modules</text>
</g>
<g id="clust9" class="cluster">
<title>cluster_node_modules/@supabase</title>
<path fill="#ffffff" stroke="black" stroke-width="2" d="M647.75,-91C647.75,-91 706,-91 706,-91 712,-91 718,-97 718,-103 718,-103 718,-132 718,-132 718,-138 712,-144 706,-144 706,-144 647.75,-144 647.75,-144 641.75,-144 635.75,-138 635.75,-132 635.75,-132 635.75,-103 635.75,-103 635.75,-97 641.75,-91 647.75,-91"/>
<text xml:space="preserve" text-anchor="middle" x="676.88" y="-131.45" font-family="Helvetica,sans-Serif" font-weight="bold" font-size="9.00" fill="#374151">@supabase</text>
</g>
<!-- lib/ghostme/context/temporalPriority.ts -->
<g id="node1" class="node">
<title>lib/ghostme/context/temporalPriority.ts</title>
<g id="a_node1"><a xlink:href="lib/ghostme/context/temporalPriority.ts" xlink:title="temporalPriority.ts">
<path fill="#ddfeff" stroke="#9ca3af" d="M365.21,-50.25C365.21,-50.25 288.79,-50.25 288.79,-50.25 285.71,-50.25 282.62,-47.17 282.62,-44.08 282.62,-44.08 282.62,-37.92 282.62,-37.92 282.62,-34.83 285.71,-31.75 288.79,-31.75 288.79,-31.75 365.21,-31.75 365.21,-31.75 368.29,-31.75 371.38,-34.83 371.38,-37.92 371.38,-37.92 371.38,-44.08 371.38,-44.08 371.38,-47.17 368.29,-50.25 365.21,-50.25"/>
<text xml:space="preserve" text-anchor="start" x="290.62" y="-38" font-family="Helvetica,sans-Serif" font-size="9.00" fill="#111827">temporalPriority.ts</text>
</a>
</g>
</g>
<!-- lib/ghostme/curiosity/curiosityEngine.ts -->
<g id="node2" class="node">
<title>lib/ghostme/curiosity/curiosityEngine.ts</title>
<g id="a_node2"><a xlink:href="lib/ghostme/curiosity/curiosityEngine.ts" xlink:title="curiosityEngine.ts">
<path fill="#dcfce7" stroke="#4ade80" d="M118.71,-172.25C118.71,-172.25 43.04,-172.25 43.04,-172.25 39.96,-172.25 36.88,-169.17 36.88,-166.08 36.88,-166.08 36.88,-159.92 36.88,-159.92 36.88,-156.83 39.96,-153.75 43.04,-153.75 43.04,-153.75 118.71,-153.75 118.71,-153.75 121.79,-153.75 124.88,-156.83 124.88,-159.92 124.88,-159.92 124.88,-166.08 124.88,-166.08 124.88,-169.17 121.79,-172.25 118.71,-172.25"/>
<text xml:space="preserve" text-anchor="start" x="44.88" y="-160" font-family="Helvetica,sans-Serif" font-size="9.00" fill="#111827">curiosityEngine.ts</text>
</a>
</g>
</g>
<!-- lib/ghostme/situation/situationEngine.ts -->
<g id="node3" class="node">
<title>lib/ghostme/situation/situationEngine.ts</title>
<g id="a_node3"><a xlink:href="lib/ghostme/situation/situationEngine.ts" xlink:title="situationEngine.ts">
<path fill="#dcfce7" stroke="#4ade80" d="M236.33,-172.25C236.33,-172.25 159.92,-172.25 159.92,-172.25 156.83,-172.25 153.75,-169.17 153.75,-166.08 153.75,-166.08 153.75,-159.92 153.75,-159.92 153.75,-156.83 156.83,-153.75 159.92,-153.75 159.92,-153.75 236.33,-153.75 236.33,-153.75 239.42,-153.75 242.5,-156.83 242.5,-159.92 242.5,-159.92 242.5,-166.08 242.5,-166.08 242.5,-169.17 239.42,-172.25 236.33,-172.25"/>
<text xml:space="preserve" text-anchor="start" x="161.75" y="-160" font-family="Helvetica,sans-Serif" font-size="9.00" fill="#111827">situationEngine.ts</text>
</a>
</g>
</g>
<!-- lib/ghostme/curiosity/curiosityEngine.ts&#45;&gt;lib/ghostme/situation/situationEngine.ts -->
<g id="edge1" class="edge">
<title>lib/ghostme/curiosity/curiosityEngine.ts&#45;&gt;lib/ghostme/situation/situationEngine.ts</title>
<path fill="none" stroke="#6b7280" stroke-width="2" stroke-opacity="0.400000" d="M125.12,-163C131.44,-163 138.01,-163 144.5,-163"/>
<polygon fill="#6b7280" fill-opacity="0.400000" stroke="#6b7280" stroke-width="2" stroke-opacity="0.400000" points="144.23,-165.1 150.23,-163 144.23,-160.9 144.23,-165.1"/>
</g>
<!-- lib/supabaseAdmin.ts -->
<g id="node4" class="node">
<title>lib/supabaseAdmin.ts</title>
<g id="a_node4"><a xlink:href="lib/supabaseAdmin.ts" xlink:title="supabaseAdmin.ts">
<path fill="#d1d5db" stroke="#4b5563" stroke-width="2" d="M605.58,-155.25C605.58,-155.25 526.17,-155.25 526.17,-155.25 523.08,-155.25 520,-152.17 520,-149.08 520,-149.08 520,-142.92 520,-142.92 520,-139.83 523.08,-136.75 526.17,-136.75 526.17,-136.75 605.58,-136.75 605.58,-136.75 608.67,-136.75 611.75,-139.83 611.75,-142.92 611.75,-142.92 611.75,-149.08 611.75,-149.08 611.75,-152.17 608.67,-155.25 605.58,-155.25"/>
<text xml:space="preserve" text-anchor="start" x="528" y="-143" font-family="Helvetica,sans-Serif" font-size="9.00" fill="#111827">supabaseAdmin.ts</text>
</a>
</g>
</g>
<!-- lib/ghostme/curiosity/curiosityEngine.ts&#45;&gt;lib/supabaseAdmin.ts -->
<g id="edge2" class="edge">
<title>lib/ghostme/curiosity/curiosityEngine.ts&#45;&gt;lib/supabaseAdmin.ts</title>
<path fill="none" stroke="#6b7280" stroke-width="2" stroke-opacity="0.400000" d="M125.35,-170.8C129.89,-172.92 134.16,-175.6 137.75,-179 145.61,-186.44 138.12,-194.32 145.75,-202 183.23,-239.71 206.1,-232.98 258.5,-242 318.51,-252.33 335.16,-250.14 395.5,-242 448.71,-234.82 466.92,-239.16 512,-210 530.38,-198.11 545.56,-177.8 554.87,-163.25"/>
<polygon fill="#6b7280" fill-opacity="0.400000" stroke="#6b7280" stroke-width="2" stroke-opacity="0.400000" points="556.48,-164.64 557.84,-158.43 552.9,-162.44 556.48,-164.64"/>
</g>
<!-- node_modules/openai -->
<g id="node5" class="node">
<title>node_modules/openai</title>
<g id="a_node5"><a xlink:href="https://www.npmjs.com/package/openai" xlink:title="openai">
<polygon fill="#d1d5db" stroke="#4b5563" stroke-width="2" points="703.88,-83.25 651.93,-83.25 649.88,-81.19 649.88,-64.75 701.82,-64.75 703.88,-66.81 703.88,-83.25"/>
<polyline fill="none" stroke="#4b5563" stroke-width="2" points="701.82,-81.19 649.88,-81.19"/>
<polyline fill="none" stroke="#4b5563" stroke-width="2" points="701.82,-81.19 701.82,-64.75"/>
<polyline fill="none" stroke="#4b5563" stroke-width="2" points="701.82,-81.19 703.88,-83.25"/>
<text xml:space="preserve" text-anchor="start" x="662.62" y="-71" font-family="Helvetica,sans-Serif" font-size="9.00" fill="#111827">openai</text>
</a>
</g>
</g>
<!-- lib/ghostme/curiosity/curiosityEngine.ts&#45;&gt;node_modules/openai -->
<g id="edge3" class="edge">
<title>lib/ghostme/curiosity/curiosityEngine.ts&#45;&gt;node_modules/openai</title>
<path fill="none" stroke="#6b7280" stroke-opacity="0.400000" d="M90.32,-153.47C113.96,-127.44 183.99,-54.86 258.5,-21 286.24,-8.39 295.53,-9 326,-9 326,-9 326,-9 450.75,-9 526.02,-9 550.89,10.39 619.75,-20 638.25,-28.16 654.29,-45.21 664.43,-57.98"/>
<polygon fill="#6b7280" fill-opacity="0.400000" stroke="#6b7280" stroke-opacity="0.400000" points="662.68,-59.16 667.99,-62.65 666.02,-56.61 662.68,-59.16"/>
</g>
<!-- lib/ghostme/situation/situationEngine.ts&#45;&gt;lib/ghostme/context/temporalPriority.ts -->
<g id="edge8" class="edge">
<title>lib/ghostme/situation/situationEngine.ts&#45;&gt;lib/ghostme/context/temporalPriority.ts</title>
<path fill="none" stroke="#6b7280" stroke-width="2" stroke-opacity="0.400000" d="M204.5,-153.32C213.86,-137.1 234.47,-104.03 258.5,-82 270.22,-71.26 285.17,-61.84 298.02,-54.74"/>
<polygon fill="#6b7280" fill-opacity="0.400000" stroke="#6b7280" stroke-width="2" stroke-opacity="0.400000" points="298.73,-56.74 303.03,-52.06 296.75,-53.04 298.73,-56.74"/>
</g>
<!-- lib/ghostme/situation/situationEngine.ts&#45;&gt;lib/supabaseAdmin.ts -->
<g id="edge12" class="edge">
<title>lib/ghostme/situation/situationEngine.ts&#45;&gt;lib/supabaseAdmin.ts</title>
<path fill="none" stroke="#6b7280" stroke-width="2" stroke-opacity="0.400000" d="M242.84,-169.84C245.68,-171.51 248.29,-173.53 250.5,-176 267.58,-195.04 239.19,-216.22 258.5,-233 281.47,-252.98 365.91,-240.16 395.5,-233 452.97,-219.1 512.8,-182.16 543.65,-161.16"/>
<polygon fill="#6b7280" fill-opacity="0.400000" stroke="#6b7280" stroke-width="2" stroke-opacity="0.400000" points="544.62,-163.04 548.36,-157.91 542.23,-159.59 544.62,-163.04"/>
</g>
<!-- lib/ghostme/location/locationStateFreshness.ts -->
<g id="node7" class="node">
<title>lib/ghostme/location/locationStateFreshness.ts</title>
<g id="a_node7"><a xlink:href="lib/ghostme/location/locationStateFreshness.ts" xlink:title="locationStateFreshness.ts">
<path fill="#ddfeff" stroke="#9ca3af" d="M381.33,-203.25C381.33,-203.25 272.67,-203.25 272.67,-203.25 269.58,-203.25 266.5,-200.17 266.5,-197.08 266.5,-197.08 266.5,-190.92 266.5,-190.92 266.5,-187.83 269.58,-184.75 272.67,-184.75 272.67,-184.75 381.33,-184.75 381.33,-184.75 384.42,-184.75 387.5,-187.83 387.5,-190.92 387.5,-190.92 387.5,-197.08 387.5,-197.08 387.5,-200.17 384.42,-203.25 381.33,-203.25"/>
<text xml:space="preserve" text-anchor="start" x="274.5" y="-191" font-family="Helvetica,sans-Serif" font-size="9.00" fill="#111827">locationStateFreshness.ts</text>
</a>
</g>
</g>
<!-- lib/ghostme/situation/situationEngine.ts&#45;&gt;lib/ghostme/location/locationStateFreshness.ts -->
<g id="edge9" class="edge">
<title>lib/ghostme/situation/situationEngine.ts&#45;&gt;lib/ghostme/location/locationStateFreshness.ts</title>
<path fill="none" stroke="#6b7280" stroke-width="2" stroke-opacity="0.400000" d="M237.45,-172.7C247.42,-175.23 256.07,-177.41 258.5,-178 264.16,-179.39 270.09,-180.82 275.99,-182.23"/>
<polygon fill="#6b7280" fill-opacity="0.400000" stroke="#6b7280" stroke-width="2" stroke-opacity="0.400000" points="275.3,-184.23 281.62,-183.58 276.28,-180.14 275.3,-184.23"/>
</g>
<!-- lib/ghostme/location/placeService.ts -->
<g id="node8" class="node">
<title>lib/ghostme/location/placeService.ts</title>
<g id="a_node8"><a xlink:href="lib/ghostme/location/placeService.ts" xlink:title="placeService.ts">
<path fill="#fef3c7" stroke="#f59e0b" d="M359.96,-172.25C359.96,-172.25 294.04,-172.25 294.04,-172.25 290.96,-172.25 287.88,-169.17 287.88,-166.08 287.88,-166.08 287.88,-159.92 287.88,-159.92 287.88,-156.83 290.96,-153.75 294.04,-153.75 294.04,-153.75 359.96,-153.75 359.96,-153.75 363.04,-153.75 366.12,-156.83 366.12,-159.92 366.12,-159.92 366.12,-166.08 366.12,-166.08 366.12,-169.17 363.04,-172.25 359.96,-172.25"/>
<text xml:space="preserve" text-anchor="start" x="295.88" y="-160" font-family="Helvetica,sans-Serif" font-size="9.00" fill="#111827">placeService.ts</text>
</a>
</g>
</g>
<!-- lib/ghostme/situation/situationEngine.ts&#45;&gt;lib/ghostme/location/placeService.ts -->
<g id="edge10" class="edge">
<title>lib/ghostme/situation/situationEngine.ts&#45;&gt;lib/ghostme/location/placeService.ts</title>
<path fill="none" stroke="#6b7280" stroke-width="2" stroke-opacity="0.400000" d="M242.79,-163C254.44,-163 267.08,-163 278.91,-163"/>
<polygon fill="#6b7280" fill-opacity="0.400000" stroke="#6b7280" stroke-width="2" stroke-opacity="0.400000" points="278.74,-165.1 284.74,-163 278.74,-160.9 278.74,-165.1"/>
</g>
<!-- lib/ghostme/people/peopleGraphService.ts -->
<g id="node9" class="node">
<title>lib/ghostme/people/peopleGraphService.ts</title>
<g id="a_node9"><a xlink:href="lib/ghostme/people/peopleGraphService.ts" xlink:title="peopleGraphService.ts">
<path fill="#fef3c7" stroke="#f59e0b" d="M375.71,-111.25C375.71,-111.25 278.29,-111.25 278.29,-111.25 275.21,-111.25 272.12,-108.17 272.12,-105.08 272.12,-105.08 272.12,-98.92 272.12,-98.92 272.12,-95.83 275.21,-92.75 278.29,-92.75 278.29,-92.75 375.71,-92.75 375.71,-92.75 378.79,-92.75 381.88,-95.83 381.88,-98.92 381.88,-98.92 381.88,-105.08 381.88,-105.08 381.88,-108.17 378.79,-111.25 375.71,-111.25"/>
<text xml:space="preserve" text-anchor="start" x="280.12" y="-99" font-family="Helvetica,sans-Serif" font-size="9.00" fill="#111827">peopleGraphService.ts</text>
</a>
</g>
</g>
<!-- lib/ghostme/situation/situationEngine.ts&#45;&gt;lib/ghostme/people/peopleGraphService.ts -->
<g id="edge11" class="edge">
<title>lib/ghostme/situation/situationEngine.ts&#45;&gt;lib/ghostme/people/peopleGraphService.ts</title>
<path fill="none" stroke="#6b7280" stroke-width="2" stroke-opacity="0.400000" d="M219.23,-153.33C240.48,-143.12 274.16,-126.92 298,-115.46"/>
<polygon fill="#6b7280" fill-opacity="0.400000" stroke="#6b7280" stroke-width="2" stroke-opacity="0.400000" points="298.76,-117.42 303.26,-112.93 296.94,-113.64 298.76,-117.42"/>
</g>
<!-- node_modules/@supabase/supabase&#45;js -->
<g id="node11" class="node">
<title>node_modules/@supabase/supabase&#45;js</title>
<g id="a_node11"><a xlink:href="https://www.npmjs.com/package/@supabase/supabase-js" xlink:title="supabase&#45;js">
<polygon fill="#d1d5db" stroke="#4b5563" stroke-width="2" points="710,-117.25 645.81,-117.25 643.75,-115.19 643.75,-98.75 707.94,-98.75 710,-100.81 710,-117.25"/>
<polyline fill="none" stroke="#4b5563" stroke-width="2" points="707.94,-115.19 643.75,-115.19"/>
<polyline fill="none" stroke="#4b5563" stroke-width="2" points="707.94,-115.19 707.94,-98.75"/>
<polyline fill="none" stroke="#4b5563" stroke-width="2" points="707.94,-115.19 710,-117.25"/>
<text xml:space="preserve" text-anchor="start" x="651.75" y="-105" font-family="Helvetica,sans-Serif" font-size="9.00" fill="#111827">supabase&#45;js</text>
</a>
</g>
</g>
<!-- lib/supabaseAdmin.ts&#45;&gt;node_modules/@supabase/supabase&#45;js -->
<g id="edge13" class="edge">
<title>lib/supabaseAdmin.ts&#45;&gt;node_modules/@supabase/supabase&#45;js</title>
<path fill="none" stroke="#6b7280" stroke-opacity="0.400000" d="M596.08,-135.82C609.52,-131.13 625.6,-125.53 639.79,-120.58"/>
<polygon fill="#6b7280" fill-opacity="0.400000" stroke="#6b7280" stroke-opacity="0.400000" points="640.18,-122.67 645.16,-118.71 638.8,-118.7 640.18,-122.67"/>
</g>
<!-- lib/ghostme/curiosity/curiositySnapshot.ts -->
<g id="node6" class="node">
<title>lib/ghostme/curiosity/curiositySnapshot.ts</title>
<g id="a_node6"><a xlink:href="lib/ghostme/curiosity/curiositySnapshot.ts" xlink:title="no&#45;orphans">
<path fill="#fee2e2" stroke="#ef4444" stroke-width="2.5" d="M123.58,-203.25C123.58,-203.25 38.17,-203.25 38.17,-203.25 35.08,-203.25 32,-200.17 32,-197.08 32,-197.08 32,-190.92 32,-190.92 32,-187.83 35.08,-184.75 38.17,-184.75 38.17,-184.75 123.58,-184.75 123.58,-184.75 126.67,-184.75 129.75,-187.83 129.75,-190.92 129.75,-190.92 129.75,-197.08 129.75,-197.08 129.75,-200.17 126.67,-203.25 123.58,-203.25"/>
<text xml:space="preserve" text-anchor="start" x="40" y="-191" font-family="Helvetica,sans-Serif" font-size="9.00" fill="#991b1b">curiositySnapshot.ts</text>
</a>
</g>
</g>
<!-- lib/ghostme/location/placeService.ts&#45;&gt;lib/supabaseAdmin.ts -->
<g id="edge4" class="edge">
<title>lib/ghostme/location/placeService.ts&#45;&gt;lib/supabaseAdmin.ts</title>
<path fill="none" stroke="#6b7280" stroke-width="2" stroke-opacity="0.400000" d="M366.59,-160.23C405.71,-157.42 466.59,-153.05 510.58,-149.9"/>
<polygon fill="#6b7280" fill-opacity="0.400000" stroke="#6b7280" stroke-width="2" stroke-opacity="0.400000" points="510.56,-152 516.4,-149.48 510.26,-147.81 510.56,-152"/>
</g>
<!-- lib/ghostme/people/peopleGraphService.ts&#45;&gt;lib/supabaseAdmin.ts -->
<g id="edge6" class="edge">
<title>lib/ghostme/people/peopleGraphService.ts&#45;&gt;lib/supabaseAdmin.ts</title>
<path fill="none" stroke="#6b7280" stroke-width="2" stroke-opacity="0.400000" d="M376.31,-111.73C385.34,-113.52 394.7,-115.34 403.5,-117 439.16,-123.75 479.34,-130.97 510.68,-136.52"/>
<polygon fill="#6b7280" fill-opacity="0.400000" stroke="#6b7280" stroke-width="2" stroke-opacity="0.400000" points="510.02,-138.53 516.29,-137.51 510.75,-134.4 510.02,-138.53"/>
</g>
<!-- lib/ghostme/people/peopleSnapshot.ts -->
<g id="node10" class="node">
<title>lib/ghostme/people/peopleSnapshot.ts</title>
<g id="a_node10"><a xlink:href="lib/ghostme/people/peopleSnapshot.ts" xlink:title="peopleSnapshot.ts">
<path fill="#dbeafe" stroke="#60a5fa" d="M489.83,-111.25C489.83,-111.25 409.67,-111.25 409.67,-111.25 406.58,-111.25 403.5,-108.17 403.5,-105.08 403.5,-105.08 403.5,-98.92 403.5,-98.92 403.5,-95.83 406.58,-92.75 409.67,-92.75 409.67,-92.75 489.83,-92.75 489.83,-92.75 492.92,-92.75 496,-95.83 496,-98.92 496,-98.92 496,-105.08 496,-105.08 496,-108.17 492.92,-111.25 489.83,-111.25"/>
<text xml:space="preserve" text-anchor="start" x="411.5" y="-99" font-family="Helvetica,sans-Serif" font-size="9.00" fill="#111827">peopleSnapshot.ts</text>
</a>
</g>
</g>
<!-- lib/ghostme/people/peopleGraphService.ts&#45;&gt;lib/ghostme/people/peopleSnapshot.ts -->
<g id="edge5" class="edge">
<title>lib/ghostme/people/peopleGraphService.ts&#45;&gt;lib/ghostme/people/peopleSnapshot.ts</title>
<path fill="none" stroke="#6b7280" stroke-width="2" stroke-opacity="0.400000" d="M382.37,-102C386.42,-102 390.51,-102 394.56,-102"/>
<polygon fill="#6b7280" fill-opacity="0.400000" stroke="#6b7280" stroke-width="2" stroke-opacity="0.400000" points="394.32,-104.1 400.32,-102 394.32,-99.9 394.32,-104.1"/>
</g>
<!-- lib/ghostme/people/peopleSnapshot.ts&#45;&gt;lib/supabaseAdmin.ts -->
<g id="edge7" class="edge">
<title>lib/ghostme/people/peopleSnapshot.ts&#45;&gt;lib/supabaseAdmin.ts</title>
<path fill="none" stroke="#6b7280" stroke-width="2" stroke-opacity="0.400000" d="M496.39,-109.98C501.72,-111.41 507.03,-113.08 512,-115 522.85,-119.21 534.08,-125.48 543.39,-131.28"/>
<polygon fill="#6b7280" fill-opacity="0.400000" stroke="#6b7280" stroke-width="2" stroke-opacity="0.400000" points="541.97,-132.87 548.16,-134.35 544.25,-129.34 541.97,-132.87"/>
</g>
</g>
</svg>
