<?xml version="1.0" encoding="UTF-8" standalone="no"?>
<!DOCTYPE svg PUBLIC "-//W3C//DTD SVG 1.1//EN"
 "http://www.w3.org/Graphics/SVG/1.1/DTD/svg11.dtd">
<!-- Generated by graphviz version 15.0.0 (20260523.1842)
 -->
<!-- Title: dependency&#45;cruiser output Pages: 1 -->
<svg width="405pt" height="231pt"
 viewBox="0.00 0.00 405.00 231.00" xmlns="http://www.w3.org/2000/svg" xmlns:xlink="http://www.w3.org/1999/xlink">
<g id="graph0" class="graph" transform="scale(1 1) rotate(0) translate(4 227)">
<title>dependency&#45;cruiser output</title>
<polygon fill="#fbfbfd" stroke="none" points="-4,4 -4,-227 400.5,-227 400.5,4 -4,4"/>
<g id="clust1" class="cluster">
<title>cluster_lib</title>
<path fill="#ffffff" stroke="black" stroke-width="2" d="M20,-8C20,-8 270.25,-8 270.25,-8 276.25,-8 282.25,-14 282.25,-20 282.25,-20 282.25,-176 282.25,-176 282.25,-182 276.25,-188 270.25,-188 270.25,-188 20,-188 20,-188 14,-188 8,-182 8,-176 8,-176 8,-20 8,-20 8,-14 14,-8 20,-8"/>
<text xml:space="preserve" text-anchor="middle" x="145.12" y="-175.45" font-family="Helvetica,sans-Serif" font-weight="bold" font-size="9.00" fill="#374151">lib</text>
</g>
<g id="clust2" class="cluster">
<title>cluster_lib/ghostme</title>
<path fill="#ffffff" stroke="black" stroke-width="2" d="M28,-16C28,-16 262.25,-16 262.25,-16 268.25,-16 274.25,-22 274.25,-28 274.25,-28 274.25,-123 274.25,-123 274.25,-129 268.25,-135 262.25,-135 262.25,-135 28,-135 28,-135 22,-135 16,-129 16,-123 16,-123 16,-28 16,-28 16,-22 22,-16 28,-16"/>
<text xml:space="preserve" text-anchor="middle" x="145.12" y="-122.45" font-family="Helvetica,sans-Serif" font-weight="bold" font-size="9.00" fill="#374151">ghostme</text>
</g>
<g id="clust3" class="cluster">
<title>cluster_lib/ghostme/context</title>
<path fill="#ffffff" stroke="black" stroke-width="2" d="M173.5,-24C173.5,-24 254.25,-24 254.25,-24 260.25,-24 266.25,-30 266.25,-36 266.25,-36 266.25,-65 266.25,-65 266.25,-71 260.25,-77 254.25,-77 254.25,-77 173.5,-77 173.5,-77 167.5,-77 161.5,-71 161.5,-65 161.5,-65 161.5,-36 161.5,-36 161.5,-30 167.5,-24 173.5,-24"/>
<text xml:space="preserve" text-anchor="middle" x="213.88" y="-64.45" font-family="Helvetica,sans-Serif" font-weight="bold" font-size="9.00" fill="#374151">context</text>
</g>
<g id="clust4" class="cluster">
<title>cluster_lib/ghostme/goals</title>
<path fill="#ffffff" stroke="black" stroke-width="2" d="M36,-24C36,-24 141.5,-24 141.5,-24 147.5,-24 153.5,-30 153.5,-36 153.5,-36 153.5,-96 153.5,-96 153.5,-102 147.5,-108 141.5,-108 141.5,-108 36,-108 36,-108 30,-108 24,-102 24,-96 24,-96 24,-36 24,-36 24,-30 30,-24 36,-24"/>
<text xml:space="preserve" text-anchor="middle" x="88.75" y="-95.45" font-family="Helvetica,sans-Serif" font-weight="bold" font-size="9.00" fill="#374151">goals</text>
</g>
<g id="clust5" class="cluster">
<title>cluster_node_modules</title>
<path fill="#ffffff" stroke="black" stroke-width="2" d="M302.25,-127C302.25,-127 376.5,-127 376.5,-127 382.5,-127 388.5,-133 388.5,-139 388.5,-139 388.5,-203 388.5,-203 388.5,-209 382.5,-215 376.5,-215 376.5,-215 302.25,-215 302.25,-215 296.25,-215 290.25,-209 290.25,-203 290.25,-203 290.25,-139 290.25,-139 290.25,-133 296.25,-127 302.25,-127"/>
<text xml:space="preserve" text-anchor="middle" x="339.38" y="-202.45" font-family="Helvetica,sans-Serif" font-weight="bold" font-size="9.00" fill="#374151">node_modules</text>
</g>
<g id="clust6" class="cluster">
<title>cluster_node_modules/@supabase</title>
<path fill="#ffffff" stroke="black" stroke-width="2" d="M310.25,-135C310.25,-135 368.5,-135 368.5,-135 374.5,-135 380.5,-141 380.5,-147 380.5,-147 380.5,-176 380.5,-176 380.5,-182 374.5,-188 368.5,-188 368.5,-188 310.25,-188 310.25,-188 304.25,-188 298.25,-182 298.25,-176 298.25,-176 298.25,-147 298.25,-147 298.25,-141 304.25,-135 310.25,-135"/>
<text xml:space="preserve" text-anchor="middle" x="339.38" y="-175.45" font-family="Helvetica,sans-Serif" font-weight="bold" font-size="9.00" fill="#374151">@supabase</text>
</g>
<!-- lib/ghostme/context/temporalPriority.ts -->
<g id="node1" class="node">
<title>lib/ghostme/context/temporalPriority.ts</title>
<g id="a_node1"><a xlink:href="lib/ghostme/context/temporalPriority.ts" xlink:title="temporalPriority.ts">
<path fill="#ddfeff" stroke="#9ca3af" d="M252.08,-50.25C252.08,-50.25 175.67,-50.25 175.67,-50.25 172.58,-50.25 169.5,-47.17 169.5,-44.08 169.5,-44.08 169.5,-37.92 169.5,-37.92 169.5,-34.83 172.58,-31.75 175.67,-31.75 175.67,-31.75 252.08,-31.75 252.08,-31.75 255.17,-31.75 258.25,-34.83 258.25,-37.92 258.25,-37.92 258.25,-44.08 258.25,-44.08 258.25,-47.17 255.17,-50.25 252.08,-50.25"/>
<text xml:space="preserve" text-anchor="start" x="177.5" y="-38" font-family="Helvetica,sans-Serif" font-size="9.00" fill="#111827">temporalPriority.ts</text>
</a>
</g>
</g>
<!-- lib/ghostme/goals/goalsActionsLifecycle.ts -->
<g id="node2" class="node">
<title>lib/ghostme/goals/goalsActionsLifecycle.ts</title>
<g id="a_node2"><a xlink:href="lib/ghostme/goals/goalsActionsLifecycle.ts" xlink:title="goalsActionsLifecycle.ts">
<path fill="#ddfeff" stroke="#9ca3af" d="M139.33,-81.25C139.33,-81.25 38.17,-81.25 38.17,-81.25 35.08,-81.25 32,-78.17 32,-75.08 32,-75.08 32,-68.92 32,-68.92 32,-65.83 35.08,-62.75 38.17,-62.75 38.17,-62.75 139.33,-62.75 139.33,-62.75 142.42,-62.75 145.5,-65.83 145.5,-68.92 145.5,-68.92 145.5,-75.08 145.5,-75.08 145.5,-78.17 142.42,-81.25 139.33,-81.25"/>
<text xml:space="preserve" text-anchor="start" x="40" y="-69" font-family="Helvetica,sans-Serif" font-size="9.00" fill="#111827">goalsActionsLifecycle.ts</text>
</a>
</g>
</g>
<!-- lib/supabaseAdmin.ts -->
<g id="node3" class="node">
<title>lib/supabaseAdmin.ts</title>
<g id="a_node3"><a xlink:href="lib/supabaseAdmin.ts" xlink:title="supabaseAdmin.ts">
<path fill="#d1d5db" stroke="#4b5563" stroke-width="2" d="M253.58,-161.25C253.58,-161.25 174.17,-161.25 174.17,-161.25 171.08,-161.25 168,-158.17 168,-155.08 168,-155.08 168,-148.92 168,-148.92 168,-145.83 171.08,-142.75 174.17,-142.75 174.17,-142.75 253.58,-142.75 253.58,-142.75 256.67,-142.75 259.75,-145.83 259.75,-148.92 259.75,-148.92 259.75,-155.08 259.75,-155.08 259.75,-158.17 256.67,-161.25 253.58,-161.25"/>
<text xml:space="preserve" text-anchor="start" x="176" y="-149" font-family="Helvetica,sans-Serif" font-size="9.00" fill="#111827">supabaseAdmin.ts</text>
</a>
</g>
</g>
<!-- lib/ghostme/goals/goalsActionsLifecycle.ts&#45;&gt;lib/supabaseAdmin.ts -->
<g id="edge1" class="edge">
<title>lib/ghostme/goals/goalsActionsLifecycle.ts&#45;&gt;lib/supabaseAdmin.ts</title>
<path fill="none" stroke="#6b7280" stroke-width="2" stroke-opacity="0.400000" d="M104.36,-81.49C125.49,-95.22 164.78,-120.75 189.84,-137.03"/>
<polygon fill="#6b7280" fill-opacity="0.400000" stroke="#6b7280" stroke-width="2" stroke-opacity="0.400000" points="188.41,-138.61 194.58,-140.12 190.7,-135.09 188.41,-138.61"/>
</g>
<!-- node_modules/@supabase/supabase&#45;js -->
<g id="node5" class="node">
<title>node_modules/@supabase/supabase&#45;js</title>
<g id="a_node5"><a xlink:href="https://www.npmjs.com/package/@supabase/supabase-js" xlink:title="supabase&#45;js">
<polygon fill="#d1d5db" stroke="#4b5563" stroke-width="2" points="372.5,-161.25 308.31,-161.25 306.25,-159.19 306.25,-142.75 370.44,-142.75 372.5,-144.81 372.5,-161.25"/>
<polyline fill="none" stroke="#4b5563" stroke-width="2" points="370.44,-159.19 306.25,-159.19"/>
<polyline fill="none" stroke="#4b5563" stroke-width="2" points="370.44,-159.19 370.44,-142.75"/>
<polyline fill="none" stroke="#4b5563" stroke-width="2" points="370.44,-159.19 372.5,-161.25"/>
<text xml:space="preserve" text-anchor="start" x="314.25" y="-149" font-family="Helvetica,sans-Serif" font-size="9.00" fill="#111827">supabase&#45;js</text>
</a>
</g>
</g>
<!-- lib/supabaseAdmin.ts&#45;&gt;node_modules/@supabase/supabase&#45;js -->
<g id="edge4" class="edge">
<title>lib/supabaseAdmin.ts&#45;&gt;node_modules/@supabase/supabase&#45;js</title>
<path fill="none" stroke="#6b7280" stroke-opacity="0.400000" d="M260.51,-152C272.8,-152 286.01,-152 297.99,-152"/>
<polygon fill="#6b7280" fill-opacity="0.400000" stroke="#6b7280" stroke-opacity="0.400000" points="297.76,-154.1 303.76,-152 297.76,-149.9 297.76,-154.1"/>
</g>
<!-- lib/ghostme/goals/goalsSnapshot.ts -->
<g id="node4" class="node">
<title>lib/ghostme/goals/goalsSnapshot.ts</title>
<g id="a_node4"><a xlink:href="lib/ghostme/goals/goalsSnapshot.ts" xlink:title="goalsSnapshot.ts">
<path fill="#dbeafe" stroke="#60a5fa" d="M125.83,-50.25C125.83,-50.25 51.67,-50.25 51.67,-50.25 48.58,-50.25 45.5,-47.17 45.5,-44.08 45.5,-44.08 45.5,-37.92 45.5,-37.92 45.5,-34.83 48.58,-31.75 51.67,-31.75 51.67,-31.75 125.83,-31.75 125.83,-31.75 128.92,-31.75 132,-34.83 132,-37.92 132,-37.92 132,-44.08 132,-44.08 132,-47.17 128.92,-50.25 125.83,-50.25"/>
<text xml:space="preserve" text-anchor="start" x="53.5" y="-38" font-family="Helvetica,sans-Serif" font-size="9.00" fill="#111827">goalsSnapshot.ts</text>
</a>
</g>
</g>
<!-- lib/ghostme/goals/goalsSnapshot.ts&#45;&gt;lib/ghostme/context/temporalPriority.ts -->
<g id="edge2" class="edge">
<title>lib/ghostme/goals/goalsSnapshot.ts&#45;&gt;lib/ghostme/context/temporalPriority.ts</title>
<path fill="none" stroke="#6b7280" stroke-width="2" stroke-opacity="0.400000" d="M132.47,-41C141.52,-41 151.18,-41 160.54,-41"/>
<polygon fill="#6b7280" fill-opacity="0.400000" stroke="#6b7280" stroke-width="2" stroke-opacity="0.400000" points="160.37,-43.1 166.37,-41 160.37,-38.9 160.37,-43.1"/>
</g>
<!-- lib/ghostme/goals/goalsSnapshot.ts&#45;&gt;lib/supabaseAdmin.ts -->
<g id="edge3" class="edge">
<title>lib/ghostme/goals/goalsSnapshot.ts&#45;&gt;lib/supabaseAdmin.ts</title>
<path fill="none" stroke="#6b7280" stroke-width="2" stroke-opacity="0.400000" d="M132.47,-45.53C140.17,-47.97 147.61,-51.61 153.5,-57 161.49,-64.31 156.53,-70.39 161.5,-80 171.95,-100.21 187.52,-121.15 198.77,-135.2"/>
<polygon fill="#6b7280" fill-opacity="0.400000" stroke="#6b7280" stroke-width="2" stroke-opacity="0.400000" points="196.89,-136.21 202.3,-139.53 200.14,-133.55 196.89,-136.21"/>
</g>
</g>
</svg>
