<?xml version="1.0" encoding="UTF-8" standalone="no"?>
<!DOCTYPE svg PUBLIC "-//W3C//DTD SVG 1.1//EN"
 "http://www.w3.org/Graphics/SVG/1.1/DTD/svg11.dtd">
<!-- Generated by graphviz version 15.0.0 (20260523.1842)
 -->
<!-- Title: dependency&#45;cruiser output Pages: 1 -->
<svg width="392pt" height="178pt"
 viewBox="0.00 0.00 392.00 178.00" xmlns="http://www.w3.org/2000/svg" xmlns:xlink="http://www.w3.org/1999/xlink">
<g id="graph0" class="graph" transform="scale(1 1) rotate(0) translate(4 174)">
<title>dependency&#45;cruiser output</title>
<polygon fill="white" stroke="none" points="-4,4 -4,-174 387.5,-174 387.5,4 -4,4"/>
<g id="clust1" class="cluster">
<title>cluster_lib</title>
<path fill="#ffffff" stroke="black" stroke-width="2" d="M20,-8C20,-8 257.25,-8 257.25,-8 263.25,-8 269.25,-14 269.25,-20 269.25,-20 269.25,-150 269.25,-150 269.25,-156 263.25,-162 257.25,-162 257.25,-162 20,-162 20,-162 14,-162 8,-156 8,-150 8,-150 8,-20 8,-20 8,-14 14,-8 20,-8"/>
<text xml:space="preserve" text-anchor="middle" x="138.62" y="-149.45" font-family="Helvetica,sans-Serif" font-weight="bold" font-size="9.00">lib</text>
</g>
<g id="clust2" class="cluster">
<title>cluster_lib/ghostme</title>
<path fill="#ffffff" stroke="black" stroke-width="2" d="M28,-16C28,-16 149.5,-16 149.5,-16 155.5,-16 161.5,-22 161.5,-28 161.5,-28 161.5,-123 161.5,-123 161.5,-129 155.5,-135 149.5,-135 149.5,-135 28,-135 28,-135 22,-135 16,-129 16,-123 16,-123 16,-28 16,-28 16,-22 22,-16 28,-16"/>
<text xml:space="preserve" text-anchor="middle" x="88.75" y="-122.45" font-family="Helvetica,sans-Serif" font-weight="bold" font-size="9.00">ghostme</text>
</g>
<g id="clust3" class="cluster">
<title>cluster_lib/ghostme/goals</title>
<path fill="#ffffff" stroke="black" stroke-width="2" d="M36,-24C36,-24 141.5,-24 141.5,-24 147.5,-24 153.5,-30 153.5,-36 153.5,-36 153.5,-96 153.5,-96 153.5,-102 147.5,-108 141.5,-108 141.5,-108 36,-108 36,-108 30,-108 24,-102 24,-96 24,-96 24,-36 24,-36 24,-30 30,-24 36,-24"/>
<text xml:space="preserve" text-anchor="middle" x="88.75" y="-95.45" font-family="Helvetica,sans-Serif" font-weight="bold" font-size="9.00">goals</text>
</g>
<g id="clust4" class="cluster">
<title>cluster_node_modules</title>
<path fill="#ffffff" stroke="black" stroke-width="2" d="M289.25,-31C289.25,-31 363.5,-31 363.5,-31 369.5,-31 375.5,-37 375.5,-43 375.5,-43 375.5,-107 375.5,-107 375.5,-113 369.5,-119 363.5,-119 363.5,-119 289.25,-119 289.25,-119 283.25,-119 277.25,-113 277.25,-107 277.25,-107 277.25,-43 277.25,-43 277.25,-37 283.25,-31 289.25,-31"/>
<text xml:space="preserve" text-anchor="middle" x="326.38" y="-106.45" font-family="Helvetica,sans-Serif" font-weight="bold" font-size="9.00">node_modules</text>
</g>
<g id="clust5" class="cluster">
<title>cluster_node_modules/@supabase</title>
<path fill="#ffffff" stroke="black" stroke-width="2" d="M297.25,-39C297.25,-39 355.5,-39 355.5,-39 361.5,-39 367.5,-45 367.5,-51 367.5,-51 367.5,-80 367.5,-80 367.5,-86 361.5,-92 355.5,-92 355.5,-92 297.25,-92 297.25,-92 291.25,-92 285.25,-86 285.25,-80 285.25,-80 285.25,-51 285.25,-51 285.25,-45 291.25,-39 297.25,-39"/>
<text xml:space="preserve" text-anchor="middle" x="326.38" y="-79.45" font-family="Helvetica,sans-Serif" font-weight="bold" font-size="9.00">@supabase</text>
</g>
<!-- lib/ghostme/goals/goalsActionsLifecycle.ts -->
<g id="node1" class="node">
<title>lib/ghostme/goals/goalsActionsLifecycle.ts</title>
<g id="a_node1"><a xlink:href="lib/ghostme/goals/goalsActionsLifecycle.ts" xlink:title="goalsActionsLifecycle.ts">
<path fill="#ddfeff" stroke="black" d="M139.33,-50.25C139.33,-50.25 38.17,-50.25 38.17,-50.25 35.08,-50.25 32,-47.17 32,-44.08 32,-44.08 32,-37.92 32,-37.92 32,-34.83 35.08,-31.75 38.17,-31.75 38.17,-31.75 139.33,-31.75 139.33,-31.75 142.42,-31.75 145.5,-34.83 145.5,-37.92 145.5,-37.92 145.5,-44.08 145.5,-44.08 145.5,-47.17 142.42,-50.25 139.33,-50.25"/>
<text xml:space="preserve" text-anchor="start" x="40" y="-38" font-family="Helvetica,sans-Serif" font-size="9.00">goalsActionsLifecycle.ts</text>
</a>
</g>
</g>
<!-- lib/supabaseAdmin.ts -->
<g id="node2" class="node">
<title>lib/supabaseAdmin.ts</title>
<g id="a_node2"><a xlink:href="lib/supabaseAdmin.ts" xlink:title="supabaseAdmin.ts">
<path fill="#ddfeff" stroke="black" d="M255.08,-65.25C255.08,-65.25 175.67,-65.25 175.67,-65.25 172.58,-65.25 169.5,-62.17 169.5,-59.08 169.5,-59.08 169.5,-52.92 169.5,-52.92 169.5,-49.83 172.58,-46.75 175.67,-46.75 175.67,-46.75 255.08,-46.75 255.08,-46.75 258.17,-46.75 261.25,-49.83 261.25,-52.92 261.25,-52.92 261.25,-59.08 261.25,-59.08 261.25,-62.17 258.17,-65.25 255.08,-65.25"/>
<text xml:space="preserve" text-anchor="start" x="177.5" y="-53" font-family="Helvetica,sans-Serif" font-size="9.00">supabaseAdmin.ts</text>
</a>
</g>
</g>
<!-- lib/ghostme/goals/goalsActionsLifecycle.ts&#45;&gt;lib/supabaseAdmin.ts -->
<g id="edge1" class="edge">
<title>lib/ghostme/goals/goalsActionsLifecycle.ts&#45;&gt;lib/supabaseAdmin.ts</title>
<path fill="none" stroke="#000000" stroke-width="2" stroke-opacity="0.200000" d="M145.86,-47.75C150.59,-48.32 155.36,-48.9 160.07,-49.46"/>
<polygon fill="#000000" fill-opacity="0.200000" stroke="#000000" stroke-width="2" stroke-opacity="0.200000" points="159.81,-51.55 166.02,-50.18 160.31,-47.38 159.81,-51.55"/>
</g>
<!-- node_modules/@supabase/supabase&#45;js -->
<g id="node4" class="node">
<title>node_modules/@supabase/supabase&#45;js</title>
<g id="a_node4"><a xlink:href="https://www.npmjs.com/package/@supabase/supabase-js" xlink:title="supabase&#45;js">
<polygon fill="#c40b0a" fill-opacity="0.101961" stroke="black" points="359.5,-65.25 295.31,-65.25 293.25,-63.19 293.25,-46.75 357.44,-46.75 359.5,-48.81 359.5,-65.25"/>
<polyline fill="none" stroke="black" points="357.44,-63.19 293.25,-63.19"/>
<polyline fill="none" stroke="black" points="357.44,-63.19 357.44,-46.75"/>
<polyline fill="none" stroke="black" points="357.44,-63.19 359.5,-65.25"/>
<text xml:space="preserve" text-anchor="start" x="301.25" y="-53" font-family="Helvetica,sans-Serif" font-size="9.00" fill="#c40b0a">supabase&#45;js</text>
</a>
</g>
</g>
<!-- lib/supabaseAdmin.ts&#45;&gt;node_modules/@supabase/supabase&#45;js -->
<g id="edge3" class="edge">
<title>lib/supabaseAdmin.ts&#45;&gt;node_modules/@supabase/supabase&#45;js</title>
<path fill="none" stroke="#000000" stroke-opacity="0.200000" d="M261.65,-56C269.71,-56 278.05,-56 285.93,-56"/>
<polygon fill="#000000" fill-opacity="0.200000" stroke="#000000" stroke-opacity="0.200000" points="285.51,-58.1 291.51,-56 285.51,-53.9 285.51,-58.1"/>
</g>
<!-- lib/ghostme/goals/goalsSnapshot.ts -->
<g id="node3" class="node">
<title>lib/ghostme/goals/goalsSnapshot.ts</title>
<g id="a_node3"><a xlink:href="lib/ghostme/goals/goalsSnapshot.ts" xlink:title="goalsSnapshot.ts">
<path fill="#ddfeff" stroke="black" d="M125.83,-81.25C125.83,-81.25 51.67,-81.25 51.67,-81.25 48.58,-81.25 45.5,-78.17 45.5,-75.08 45.5,-75.08 45.5,-68.92 45.5,-68.92 45.5,-65.83 48.58,-62.75 51.67,-62.75 51.67,-62.75 125.83,-62.75 125.83,-62.75 128.92,-62.75 132,-65.83 132,-68.92 132,-68.92 132,-75.08 132,-75.08 132,-78.17 128.92,-81.25 125.83,-81.25"/>
<text xml:space="preserve" text-anchor="start" x="53.5" y="-69" font-family="Helvetica,sans-Serif" font-size="9.00">goalsSnapshot.ts</text>
</a>
</g>
</g>
<!-- lib/ghostme/goals/goalsSnapshot.ts&#45;&gt;lib/supabaseAdmin.ts -->
<g id="edge2" class="edge">
<title>lib/ghostme/goals/goalsSnapshot.ts&#45;&gt;lib/supabaseAdmin.ts</title>
<path fill="none" stroke="#000000" stroke-width="2" stroke-opacity="0.200000" d="M132.29,-66.54C141.27,-65.39 150.86,-64.15 160.2,-62.96"/>
<polygon fill="#000000" fill-opacity="0.200000" stroke="#000000" stroke-width="2" stroke-opacity="0.200000" points="160.36,-65.05 166.04,-62.21 159.83,-60.89 160.36,-65.05"/>
</g>
</g>
</svg>
