<?xml version="1.0" encoding="UTF-8" standalone="no"?>
<!DOCTYPE svg PUBLIC "-//W3C//DTD SVG 1.1//EN"
 "http://www.w3.org/Graphics/SVG/1.1/DTD/svg11.dtd">
<!-- Generated by graphviz version 15.0.0 (20260523.1842)
 -->
<!-- Title: dependency&#45;cruiser output Pages: 1 -->
<svg width="651pt" height="539pt"
 viewBox="0.00 0.00 651.00 539.00" xmlns="http://www.w3.org/2000/svg" xmlns:xlink="http://www.w3.org/1999/xlink">
<g id="graph0" class="graph" transform="scale(1 1) rotate(0) translate(4 535)">
<title>dependency&#45;cruiser output</title>
<polygon fill="#fbfbfd" stroke="none" points="-4,4 -4,-535 647.25,-535 647.25,4 -4,4"/>
<g id="clust1" class="cluster">
<title>cluster_lib</title>
<path fill="#ffffff" stroke="black" stroke-width="2" d="M20,-8C20,-8 517,-8 517,-8 523,-8 529,-14 529,-20 529,-20 529,-511 529,-511 529,-517 523,-523 517,-523 517,-523 20,-523 20,-523 14,-523 8,-517 8,-511 8,-511 8,-20 8,-20 8,-14 14,-8 20,-8"/>
<text xml:space="preserve" text-anchor="middle" x="268.5" y="-510.45" font-family="Helvetica,sans-Serif" font-weight="bold" font-size="9.00" fill="#374151">lib</text>
</g>
<g id="clust2" class="cluster">
<title>cluster_lib/ghostme</title>
<path fill="#ffffff" stroke="black" stroke-width="2" d="M28,-16C28,-16 509,-16 509,-16 515,-16 521,-22 521,-28 521,-28 521,-431 521,-431 521,-437 515,-443 509,-443 509,-443 28,-443 28,-443 22,-443 16,-437 16,-431 16,-431 16,-28 16,-28 16,-22 22,-16 28,-16"/>
<text xml:space="preserve" text-anchor="middle" x="268.5" y="-430.45" font-family="Helvetica,sans-Serif" font-weight="bold" font-size="9.00" fill="#374151">ghostme</text>
</g>
<g id="clust3" class="cluster">
<title>cluster_lib/ghostme/home</title>
<path fill="#ffffff" stroke="black" stroke-width="2" d="M237.12,-271C237.12,-271 339.62,-271 339.62,-271 345.62,-271 351.62,-277 351.62,-283 351.62,-283 351.62,-312 351.62,-312 351.62,-318 345.62,-324 339.62,-324 339.62,-324 237.12,-324 237.12,-324 231.12,-324 225.12,-318 225.12,-312 225.12,-312 225.12,-283 225.12,-283 225.12,-277 231.12,-271 237.12,-271"/>
<text xml:space="preserve" text-anchor="middle" x="288.38" y="-311.45" font-family="Helvetica,sans-Serif" font-weight="bold" font-size="9.00" fill="#374151">home</text>
</g>
<g id="clust4" class="cluster">
<title>cluster_lib/ghostme/homeAssistant</title>
<path fill="#ffffff" stroke="black" stroke-width="2" d="M36,-24C36,-24 495.38,-24 495.38,-24 501.38,-24 507.38,-30 507.38,-36 507.38,-36 507.38,-251 507.38,-251 507.38,-257 501.38,-263 495.38,-263 495.38,-263 36,-263 36,-263 30,-263 24,-257 24,-251 24,-251 24,-36 24,-36 24,-30 30,-24 36,-24"/>
<text xml:space="preserve" text-anchor="middle" x="265.69" y="-250.45" font-family="Helvetica,sans-Serif" font-weight="bold" font-size="9.00" fill="#374151">homeAssistant</text>
</g>
<g id="clust5" class="cluster">
<title>cluster_lib/ghostme/proactive</title>
<path fill="#ffffff" stroke="black" stroke-width="2" d="M227,-332C227,-332 501,-332 501,-332 507,-332 513,-338 513,-344 513,-344 513,-404 513,-404 513,-410 507,-416 501,-416 501,-416 227,-416 227,-416 221,-416 215,-410 215,-404 215,-404 215,-344 215,-344 215,-338 221,-332 227,-332"/>
<text xml:space="preserve" text-anchor="middle" x="364" y="-403.45" font-family="Helvetica,sans-Serif" font-weight="bold" font-size="9.00" fill="#374151">proactive</text>
</g>
<g id="clust6" class="cluster">
<title>cluster_node_modules</title>
<path fill="#ffffff" stroke="black" stroke-width="2" d="M549,-435C549,-435 623.25,-435 623.25,-435 629.25,-435 635.25,-441 635.25,-447 635.25,-447 635.25,-511 635.25,-511 635.25,-517 629.25,-523 623.25,-523 623.25,-523 549,-523 549,-523 543,-523 537,-517 537,-511 537,-511 537,-447 537,-447 537,-441 543,-435 549,-435"/>
<text xml:space="preserve" text-anchor="middle" x="586.12" y="-510.45" font-family="Helvetica,sans-Serif" font-weight="bold" font-size="9.00" fill="#374151">node_modules</text>
</g>
<g id="clust7" class="cluster">
<title>cluster_node_modules/@supabase</title>
<path fill="#ffffff" stroke="black" stroke-width="2" d="M557,-443C557,-443 615.25,-443 615.25,-443 621.25,-443 627.25,-449 627.25,-455 627.25,-455 627.25,-484 627.25,-484 627.25,-490 621.25,-496 615.25,-496 615.25,-496 557,-496 557,-496 551,-496 545,-490 545,-484 545,-484 545,-455 545,-455 545,-449 551,-443 557,-443"/>
<text xml:space="preserve" text-anchor="middle" x="586.12" y="-483.45" font-family="Helvetica,sans-Serif" font-weight="bold" font-size="9.00" fill="#374151">@supabase</text>
</g>
<!-- lib/ghostme/home/houseStateSnapshot.ts -->
<g id="node1" class="node">
<title>lib/ghostme/home/houseStateSnapshot.ts</title>
<g id="a_node1"><a xlink:href="lib/ghostme/home/houseStateSnapshot.ts" xlink:title="houseStateSnapshot.ts">
<path fill="#dbeafe" stroke="#60a5fa" d="M337.46,-297.25C337.46,-297.25 239.29,-297.25 239.29,-297.25 236.21,-297.25 233.12,-294.17 233.12,-291.08 233.12,-291.08 233.12,-284.92 233.12,-284.92 233.12,-281.83 236.21,-278.75 239.29,-278.75 239.29,-278.75 337.46,-278.75 337.46,-278.75 340.54,-278.75 343.62,-281.83 343.62,-284.92 343.62,-284.92 343.62,-291.08 343.62,-291.08 343.62,-294.17 340.54,-297.25 337.46,-297.25"/>
<text xml:space="preserve" text-anchor="start" x="241.12" y="-285" font-family="Helvetica,sans-Serif" font-size="9.00" fill="#111827">houseStateSnapshot.ts</text>
</a>
</g>
</g>
<!-- lib/ghostme/homeAssistant/haClient.ts -->
<g id="node2" class="node">
<title>lib/ghostme/homeAssistant/haClient.ts</title>
<g id="a_node2"><a xlink:href="lib/ghostme/homeAssistant/haClient.ts" xlink:title="haClient.ts">
<path fill="#ddfeff" stroke="#9ca3af" d="M462.08,-112.25C462.08,-112.25 414.92,-112.25 414.92,-112.25 411.83,-112.25 408.75,-109.17 408.75,-106.08 408.75,-106.08 408.75,-99.92 408.75,-99.92 408.75,-96.83 411.83,-93.75 414.92,-93.75 414.92,-93.75 462.08,-93.75 462.08,-93.75 465.17,-93.75 468.25,-96.83 468.25,-99.92 468.25,-99.92 468.25,-106.08 468.25,-106.08 468.25,-109.17 465.17,-112.25 462.08,-112.25"/>
<text xml:space="preserve" text-anchor="start" x="416.75" y="-100" font-family="Helvetica,sans-Serif" font-size="9.00" fill="#111827">haClient.ts</text>
</a>
</g>
</g>
<!-- lib/ghostme/home/houseStateSnapshot.ts&#45;&gt;lib/ghostme/homeAssistant/haClient.ts -->
<g id="edge1" class="edge">
<title>lib/ghostme/home/houseStateSnapshot.ts&#45;&gt;lib/ghostme/homeAssistant/haClient.ts</title>
<path fill="none" stroke="#6b7280" stroke-width="2" stroke-opacity="0.400000" d="M343.35,-278.32C349.34,-275.25 354.79,-271.24 359,-266 379.53,-240.43 350.63,-143.88 372,-119 378.97,-110.88 389.32,-106.52 399.73,-104.27"/>
<polygon fill="#6b7280" fill-opacity="0.400000" stroke="#6b7280" stroke-width="2" stroke-opacity="0.400000" points="399.87,-106.38 405.44,-103.33 399.18,-102.23 399.87,-106.38"/>
</g>
<!-- lib/ghostme/homeAssistant/homeAssistantAccess.ts -->
<g id="node3" class="node">
<title>lib/ghostme/homeAssistant/homeAssistantAccess.ts</title>
<g id="a_node3"><a xlink:href="lib/ghostme/homeAssistant/homeAssistantAccess.ts" xlink:title="homeAssistantAccess.ts">
<path fill="#ddfeff" stroke="#9ca3af" d="M339.33,-50.25C339.33,-50.25 237.42,-50.25 237.42,-50.25 234.33,-50.25 231.25,-47.17 231.25,-44.08 231.25,-44.08 231.25,-37.92 231.25,-37.92 231.25,-34.83 234.33,-31.75 237.42,-31.75 237.42,-31.75 339.33,-31.75 339.33,-31.75 342.42,-31.75 345.5,-34.83 345.5,-37.92 345.5,-37.92 345.5,-44.08 345.5,-44.08 345.5,-47.17 342.42,-50.25 339.33,-50.25"/>
<text xml:space="preserve" text-anchor="start" x="239.25" y="-38" font-family="Helvetica,sans-Serif" font-size="9.00" fill="#111827">homeAssistantAccess.ts</text>
</a>
</g>
</g>
<!-- lib/ghostme/home/houseStateSnapshot.ts&#45;&gt;lib/ghostme/homeAssistant/homeAssistantAccess.ts -->
<g id="edge2" class="edge">
<title>lib/ghostme/home/houseStateSnapshot.ts&#45;&gt;lib/ghostme/homeAssistant/homeAssistantAccess.ts</title>
<path fill="none" stroke="#6b7280" stroke-width="2" stroke-opacity="0.400000" d="M232.96,-281.57C222.6,-277.32 213.78,-270.59 209.88,-260 206.09,-249.73 206.09,-73.27 209.88,-63 212.39,-56.18 217.05,-51.22 222.9,-47.63"/>
<polygon fill="#6b7280" fill-opacity="0.400000" stroke="#6b7280" stroke-width="2" stroke-opacity="0.400000" points="223.65,-49.6 228.14,-45.11 221.82,-45.82 223.65,-49.6"/>
</g>
<!-- lib/ghostme/homeAssistant/homeEntityMapper.ts -->
<g id="node4" class="node">
<title>lib/ghostme/homeAssistant/homeEntityMapper.ts</title>
<g id="a_node4"><a xlink:href="lib/ghostme/homeAssistant/homeEntityMapper.ts" xlink:title="homeEntityMapper.ts">
<path fill="#ddfeff" stroke="#9ca3af" d="M483.08,-174.25C483.08,-174.25 393.92,-174.25 393.92,-174.25 390.83,-174.25 387.75,-171.17 387.75,-168.08 387.75,-168.08 387.75,-161.92 387.75,-161.92 387.75,-158.83 390.83,-155.75 393.92,-155.75 393.92,-155.75 483.08,-155.75 483.08,-155.75 486.17,-155.75 489.25,-158.83 489.25,-161.92 489.25,-161.92 489.25,-168.08 489.25,-168.08 489.25,-171.17 486.17,-174.25 483.08,-174.25"/>
<text xml:space="preserve" text-anchor="start" x="395.75" y="-162" font-family="Helvetica,sans-Serif" font-size="9.00" fill="#111827">homeEntityMapper.ts</text>
</a>
</g>
</g>
<!-- lib/ghostme/home/houseStateSnapshot.ts&#45;&gt;lib/ghostme/homeAssistant/homeEntityMapper.ts -->
<g id="edge3" class="edge">
<title>lib/ghostme/home/houseStateSnapshot.ts&#45;&gt;lib/ghostme/homeAssistant/homeEntityMapper.ts</title>
<path fill="none" stroke="#6b7280" stroke-width="2" stroke-opacity="0.400000" d="M333.97,-278.32C342.72,-275.24 351.51,-271.21 359,-266 390.84,-243.84 415.78,-204.89 428.41,-182.39"/>
<polygon fill="#6b7280" fill-opacity="0.400000" stroke="#6b7280" stroke-width="2" stroke-opacity="0.400000" points="430.16,-183.57 431.19,-177.3 426.47,-181.56 430.16,-183.57"/>
</g>
<!-- lib/supabaseAdmin.ts -->
<g id="node5" class="node">
<title>lib/supabaseAdmin.ts</title>
<g id="a_node5"><a xlink:href="lib/supabaseAdmin.ts" xlink:title="supabaseAdmin.ts">
<path fill="#d1d5db" stroke="#4b5563" stroke-width="2" d="M478.21,-469.25C478.21,-469.25 398.79,-469.25 398.79,-469.25 395.71,-469.25 392.62,-466.17 392.62,-463.08 392.62,-463.08 392.62,-456.92 392.62,-456.92 392.62,-453.83 395.71,-450.75 398.79,-450.75 398.79,-450.75 478.21,-450.75 478.21,-450.75 481.29,-450.75 484.38,-453.83 484.38,-456.92 484.38,-456.92 484.38,-463.08 484.38,-463.08 484.38,-466.17 481.29,-469.25 478.21,-469.25"/>
<text xml:space="preserve" text-anchor="start" x="400.62" y="-457" font-family="Helvetica,sans-Serif" font-size="9.00" fill="#111827">supabaseAdmin.ts</text>
</a>
</g>
</g>
<!-- lib/ghostme/home/houseStateSnapshot.ts&#45;&gt;lib/supabaseAdmin.ts -->
<g id="edge4" class="edge">
<title>lib/ghostme/home/houseStateSnapshot.ts&#45;&gt;lib/supabaseAdmin.ts</title>
<path fill="none" stroke="#6b7280" stroke-width="2" stroke-opacity="0.400000" d="M317.38,-297.63C332.13,-304.16 349.15,-314.32 359,-329 381.52,-362.56 349.94,-385.14 372,-419 379.44,-430.42 391.28,-439.23 402.87,-445.7"/>
<polygon fill="#6b7280" fill-opacity="0.400000" stroke="#6b7280" stroke-width="2" stroke-opacity="0.400000" points="401.81,-447.52 408.1,-448.42 403.75,-443.79 401.81,-447.52"/>
</g>
<!-- node_modules/@supabase/supabase&#45;js -->
<g id="node23" class="node">
<title>node_modules/@supabase/supabase&#45;js</title>
<g id="a_node23"><a xlink:href="https://www.npmjs.com/package/@supabase/supabase-js" xlink:title="supabase&#45;js">
<polygon fill="#d1d5db" stroke="#4b5563" stroke-width="2" points="619.25,-469.25 555.06,-469.25 553,-467.19 553,-450.75 617.19,-450.75 619.25,-452.81 619.25,-469.25"/>
<polyline fill="none" stroke="#4b5563" stroke-width="2" points="617.19,-467.19 553,-467.19"/>
<polyline fill="none" stroke="#4b5563" stroke-width="2" points="617.19,-467.19 617.19,-450.75"/>
<polyline fill="none" stroke="#4b5563" stroke-width="2" points="617.19,-467.19 619.25,-469.25"/>
<text xml:space="preserve" text-anchor="start" x="561" y="-457" font-family="Helvetica,sans-Serif" font-size="9.00" fill="#111827">supabase&#45;js</text>
</a>
</g>
</g>
<!-- lib/supabaseAdmin.ts&#45;&gt;node_modules/@supabase/supabase&#45;js -->
<g id="edge35" class="edge">
<title>lib/supabaseAdmin.ts&#45;&gt;node_modules/@supabase/supabase&#45;js</title>
<path fill="none" stroke="#6b7280" stroke-opacity="0.400000" d="M485.18,-460C504.32,-460 526.39,-460 544.91,-460"/>
<polygon fill="#6b7280" fill-opacity="0.400000" stroke="#6b7280" stroke-opacity="0.400000" points="544.57,-462.1 550.57,-460 544.57,-457.9 544.57,-462.1"/>
</g>
<!-- lib/ghostme/homeAssistant/cognitiveHouseBuilder.ts -->
<g id="node6" class="node">
<title>lib/ghostme/homeAssistant/cognitiveHouseBuilder.ts</title>
<g id="a_node6"><a xlink:href="lib/ghostme/homeAssistant/cognitiveHouseBuilder.ts" xlink:title="cognitiveHouseBuilder.ts">
<path fill="#ddfeff" stroke="#9ca3af" d="M340.83,-81.25C340.83,-81.25 235.92,-81.25 235.92,-81.25 232.83,-81.25 229.75,-78.17 229.75,-75.08 229.75,-75.08 229.75,-68.92 229.75,-68.92 229.75,-65.83 232.83,-62.75 235.92,-62.75 235.92,-62.75 340.83,-62.75 340.83,-62.75 343.92,-62.75 347,-65.83 347,-68.92 347,-68.92 347,-75.08 347,-75.08 347,-78.17 343.92,-81.25 340.83,-81.25"/>
<text xml:space="preserve" text-anchor="start" x="237.75" y="-69" font-family="Helvetica,sans-Serif" font-size="9.00" fill="#111827">cognitiveHouseBuilder.ts</text>
</a>
</g>
</g>
<!-- lib/ghostme/homeAssistant/cognitiveHouseBuilder.ts&#45;&gt;lib/ghostme/homeAssistant/haClient.ts -->
<g id="edge5" class="edge">
<title>lib/ghostme/homeAssistant/cognitiveHouseBuilder.ts&#45;&gt;lib/ghostme/homeAssistant/haClient.ts</title>
<path fill="none" stroke="#6b7280" stroke-width="2" stroke-opacity="0.400000" d="M335.84,-81.72C356.44,-86.04 380.36,-91.04 399.83,-95.12"/>
<polygon fill="#6b7280" fill-opacity="0.400000" stroke="#6b7280" stroke-width="2" stroke-opacity="0.400000" points="399.16,-97.12 405.47,-96.3 400.02,-93.01 399.16,-97.12"/>
</g>
<!-- lib/ghostme/homeAssistant/homeContextBuilder.ts -->
<g id="node7" class="node">
<title>lib/ghostme/homeAssistant/homeContextBuilder.ts</title>
<g id="a_node7"><a xlink:href="lib/ghostme/homeAssistant/homeContextBuilder.ts" xlink:title="homeContextBuilder.ts">
<path fill="#ddfeff" stroke="#9ca3af" d="M336.33,-112.25C336.33,-112.25 240.42,-112.25 240.42,-112.25 237.33,-112.25 234.25,-109.17 234.25,-106.08 234.25,-106.08 234.25,-99.92 234.25,-99.92 234.25,-96.83 237.33,-93.75 240.42,-93.75 240.42,-93.75 336.33,-93.75 336.33,-93.75 339.42,-93.75 342.5,-96.83 342.5,-99.92 342.5,-99.92 342.5,-106.08 342.5,-106.08 342.5,-109.17 339.42,-112.25 336.33,-112.25"/>
<text xml:space="preserve" text-anchor="start" x="242.25" y="-100" font-family="Helvetica,sans-Serif" font-size="9.00" fill="#111827">homeContextBuilder.ts</text>
</a>
</g>
</g>
<!-- lib/ghostme/homeAssistant/homeContextBuilder.ts&#45;&gt;lib/ghostme/homeAssistant/haClient.ts -->
<g id="edge6" class="edge">
<title>lib/ghostme/homeAssistant/homeContextBuilder.ts&#45;&gt;lib/ghostme/homeAssistant/haClient.ts</title>
<path fill="none" stroke="#6b7280" stroke-width="2" stroke-opacity="0.400000" d="M342.85,-103C361.76,-103 382.62,-103 399.93,-103"/>
<polygon fill="#6b7280" fill-opacity="0.400000" stroke="#6b7280" stroke-width="2" stroke-opacity="0.400000" points="399.61,-105.1 405.61,-103 399.61,-100.9 399.61,-105.1"/>
</g>
<!-- lib/ghostme/homeAssistant/homeEventLogger.ts -->
<g id="node8" class="node">
<title>lib/ghostme/homeAssistant/homeEventLogger.ts</title>
<g id="a_node8"><a xlink:href="lib/ghostme/homeAssistant/homeEventLogger.ts" xlink:title="homeEventLogger.ts">
<path fill="#ddfeff" stroke="#9ca3af" d="M332.21,-143.25C332.21,-143.25 244.54,-143.25 244.54,-143.25 241.46,-143.25 238.38,-140.17 238.38,-137.08 238.38,-137.08 238.38,-130.92 238.38,-130.92 238.38,-127.83 241.46,-124.75 244.54,-124.75 244.54,-124.75 332.21,-124.75 332.21,-124.75 335.29,-124.75 338.38,-127.83 338.38,-130.92 338.38,-130.92 338.38,-137.08 338.38,-137.08 338.38,-140.17 335.29,-143.25 332.21,-143.25"/>
<text xml:space="preserve" text-anchor="start" x="246.38" y="-131" font-family="Helvetica,sans-Serif" font-size="9.00" fill="#111827">homeEventLogger.ts</text>
</a>
</g>
</g>
<!-- lib/ghostme/homeAssistant/homeEventLogger.ts&#45;&gt;lib/ghostme/homeAssistant/haClient.ts -->
<g id="edge7" class="edge">
<title>lib/ghostme/homeAssistant/homeEventLogger.ts&#45;&gt;lib/ghostme/homeAssistant/haClient.ts</title>
<path fill="none" stroke="#6b7280" stroke-width="2" stroke-opacity="0.400000" d="M335.84,-124.28C356.44,-119.96 380.36,-114.96 399.83,-110.88"/>
<polygon fill="#6b7280" fill-opacity="0.400000" stroke="#6b7280" stroke-width="2" stroke-opacity="0.400000" points="400.02,-112.99 405.47,-109.7 399.16,-108.88 400.02,-112.99"/>
</g>
<!-- lib/ghostme/homeAssistant/homeEventLogger.ts&#45;&gt;lib/ghostme/homeAssistant/homeEntityMapper.ts -->
<g id="edge8" class="edge">
<title>lib/ghostme/homeAssistant/homeEventLogger.ts&#45;&gt;lib/ghostme/homeAssistant/homeEntityMapper.ts</title>
<path fill="none" stroke="#6b7280" stroke-width="2" stroke-opacity="0.400000" d="M335.84,-143.72C350.52,-146.8 366.89,-150.22 382.13,-153.41"/>
<polygon fill="#6b7280" fill-opacity="0.400000" stroke="#6b7280" stroke-width="2" stroke-opacity="0.400000" points="381.68,-155.46 387.99,-154.64 382.54,-151.35 381.68,-155.46"/>
</g>
<!-- lib/ghostme/homeAssistant/homeEventLogger.ts&#45;&gt;lib/supabaseAdmin.ts -->
<g id="edge10" class="edge">
<title>lib/ghostme/homeAssistant/homeEventLogger.ts&#45;&gt;lib/supabaseAdmin.ts</title>
<path fill="none" stroke="#6b7280" stroke-width="2" stroke-opacity="0.400000" d="M338.82,-136.98C346.58,-139.62 353.75,-143.72 359,-150 378.2,-172.95 356.88,-393.18 372,-419 378.78,-430.57 390.24,-439.35 401.71,-445.76"/>
<polygon fill="#6b7280" fill-opacity="0.400000" stroke="#6b7280" stroke-width="2" stroke-opacity="0.400000" points="400.6,-447.56 406.9,-448.44 402.53,-443.82 400.6,-447.56"/>
</g>
<!-- lib/ghostme/homeAssistant/homeEventSignificance.ts -->
<g id="node9" class="node">
<title>lib/ghostme/homeAssistant/homeEventSignificance.ts</title>
<g id="a_node9"><a xlink:href="lib/ghostme/homeAssistant/homeEventSignificance.ts" xlink:title="homeEventSignificance.ts">
<path fill="#ddfeff" stroke="#9ca3af" d="M493.21,-143.25C493.21,-143.25 383.79,-143.25 383.79,-143.25 380.71,-143.25 377.62,-140.17 377.62,-137.08 377.62,-137.08 377.62,-130.92 377.62,-130.92 377.62,-127.83 380.71,-124.75 383.79,-124.75 383.79,-124.75 493.21,-124.75 493.21,-124.75 496.29,-124.75 499.38,-127.83 499.38,-130.92 499.38,-130.92 499.38,-137.08 499.38,-137.08 499.38,-140.17 496.29,-143.25 493.21,-143.25"/>
<text xml:space="preserve" text-anchor="start" x="385.62" y="-131" font-family="Helvetica,sans-Serif" font-size="9.00" fill="#111827">homeEventSignificance.ts</text>
</a>
</g>
</g>
<!-- lib/ghostme/homeAssistant/homeEventLogger.ts&#45;&gt;lib/ghostme/homeAssistant/homeEventSignificance.ts -->
<g id="edge9" class="edge">
<title>lib/ghostme/homeAssistant/homeEventLogger.ts&#45;&gt;lib/ghostme/homeAssistant/homeEventSignificance.ts</title>
<path fill="none" stroke="#6b7280" stroke-width="2" stroke-opacity="0.400000" d="M338.7,-134C348.27,-134 358.46,-134 368.52,-134"/>
<polygon fill="#6b7280" fill-opacity="0.400000" stroke="#6b7280" stroke-width="2" stroke-opacity="0.400000" points="368.29,-136.1 374.29,-134 368.29,-131.9 368.29,-136.1"/>
</g>
<!-- lib/ghostme/homeAssistant/homeReasoningBuilder.ts -->
<g id="node10" class="node">
<title>lib/ghostme/homeAssistant/homeReasoningBuilder.ts</title>
<g id="a_node10"><a xlink:href="lib/ghostme/homeAssistant/homeReasoningBuilder.ts" xlink:title="homeReasoningBuilder.ts">
<path fill="#ddfeff" stroke="#9ca3af" d="M173.08,-50.25C173.08,-50.25 63.67,-50.25 63.67,-50.25 60.58,-50.25 57.5,-47.17 57.5,-44.08 57.5,-44.08 57.5,-37.92 57.5,-37.92 57.5,-34.83 60.58,-31.75 63.67,-31.75 63.67,-31.75 173.08,-31.75 173.08,-31.75 176.17,-31.75 179.25,-34.83 179.25,-37.92 179.25,-37.92 179.25,-44.08 179.25,-44.08 179.25,-47.17 176.17,-50.25 173.08,-50.25"/>
<text xml:space="preserve" text-anchor="start" x="65.5" y="-38" font-family="Helvetica,sans-Serif" font-size="9.00" fill="#111827">homeReasoningBuilder.ts</text>
</a>
</g>
</g>
<!-- lib/ghostme/homeAssistant/homeReasoningBuilder.ts&#45;&gt;lib/ghostme/home/houseStateSnapshot.ts -->
<g id="edge11" class="edge">
<title>lib/ghostme/homeAssistant/homeReasoningBuilder.ts&#45;&gt;lib/ghostme/home/houseStateSnapshot.ts</title>
<path fill="none" stroke="#6b7280" stroke-width="2" stroke-opacity="0.400000" d="M179.41,-41.84C189.1,-44.66 198.11,-49.39 204.75,-57 220.03,-74.52 200.7,-247.67 215,-266 217.85,-269.66 221.3,-272.73 225.12,-275.3"/>
<polygon fill="#6b7280" fill-opacity="0.400000" stroke="#6b7280" stroke-width="2" stroke-opacity="0.400000" points="223.97,-277.06 230.23,-278.17 226.03,-273.4 223.97,-277.06"/>
</g>
<!-- lib/ghostme/homeAssistant/homeReasoningBuilder.ts&#45;&gt;lib/ghostme/homeAssistant/homeAssistantAccess.ts -->
<g id="edge12" class="edge">
<title>lib/ghostme/homeAssistant/homeReasoningBuilder.ts&#45;&gt;lib/ghostme/homeAssistant/homeAssistantAccess.ts</title>
<path fill="none" stroke="#6b7280" stroke-width="2" stroke-opacity="0.400000" d="M179.55,-41C193.43,-41 208.26,-41 222.33,-41"/>
<polygon fill="#6b7280" fill-opacity="0.400000" stroke="#6b7280" stroke-width="2" stroke-opacity="0.400000" points="221.96,-43.1 227.96,-41 221.96,-38.9 221.96,-43.1"/>
</g>
<!-- lib/ghostme/homeAssistant/houseAutomationContext.ts -->
<g id="node11" class="node">
<title>lib/ghostme/homeAssistant/houseAutomationContext.ts</title>
<g id="a_node11"><a xlink:href="lib/ghostme/homeAssistant/houseAutomationContext.ts" xlink:title="houseAutomationContext.ts">
<path fill="#ddfeff" stroke="#9ca3af" d="M176.46,-205.25C176.46,-205.25 60.29,-205.25 60.29,-205.25 57.21,-205.25 54.12,-202.17 54.12,-199.08 54.12,-199.08 54.12,-192.92 54.12,-192.92 54.12,-189.83 57.21,-186.75 60.29,-186.75 60.29,-186.75 176.46,-186.75 176.46,-186.75 179.54,-186.75 182.62,-189.83 182.62,-192.92 182.62,-192.92 182.62,-199.08 182.62,-199.08 182.62,-202.17 179.54,-205.25 176.46,-205.25"/>
<text xml:space="preserve" text-anchor="start" x="62.12" y="-193" font-family="Helvetica,sans-Serif" font-size="9.00" fill="#111827">houseAutomationContext.ts</text>
</a>
</g>
</g>
<!-- lib/ghostme/homeAssistant/houseAutomationContext.ts&#45;&gt;lib/supabaseAdmin.ts -->
<g id="edge13" class="edge">
<title>lib/ghostme/homeAssistant/houseAutomationContext.ts&#45;&gt;lib/supabaseAdmin.ts</title>
<path fill="none" stroke="#6b7280" stroke-width="2" stroke-opacity="0.400000" d="M182.9,-197.88C191.26,-200.79 198.93,-205.27 204.75,-212 223.58,-233.79 194.24,-451.04 215,-471 238.21,-493.31 325.3,-481.95 383.39,-471.28"/>
<polygon fill="#6b7280" fill-opacity="0.400000" stroke="#6b7280" stroke-width="2" stroke-opacity="0.400000" points="383.61,-473.38 389.12,-470.21 382.84,-469.25 383.61,-473.38"/>
</g>
<!-- lib/ghostme/homeAssistant/houseAutomationControlPlanner.ts -->
<g id="node12" class="node">
<title>lib/ghostme/homeAssistant/houseAutomationControlPlanner.ts</title>
<g id="a_node12"><a xlink:href="lib/ghostme/homeAssistant/houseAutomationControlPlanner.ts" xlink:title="houseAutomationControlPlanner.ts">
<path fill="#ddfeff" stroke="#9ca3af" d="M191.46,-143.25C191.46,-143.25 45.29,-143.25 45.29,-143.25 42.21,-143.25 39.12,-140.17 39.12,-137.08 39.12,-137.08 39.12,-130.92 39.12,-130.92 39.12,-127.83 42.21,-124.75 45.29,-124.75 45.29,-124.75 191.46,-124.75 191.46,-124.75 194.54,-124.75 197.62,-127.83 197.62,-130.92 197.62,-130.92 197.62,-137.08 197.62,-137.08 197.62,-140.17 194.54,-143.25 191.46,-143.25"/>
<text xml:space="preserve" text-anchor="start" x="47.12" y="-131" font-family="Helvetica,sans-Serif" font-size="9.00" fill="#111827">houseAutomationControlPlanner.ts</text>
</a>
</g>
</g>
<!-- lib/ghostme/homeAssistant/houseAutomationControlPlanner.ts&#45;&gt;lib/ghostme/home/houseStateSnapshot.ts -->
<g id="edge14" class="edge">
<title>lib/ghostme/homeAssistant/houseAutomationControlPlanner.ts&#45;&gt;lib/ghostme/home/houseStateSnapshot.ts</title>
<path fill="none" stroke="#6b7280" stroke-width="2" stroke-opacity="0.400000" d="M197.38,-143.51C200.04,-145.39 202.52,-147.54 204.75,-150 222.14,-169.17 198.69,-245.91 215,-266 217.88,-269.54 221.3,-272.53 225.08,-275.04"/>
<polygon fill="#6b7280" fill-opacity="0.400000" stroke="#6b7280" stroke-width="2" stroke-opacity="0.400000" points="223.82,-276.74 230.08,-277.84 225.87,-273.08 223.82,-276.74"/>
</g>
<!-- lib/ghostme/homeAssistant/houseAutomationControlPlanner.ts&#45;&gt;lib/supabaseAdmin.ts -->
<g id="edge16" class="edge">
<title>lib/ghostme/homeAssistant/houseAutomationControlPlanner.ts&#45;&gt;lib/supabaseAdmin.ts</title>
<path fill="none" stroke="#6b7280" stroke-width="2" stroke-opacity="0.400000" d="M197.9,-143.62C200.38,-145.48 202.69,-147.6 204.75,-150 225.99,-174.7 192.45,-419.5 215,-443 220.76,-449 318.85,-454.6 382.85,-457.63"/>
<polygon fill="#6b7280" fill-opacity="0.400000" stroke="#6b7280" stroke-width="2" stroke-opacity="0.400000" points="382.53,-459.72 388.62,-457.9 382.73,-455.53 382.53,-459.72"/>
</g>
<!-- lib/ghostme/proactive/proactiveMessageService.ts -->
<g id="node13" class="node">
<title>lib/ghostme/proactive/proactiveMessageService.ts</title>
<g id="a_node13"><a xlink:href="lib/ghostme/proactive/proactiveMessageService.ts" xlink:title="proactiveMessageService.ts">
<path fill="#fef3c7" stroke="#f59e0b" d="M347.58,-358.25C347.58,-358.25 229.17,-358.25 229.17,-358.25 226.08,-358.25 223,-355.17 223,-352.08 223,-352.08 223,-345.92 223,-345.92 223,-342.83 226.08,-339.75 229.17,-339.75 229.17,-339.75 347.58,-339.75 347.58,-339.75 350.67,-339.75 353.75,-342.83 353.75,-345.92 353.75,-345.92 353.75,-352.08 353.75,-352.08 353.75,-355.17 350.67,-358.25 347.58,-358.25"/>
<text xml:space="preserve" text-anchor="start" x="231" y="-346" font-family="Helvetica,sans-Serif" font-size="9.00" fill="#111827">proactiveMessageService.ts</text>
</a>
</g>
</g>
<!-- lib/ghostme/homeAssistant/houseAutomationControlPlanner.ts&#45;&gt;lib/ghostme/proactive/proactiveMessageService.ts -->
<g id="edge15" class="edge">
<title>lib/ghostme/homeAssistant/houseAutomationControlPlanner.ts&#45;&gt;lib/ghostme/proactive/proactiveMessageService.ts</title>
<path fill="none" stroke="#6b7280" stroke-width="2" stroke-opacity="0.400000" d="M197.83,-143.68C200.33,-145.53 202.66,-147.62 204.75,-150 230.78,-179.58 190.63,-296.04 215,-327 217.33,-329.96 220.05,-332.53 223.03,-334.77"/>
<polygon fill="#6b7280" fill-opacity="0.400000" stroke="#6b7280" stroke-width="2" stroke-opacity="0.400000" points="221.67,-336.4 227.87,-337.79 223.9,-332.83 221.67,-336.4"/>
</g>
<!-- lib/ghostme/proactive/proactiveMessageService.ts&#45;&gt;lib/supabaseAdmin.ts -->
<g id="edge34" class="edge">
<title>lib/ghostme/proactive/proactiveMessageService.ts&#45;&gt;lib/supabaseAdmin.ts</title>
<path fill="none" stroke="#6b7280" stroke-width="2" stroke-opacity="0.400000" d="M354.18,-358.05C355.88,-359.24 357.49,-360.55 359,-362 377.73,-380.01 356.95,-397.82 372,-419 380.02,-430.28 392.22,-439.13 403.92,-445.68"/>
<polygon fill="#6b7280" fill-opacity="0.400000" stroke="#6b7280" stroke-width="2" stroke-opacity="0.400000" points="402.91,-447.52 409.2,-448.44 404.86,-443.8 402.91,-447.52"/>
</g>
<!-- lib/ghostme/proactive/proactiveCardLifecycle.ts -->
<g id="node21" class="node">
<title>lib/ghostme/proactive/proactiveCardLifecycle.ts</title>
<g id="a_node21"><a xlink:href="lib/ghostme/proactive/proactiveCardLifecycle.ts" xlink:title="proactiveCardLifecycle.ts">
<path fill="#ddfeff" stroke="#9ca3af" d="M491.71,-358.25C491.71,-358.25 385.29,-358.25 385.29,-358.25 382.21,-358.25 379.12,-355.17 379.12,-352.08 379.12,-352.08 379.12,-345.92 379.12,-345.92 379.12,-342.83 382.21,-339.75 385.29,-339.75 385.29,-339.75 491.71,-339.75 491.71,-339.75 494.79,-339.75 497.88,-342.83 497.88,-345.92 497.88,-345.92 497.88,-352.08 497.88,-352.08 497.88,-355.17 494.79,-358.25 491.71,-358.25"/>
<text xml:space="preserve" text-anchor="start" x="387.12" y="-346" font-family="Helvetica,sans-Serif" font-size="9.00" fill="#111827">proactiveCardLifecycle.ts</text>
</a>
</g>
</g>
<!-- lib/ghostme/proactive/proactiveMessageService.ts&#45;&gt;lib/ghostme/proactive/proactiveCardLifecycle.ts -->
<g id="edge32" class="edge">
<title>lib/ghostme/proactive/proactiveMessageService.ts&#45;&gt;lib/ghostme/proactive/proactiveCardLifecycle.ts</title>
<path fill="none" stroke="#6b7280" stroke-width="2" stroke-opacity="0.400000" d="M353.91,-349C359.21,-349 364.57,-349 369.88,-349"/>
<polygon fill="#6b7280" fill-opacity="0.400000" stroke="#6b7280" stroke-width="2" stroke-opacity="0.400000" points="369.74,-351.1 375.74,-349 369.74,-346.9 369.74,-351.1"/>
</g>
<!-- lib/ghostme/proactive/proactiveMessageDedupe.ts -->
<g id="node22" class="node">
<title>lib/ghostme/proactive/proactiveMessageDedupe.ts</title>
<g id="a_node22"><a xlink:href="lib/ghostme/proactive/proactiveMessageDedupe.ts" xlink:title="proactiveMessageDedupe.ts">
<path fill="#ddfeff" stroke="#9ca3af" d="M498.83,-389.25C498.83,-389.25 378.17,-389.25 378.17,-389.25 375.08,-389.25 372,-386.17 372,-383.08 372,-383.08 372,-376.92 372,-376.92 372,-373.83 375.08,-370.75 378.17,-370.75 378.17,-370.75 498.83,-370.75 498.83,-370.75 501.92,-370.75 505,-373.83 505,-376.92 505,-376.92 505,-383.08 505,-383.08 505,-386.17 501.92,-389.25 498.83,-389.25"/>
<text xml:space="preserve" text-anchor="start" x="380" y="-377" font-family="Helvetica,sans-Serif" font-size="9.00" fill="#111827">proactiveMessageDedupe.ts</text>
</a>
</g>
</g>
<!-- lib/ghostme/proactive/proactiveMessageService.ts&#45;&gt;lib/ghostme/proactive/proactiveMessageDedupe.ts -->
<g id="edge33" class="edge">
<title>lib/ghostme/proactive/proactiveMessageService.ts&#45;&gt;lib/ghostme/proactive/proactiveMessageDedupe.ts</title>
<path fill="none" stroke="#6b7280" stroke-width="2" stroke-opacity="0.400000" d="M342.64,-358.71C348.17,-359.79 353.7,-360.9 359,-362 368.43,-363.96 378.48,-366.17 388.12,-368.35"/>
<polygon fill="#6b7280" fill-opacity="0.400000" stroke="#6b7280" stroke-width="2" stroke-opacity="0.400000" points="387.56,-370.38 393.87,-369.67 388.49,-366.28 387.56,-370.38"/>
</g>
<!-- lib/ghostme/homeAssistant/houseAutomationSuggestionEngine.ts -->
<g id="node14" class="node">
<title>lib/ghostme/homeAssistant/houseAutomationSuggestionEngine.ts</title>
<g id="a_node14"><a xlink:href="lib/ghostme/homeAssistant/houseAutomationSuggestionEngine.ts" xlink:title="houseAutomationSuggestionEngine.ts">
<path fill="#dcfce7" stroke="#4ade80" d="M198.58,-174.25C198.58,-174.25 38.17,-174.25 38.17,-174.25 35.08,-174.25 32,-171.17 32,-168.08 32,-168.08 32,-161.92 32,-161.92 32,-158.83 35.08,-155.75 38.17,-155.75 38.17,-155.75 198.58,-155.75 198.58,-155.75 201.67,-155.75 204.75,-158.83 204.75,-161.92 204.75,-161.92 204.75,-168.08 204.75,-168.08 204.75,-171.17 201.67,-174.25 198.58,-174.25"/>
<text xml:space="preserve" text-anchor="start" x="40" y="-162" font-family="Helvetica,sans-Serif" font-size="9.00" fill="#111827">houseAutomationSuggestionEngine.ts</text>
</a>
</g>
</g>
<!-- lib/ghostme/homeAssistant/houseAutomationSuggestionEngine.ts&#45;&gt;lib/supabaseAdmin.ts -->
<g id="edge18" class="edge">
<title>lib/ghostme/homeAssistant/houseAutomationSuggestionEngine.ts&#45;&gt;lib/supabaseAdmin.ts</title>
<path fill="none" stroke="#6b7280" stroke-width="2" stroke-opacity="0.400000" d="M197.89,-174.63C200.38,-176.49 202.68,-178.6 204.75,-181 224.78,-204.25 193.05,-435.56 215,-457 226.74,-468.46 320.89,-466.03 382.9,-463.1"/>
<polygon fill="#6b7280" fill-opacity="0.400000" stroke="#6b7280" stroke-width="2" stroke-opacity="0.400000" points="382.89,-465.2 388.78,-462.81 382.69,-461.01 382.89,-465.2"/>
</g>
<!-- lib/ghostme/homeAssistant/houseAutomationSuggestionEngine.ts&#45;&gt;lib/ghostme/proactive/proactiveMessageService.ts -->
<g id="edge17" class="edge">
<title>lib/ghostme/homeAssistant/houseAutomationSuggestionEngine.ts&#45;&gt;lib/ghostme/proactive/proactiveMessageService.ts</title>
<path fill="none" stroke="#6b7280" stroke-width="2" stroke-opacity="0.400000" d="M197.8,-174.72C200.31,-176.55 202.64,-178.64 204.75,-181 226.39,-205.28 194.73,-301.57 215,-327 217.35,-329.95 220.08,-332.51 223.08,-334.74"/>
<polygon fill="#6b7280" fill-opacity="0.400000" stroke="#6b7280" stroke-width="2" stroke-opacity="0.400000" points="221.73,-336.37 227.93,-337.75 223.94,-332.8 221.73,-336.37"/>
</g>
<!-- lib/ghostme/homeAssistant/houseEntityRegistry.ts -->
<g id="node15" class="node">
<title>lib/ghostme/homeAssistant/houseEntityRegistry.ts</title>
<g id="a_node15"><a xlink:href="lib/ghostme/homeAssistant/houseEntityRegistry.ts" xlink:title="houseEntityRegistry.ts">
<path fill="#ddfeff" stroke="#9ca3af" d="M335.21,-174.25C335.21,-174.25 241.54,-174.25 241.54,-174.25 238.46,-174.25 235.38,-171.17 235.38,-168.08 235.38,-168.08 235.38,-161.92 235.38,-161.92 235.38,-158.83 238.46,-155.75 241.54,-155.75 241.54,-155.75 335.21,-155.75 335.21,-155.75 338.29,-155.75 341.38,-158.83 341.38,-161.92 341.38,-161.92 341.38,-168.08 341.38,-168.08 341.38,-171.17 338.29,-174.25 335.21,-174.25"/>
<text xml:space="preserve" text-anchor="start" x="243.38" y="-162" font-family="Helvetica,sans-Serif" font-size="9.00" fill="#111827">houseEntityRegistry.ts</text>
</a>
</g>
</g>
<!-- lib/ghostme/homeAssistant/houseEntityRegistry.ts&#45;&gt;lib/ghostme/homeAssistant/haClient.ts -->
<g id="edge19" class="edge">
<title>lib/ghostme/homeAssistant/houseEntityRegistry.ts&#45;&gt;lib/ghostme/homeAssistant/haClient.ts</title>
<path fill="none" stroke="#6b7280" stroke-width="2" stroke-opacity="0.400000" d="M341.75,-158.7C348,-156.35 353.95,-153.2 359,-149 370.17,-139.71 360.89,-128.37 372,-119 379.82,-112.4 389.93,-108.45 399.87,-106.09"/>
<polygon fill="#6b7280" fill-opacity="0.400000" stroke="#6b7280" stroke-width="2" stroke-opacity="0.400000" points="400.03,-108.2 405.51,-104.99 399.22,-104.08 400.03,-108.2"/>
</g>
<!-- lib/ghostme/homeAssistant/houseEntityRegistry.ts&#45;&gt;lib/ghostme/homeAssistant/homeEntityMapper.ts -->
<g id="edge20" class="edge">
<title>lib/ghostme/homeAssistant/houseEntityRegistry.ts&#45;&gt;lib/ghostme/homeAssistant/homeEntityMapper.ts</title>
<path fill="none" stroke="#6b7280" stroke-width="2" stroke-opacity="0.400000" d="M341.6,-165C353.66,-165 366.58,-165 378.89,-165"/>
<polygon fill="#6b7280" fill-opacity="0.400000" stroke="#6b7280" stroke-width="2" stroke-opacity="0.400000" points="378.71,-167.1 384.71,-165 378.71,-162.9 378.71,-167.1"/>
</g>
<!-- lib/ghostme/homeAssistant/houseEntityRegistry.ts&#45;&gt;lib/supabaseAdmin.ts -->
<g id="edge21" class="edge">
<title>lib/ghostme/homeAssistant/houseEntityRegistry.ts&#45;&gt;lib/supabaseAdmin.ts</title>
<path fill="none" stroke="#6b7280" stroke-width="2" stroke-opacity="0.400000" d="M341.58,-169.03C348.26,-171.67 354.37,-175.5 359,-181 393.11,-221.52 345.08,-373.38 372,-419 378.81,-430.55 390.29,-439.33 401.75,-445.74"/>
<polygon fill="#6b7280" fill-opacity="0.400000" stroke="#6b7280" stroke-width="2" stroke-opacity="0.400000" points="400.64,-447.53 406.93,-448.42 402.57,-443.8 400.64,-447.53"/>
</g>
<!-- lib/ghostme/homeAssistant/houseLearnedRulesContext.ts -->
<g id="node16" class="node">
<title>lib/ghostme/homeAssistant/houseLearnedRulesContext.ts</title>
<g id="a_node16"><a xlink:href="lib/ghostme/homeAssistant/houseLearnedRulesContext.ts" xlink:title="houseLearnedRulesContext.ts">
<path fill="#ddfeff" stroke="#9ca3af" d="M182.46,-236.25C182.46,-236.25 54.29,-236.25 54.29,-236.25 51.21,-236.25 48.12,-233.17 48.12,-230.08 48.12,-230.08 48.12,-223.92 48.12,-223.92 48.12,-220.83 51.21,-217.75 54.29,-217.75 54.29,-217.75 182.46,-217.75 182.46,-217.75 185.54,-217.75 188.62,-220.83 188.62,-223.92 188.62,-223.92 188.62,-230.08 188.62,-230.08 188.62,-233.17 185.54,-236.25 182.46,-236.25"/>
<text xml:space="preserve" text-anchor="start" x="56.12" y="-224" font-family="Helvetica,sans-Serif" font-size="9.00" fill="#111827">houseLearnedRulesContext.ts</text>
</a>
</g>
</g>
<!-- lib/ghostme/homeAssistant/houseLearnedRulesContext.ts&#45;&gt;lib/supabaseAdmin.ts -->
<g id="edge22" class="edge">
<title>lib/ghostme/homeAssistant/houseLearnedRulesContext.ts&#45;&gt;lib/supabaseAdmin.ts</title>
<path fill="none" stroke="#6b7280" stroke-width="2" stroke-opacity="0.400000" d="M119.38,-236.5C120,-275.56 128.15,-424.57 215,-485 274.2,-526.19 364.47,-494.54 409.67,-474"/>
<polygon fill="#6b7280" fill-opacity="0.400000" stroke="#6b7280" stroke-width="2" stroke-opacity="0.400000" points="410.54,-475.91 415.08,-471.47 408.76,-472.11 410.54,-475.91"/>
</g>
<!-- lib/ghostme/homeAssistant/houseLightLearningFlow.ts -->
<g id="node17" class="node">
<title>lib/ghostme/homeAssistant/houseLightLearningFlow.ts</title>
<g id="a_node17"><a xlink:href="lib/ghostme/homeAssistant/houseLightLearningFlow.ts" xlink:title="houseLightLearningFlow.ts">
<path fill="#ede9fe" stroke="#8b5cf6" d="M175.33,-112.25C175.33,-112.25 61.42,-112.25 61.42,-112.25 58.33,-112.25 55.25,-109.17 55.25,-106.08 55.25,-106.08 55.25,-99.92 55.25,-99.92 55.25,-96.83 58.33,-93.75 61.42,-93.75 61.42,-93.75 175.33,-93.75 175.33,-93.75 178.42,-93.75 181.5,-96.83 181.5,-99.92 181.5,-99.92 181.5,-106.08 181.5,-106.08 181.5,-109.17 178.42,-112.25 175.33,-112.25"/>
<text xml:space="preserve" text-anchor="start" x="63.25" y="-100" font-family="Helvetica,sans-Serif" font-size="9.00" fill="#111827">houseLightLearningFlow.ts</text>
</a>
</g>
</g>
<!-- lib/ghostme/homeAssistant/houseLightLearningFlow.ts&#45;&gt;lib/supabaseAdmin.ts -->
<g id="edge25" class="edge">
<title>lib/ghostme/homeAssistant/houseLightLearningFlow.ts&#45;&gt;lib/supabaseAdmin.ts</title>
<path fill="none" stroke="#6b7280" stroke-width="2" stroke-opacity="0.400000" d="M181.66,-104.42C190.51,-107.31 198.66,-111.91 204.75,-119 227.2,-145.15 191.51,-403.78 215,-429 236.93,-452.54 327.2,-439.11 359,-444 366.87,-445.21 375.16,-446.68 383.27,-448.23"/>
<polygon fill="#6b7280" fill-opacity="0.400000" stroke="#6b7280" stroke-width="2" stroke-opacity="0.400000" points="382.71,-450.26 389,-449.36 383.52,-446.14 382.71,-450.26"/>
</g>
<!-- lib/ghostme/homeAssistant/housePatternEngine.ts -->
<g id="node18" class="node">
<title>lib/ghostme/homeAssistant/housePatternEngine.ts</title>
<g id="a_node18"><a xlink:href="lib/ghostme/homeAssistant/housePatternEngine.ts" xlink:title="housePatternEngine.ts">
<path fill="#dcfce7" stroke="#4ade80" d="M336.71,-205.25C336.71,-205.25 240.04,-205.25 240.04,-205.25 236.96,-205.25 233.88,-202.17 233.88,-199.08 233.88,-199.08 233.88,-192.92 233.88,-192.92 233.88,-189.83 236.96,-186.75 240.04,-186.75 240.04,-186.75 336.71,-186.75 336.71,-186.75 339.79,-186.75 342.88,-189.83 342.88,-192.92 342.88,-192.92 342.88,-199.08 342.88,-199.08 342.88,-202.17 339.79,-205.25 336.71,-205.25"/>
<text xml:space="preserve" text-anchor="start" x="241.88" y="-193" font-family="Helvetica,sans-Serif" font-size="9.00" fill="#111827">housePatternEngine.ts</text>
</a>
</g>
</g>
<!-- lib/ghostme/homeAssistant/houseLightLearningFlow.ts&#45;&gt;lib/ghostme/homeAssistant/housePatternEngine.ts -->
<g id="edge23" class="edge">
<title>lib/ghostme/homeAssistant/houseLightLearningFlow.ts&#45;&gt;lib/ghostme/homeAssistant/housePatternEngine.ts</title>
<path fill="none" stroke="#6b7280" stroke-width="2" stroke-opacity="0.400000" d="M181.73,-105.42C190.36,-108.23 198.41,-112.54 204.75,-119 224.01,-138.62 196.06,-160.07 215,-180 218.13,-183.3 221.78,-185.99 225.74,-188.18"/>
<polygon fill="#6b7280" fill-opacity="0.400000" stroke="#6b7280" stroke-width="2" stroke-opacity="0.400000" points="224.6,-189.97 230.93,-190.55 226.34,-186.15 224.6,-189.97"/>
</g>
<!-- lib/ghostme/homeAssistant/houseRouteLearningEngine.ts -->
<g id="node19" class="node">
<title>lib/ghostme/homeAssistant/houseRouteLearningEngine.ts</title>
<g id="a_node19"><a xlink:href="lib/ghostme/homeAssistant/houseRouteLearningEngine.ts" xlink:title="houseRouteLearningEngine.ts">
<path fill="#dcfce7" stroke="#4ade80" d="M352.83,-236.25C352.83,-236.25 223.92,-236.25 223.92,-236.25 220.83,-236.25 217.75,-233.17 217.75,-230.08 217.75,-230.08 217.75,-223.92 217.75,-223.92 217.75,-220.83 220.83,-217.75 223.92,-217.75 223.92,-217.75 352.83,-217.75 352.83,-217.75 355.92,-217.75 359,-220.83 359,-223.92 359,-223.92 359,-230.08 359,-230.08 359,-233.17 355.92,-236.25 352.83,-236.25"/>
<text xml:space="preserve" text-anchor="start" x="225.75" y="-224" font-family="Helvetica,sans-Serif" font-size="9.00" fill="#111827">houseRouteLearningEngine.ts</text>
</a>
</g>
</g>
<!-- lib/ghostme/homeAssistant/houseLightLearningFlow.ts&#45;&gt;lib/ghostme/homeAssistant/houseRouteLearningEngine.ts -->
<g id="edge24" class="edge">
<title>lib/ghostme/homeAssistant/houseLightLearningFlow.ts&#45;&gt;lib/ghostme/homeAssistant/houseRouteLearningEngine.ts</title>
<path fill="none" stroke="#6b7280" stroke-width="2" stroke-opacity="0.400000" d="M181.62,-104.97C190.37,-107.82 198.49,-112.26 204.75,-119 232.74,-149.15 187.5,-180.4 215,-211 215.13,-211.15 215.27,-211.3 215.41,-211.44"/>
<polygon fill="#6b7280" fill-opacity="0.400000" stroke="#6b7280" stroke-width="2" stroke-opacity="0.400000" points="213.97,-212.98 219.89,-215.3 216.71,-209.8 213.97,-212.98"/>
</g>
<!-- lib/ghostme/homeAssistant/housePatternEngine.ts&#45;&gt;lib/supabaseAdmin.ts -->
<g id="edge26" class="edge">
<title>lib/ghostme/homeAssistant/housePatternEngine.ts&#45;&gt;lib/supabaseAdmin.ts</title>
<path fill="none" stroke="#6b7280" stroke-width="2" stroke-opacity="0.400000" d="M343.26,-200.77C349.27,-203.37 354.75,-206.99 359,-212 388.83,-247.14 348.42,-379.4 372,-419 378.86,-430.52 390.35,-439.29 401.8,-445.71"/>
<polygon fill="#6b7280" fill-opacity="0.400000" stroke="#6b7280" stroke-width="2" stroke-opacity="0.400000" points="400.69,-447.5 406.98,-448.39 402.62,-443.77 400.69,-447.5"/>
</g>
<!-- lib/ghostme/homeAssistant/houseRouteLearningEngine.ts&#45;&gt;lib/supabaseAdmin.ts -->
<g id="edge27" class="edge">
<title>lib/ghostme/homeAssistant/houseRouteLearningEngine.ts&#45;&gt;lib/supabaseAdmin.ts</title>
<path fill="none" stroke="#6b7280" stroke-width="2" stroke-opacity="0.400000" d="M318.42,-236.72C333.1,-243.2 349.73,-253.28 359,-268 394.91,-324.99 336.87,-361.53 372,-419 379.05,-430.53 390.7,-439.34 402.23,-445.78"/>
<polygon fill="#6b7280" fill-opacity="0.400000" stroke="#6b7280" stroke-width="2" stroke-opacity="0.400000" points="401.15,-447.58 407.45,-448.47 403.08,-443.85 401.15,-447.58"/>
</g>
<!-- lib/ghostme/homeAssistant/houseSuggestionEngine.ts -->
<g id="node20" class="node">
<title>lib/ghostme/homeAssistant/houseSuggestionEngine.ts</title>
<g id="a_node20"><a xlink:href="lib/ghostme/homeAssistant/houseSuggestionEngine.ts" xlink:title="houseSuggestionEngine.ts">
<path fill="#dcfce7" stroke="#4ade80" d="M175.33,-81.25C175.33,-81.25 61.42,-81.25 61.42,-81.25 58.33,-81.25 55.25,-78.17 55.25,-75.08 55.25,-75.08 55.25,-68.92 55.25,-68.92 55.25,-65.83 58.33,-62.75 61.42,-62.75 61.42,-62.75 175.33,-62.75 175.33,-62.75 178.42,-62.75 181.5,-65.83 181.5,-68.92 181.5,-68.92 181.5,-75.08 181.5,-75.08 181.5,-78.17 178.42,-81.25 175.33,-81.25"/>
<text xml:space="preserve" text-anchor="start" x="63.25" y="-69" font-family="Helvetica,sans-Serif" font-size="9.00" fill="#111827">houseSuggestionEngine.ts</text>
</a>
</g>
</g>
<!-- lib/ghostme/homeAssistant/houseSuggestionEngine.ts&#45;&gt;lib/supabaseAdmin.ts -->
<g id="edge31" class="edge">
<title>lib/ghostme/homeAssistant/houseSuggestionEngine.ts&#45;&gt;lib/supabaseAdmin.ts</title>
<path fill="none" stroke="#6b7280" stroke-width="2" stroke-opacity="0.400000" d="M181.67,-73.41C190.52,-76.3 198.67,-80.9 204.75,-88 228.69,-115.95 189.58,-392.4 215,-419 226.09,-430.6 343.34,-426.49 359,-430 375.66,-433.74 393.49,-440.33 407.95,-446.38"/>
<polygon fill="#6b7280" fill-opacity="0.400000" stroke="#6b7280" stroke-width="2" stroke-opacity="0.400000" points="406.91,-448.22 413.25,-448.66 408.57,-444.36 406.91,-448.22"/>
</g>
<!-- lib/ghostme/homeAssistant/houseSuggestionEngine.ts&#45;&gt;lib/ghostme/homeAssistant/cognitiveHouseBuilder.ts -->
<g id="edge28" class="edge">
<title>lib/ghostme/homeAssistant/houseSuggestionEngine.ts&#45;&gt;lib/ghostme/homeAssistant/cognitiveHouseBuilder.ts</title>
<path fill="none" stroke="#6b7280" stroke-width="2" stroke-opacity="0.400000" d="M181.93,-72C194.59,-72 207.94,-72 220.74,-72"/>
<polygon fill="#6b7280" fill-opacity="0.400000" stroke="#6b7280" stroke-width="2" stroke-opacity="0.400000" points="220.46,-74.1 226.46,-72 220.46,-69.9 220.46,-74.1"/>
</g>
<!-- lib/ghostme/homeAssistant/houseSuggestionEngine.ts&#45;&gt;lib/ghostme/proactive/proactiveMessageService.ts -->
<g id="edge30" class="edge">
<title>lib/ghostme/homeAssistant/houseSuggestionEngine.ts&#45;&gt;lib/ghostme/proactive/proactiveMessageService.ts</title>
<path fill="none" stroke="#6b7280" stroke-width="2" stroke-opacity="0.400000" d="M181.6,-73.47C190.46,-76.35 198.63,-80.94 204.75,-88 222.16,-108.08 198.72,-305.99 215,-327 217.26,-329.92 219.9,-332.46 222.81,-334.68"/>
<polygon fill="#6b7280" fill-opacity="0.400000" stroke="#6b7280" stroke-width="2" stroke-opacity="0.400000" points="221.28,-336.19 227.46,-337.65 223.53,-332.65 221.28,-336.19"/>
</g>
<!-- lib/ghostme/homeAssistant/houseSuggestionEngine.ts&#45;&gt;lib/ghostme/homeAssistant/housePatternEngine.ts -->
<g id="edge29" class="edge">
<title>lib/ghostme/homeAssistant/houseSuggestionEngine.ts&#45;&gt;lib/ghostme/homeAssistant/housePatternEngine.ts</title>
<path fill="none" stroke="#6b7280" stroke-width="2" stroke-opacity="0.400000" d="M181.62,-73.97C190.37,-76.82 198.49,-81.26 204.75,-88 232.74,-118.15 187.5,-149.4 215,-180 218.04,-183.38 221.62,-186.14 225.53,-188.37"/>
<polygon fill="#6b7280" fill-opacity="0.400000" stroke="#6b7280" stroke-width="2" stroke-opacity="0.400000" points="224.35,-190.13 230.67,-190.77 226.13,-186.33 224.35,-190.13"/>
</g>
</g>
</svg>
