<?xml version="1.0" encoding="UTF-8" standalone="no"?>
<!DOCTYPE svg PUBLIC "-//W3C//DTD SVG 1.1//EN"
 "http://www.w3.org/Graphics/SVG/1.1/DTD/svg11.dtd">
<!-- Generated by graphviz version 15.0.0 (20260523.1842)
 -->
<!-- Title: dependency&#45;cruiser output Pages: 1 -->
<svg width="671pt" height="319pt"
 viewBox="0.00 0.00 671.00 319.00" xmlns="http://www.w3.org/2000/svg" xmlns:xlink="http://www.w3.org/1999/xlink">
<g id="graph0" class="graph" transform="scale(1 1) rotate(0) translate(4 315)">
<title>dependency&#45;cruiser output</title>
<polygon fill="#fbfbfd" stroke="none" points="-4,4 -4,-315 666.75,-315 666.75,4 -4,4"/>
<g id="clust1" class="cluster">
<title>cluster_lib</title>
<path fill="#ffffff" stroke="black" stroke-width="2" d="M20,-8C20,-8 536.5,-8 536.5,-8 542.5,-8 548.5,-14 548.5,-20 548.5,-20 548.5,-284 548.5,-284 548.5,-290 542.5,-296 536.5,-296 536.5,-296 20,-296 20,-296 14,-296 8,-290 8,-284 8,-284 8,-20 8,-20 8,-14 14,-8 20,-8"/>
<text xml:space="preserve" text-anchor="middle" x="278.25" y="-283.45" font-family="Helvetica,sans-Serif" font-weight="bold" font-size="9.00" fill="#374151">lib</text>
</g>
<g id="clust2" class="cluster">
<title>cluster_lib/ghostme</title>
<path fill="#ffffff" stroke="black" stroke-width="2" d="M28,-16C28,-16 428.75,-16 428.75,-16 434.75,-16 440.75,-22 440.75,-28 440.75,-28 440.75,-246 440.75,-246 440.75,-252 434.75,-258 428.75,-258 428.75,-258 28,-258 28,-258 22,-258 16,-252 16,-246 16,-246 16,-28 16,-28 16,-22 22,-16 28,-16"/>
<text xml:space="preserve" text-anchor="middle" x="228.38" y="-245.45" font-family="Helvetica,sans-Serif" font-weight="bold" font-size="9.00" fill="#374151">ghostme</text>
</g>
<g id="clust3" class="cluster">
<title>cluster_lib/ghostme/context</title>
<path fill="#ffffff" stroke="black" stroke-width="2" d="M197,-39C197,-39 277.75,-39 277.75,-39 283.75,-39 289.75,-45 289.75,-51 289.75,-51 289.75,-80 289.75,-80 289.75,-86 283.75,-92 277.75,-92 277.75,-92 197,-92 197,-92 191,-92 185,-86 185,-80 185,-80 185,-51 185,-51 185,-45 191,-39 197,-39"/>
<text xml:space="preserve" text-anchor="middle" x="237.38" y="-79.45" font-family="Helvetica,sans-Serif" font-weight="bold" font-size="9.00" fill="#374151">context</text>
</g>
<g id="clust4" class="cluster">
<title>cluster_lib/ghostme/memory</title>
<path fill="#ffffff" stroke="black" stroke-width="2" d="M55.5,-24C55.5,-24 153.5,-24 153.5,-24 159.5,-24 165.5,-30 165.5,-36 165.5,-36 165.5,-96 165.5,-96 165.5,-102 159.5,-108 153.5,-108 153.5,-108 55.5,-108 55.5,-108 49.5,-108 43.5,-102 43.5,-96 43.5,-96 43.5,-36 43.5,-36 43.5,-30 49.5,-24 55.5,-24"/>
<text xml:space="preserve" text-anchor="middle" x="104.5" y="-95.45" font-family="Helvetica,sans-Serif" font-weight="bold" font-size="9.00" fill="#374151">memory</text>
</g>
<g id="clust5" class="cluster">
<title>cluster_lib/ghostme/people</title>
<path fill="#ffffff" stroke="black" stroke-width="2" d="M36,-116C36,-116 420.75,-116 420.75,-116 426.75,-116 432.75,-122 432.75,-128 432.75,-128 432.75,-219 432.75,-219 432.75,-225 426.75,-231 420.75,-231 420.75,-231 36,-231 36,-231 30,-231 24,-225 24,-219 24,-219 24,-128 24,-128 24,-122 30,-116 36,-116"/>
<text xml:space="preserve" text-anchor="middle" x="228.38" y="-218.45" font-family="Helvetica,sans-Serif" font-weight="bold" font-size="9.00" fill="#374151">people</text>
</g>
<g id="clust6" class="cluster">
<title>cluster_node_modules</title>
<path fill="#ffffff" stroke="black" stroke-width="2" d="M568.5,-215C568.5,-215 642.75,-215 642.75,-215 648.75,-215 654.75,-221 654.75,-227 654.75,-227 654.75,-291 654.75,-291 654.75,-297 648.75,-303 642.75,-303 642.75,-303 568.5,-303 568.5,-303 562.5,-303 556.5,-297 556.5,-291 556.5,-291 556.5,-227 556.5,-227 556.5,-221 562.5,-215 568.5,-215"/>
<text xml:space="preserve" text-anchor="middle" x="605.62" y="-290.45" font-family="Helvetica,sans-Serif" font-weight="bold" font-size="9.00" fill="#374151">node_modules</text>
</g>
<g id="clust7" class="cluster">
<title>cluster_node_modules/@supabase</title>
<path fill="#ffffff" stroke="black" stroke-width="2" d="M576.5,-223C576.5,-223 634.75,-223 634.75,-223 640.75,-223 646.75,-229 646.75,-235 646.75,-235 646.75,-264 646.75,-264 646.75,-270 640.75,-276 634.75,-276 634.75,-276 576.5,-276 576.5,-276 570.5,-276 564.5,-270 564.5,-264 564.5,-264 564.5,-235 564.5,-235 564.5,-229 570.5,-223 576.5,-223"/>
<text xml:space="preserve" text-anchor="middle" x="605.62" y="-263.45" font-family="Helvetica,sans-Serif" font-weight="bold" font-size="9.00" fill="#374151">@supabase</text>
</g>
<!-- lib/ghostme/context/temporalPriority.ts -->
<g id="node1" class="node">
<title>lib/ghostme/context/temporalPriority.ts</title>
<g id="a_node1"><a xlink:href="lib/ghostme/context/temporalPriority.ts" xlink:title="temporalPriority.ts">
<path fill="#ddfeff" stroke="#9ca3af" d="M275.58,-65.25C275.58,-65.25 199.17,-65.25 199.17,-65.25 196.08,-65.25 193,-62.17 193,-59.08 193,-59.08 193,-52.92 193,-52.92 193,-49.83 196.08,-46.75 199.17,-46.75 199.17,-46.75 275.58,-46.75 275.58,-46.75 278.67,-46.75 281.75,-49.83 281.75,-52.92 281.75,-52.92 281.75,-59.08 281.75,-59.08 281.75,-62.17 278.67,-65.25 275.58,-65.25"/>
<text xml:space="preserve" text-anchor="start" x="201" y="-53" font-family="Helvetica,sans-Serif" font-size="9.00" fill="#111827">temporalPriority.ts</text>
</a>
</g>
</g>
<!-- lib/ghostme/memory/memorySearchFlow.ts -->
<g id="node2" class="node">
<title>lib/ghostme/memory/memorySearchFlow.ts</title>
<g id="a_node2"><a xlink:href="lib/ghostme/memory/memorySearchFlow.ts" xlink:title="memorySearchFlow.ts">
<path fill="#ede9fe" stroke="#8b5cf6" d="M151.33,-50.25C151.33,-50.25 57.67,-50.25 57.67,-50.25 54.58,-50.25 51.5,-47.17 51.5,-44.08 51.5,-44.08 51.5,-37.92 51.5,-37.92 51.5,-34.83 54.58,-31.75 57.67,-31.75 57.67,-31.75 151.33,-31.75 151.33,-31.75 154.42,-31.75 157.5,-34.83 157.5,-37.92 157.5,-37.92 157.5,-44.08 157.5,-44.08 157.5,-47.17 154.42,-50.25 151.33,-50.25"/>
<text xml:space="preserve" text-anchor="start" x="59.5" y="-38" font-family="Helvetica,sans-Serif" font-size="9.00" fill="#111827">memorySearchFlow.ts</text>
</a>
</g>
</g>
<!-- lib/ghostme/memory/memorySearchFlow.ts&#45;&gt;lib/ghostme/context/temporalPriority.ts -->
<g id="edge1" class="edge">
<title>lib/ghostme/memory/memorySearchFlow.ts&#45;&gt;lib/ghostme/context/temporalPriority.ts</title>
<path fill="none" stroke="#6b7280" stroke-width="2" stroke-opacity="0.400000" d="M157.98,-47.01C166.53,-47.99 175.39,-49.01 183.94,-49.99"/>
<polygon fill="#6b7280" fill-opacity="0.400000" stroke="#6b7280" stroke-width="2" stroke-opacity="0.400000" points="183.5,-52.05 189.7,-50.65 183.98,-47.88 183.5,-52.05"/>
</g>
<!-- lib/supabaseAdmin.ts -->
<g id="node3" class="node">
<title>lib/supabaseAdmin.ts</title>
<g id="a_node3"><a xlink:href="lib/supabaseAdmin.ts" xlink:title="supabaseAdmin.ts">
<path fill="#d1d5db" stroke="#4b5563" stroke-width="2" d="M534.33,-249.25C534.33,-249.25 454.92,-249.25 454.92,-249.25 451.83,-249.25 448.75,-246.17 448.75,-243.08 448.75,-243.08 448.75,-236.92 448.75,-236.92 448.75,-233.83 451.83,-230.75 454.92,-230.75 454.92,-230.75 534.33,-230.75 534.33,-230.75 537.42,-230.75 540.5,-233.83 540.5,-236.92 540.5,-236.92 540.5,-243.08 540.5,-243.08 540.5,-246.17 537.42,-249.25 534.33,-249.25"/>
<text xml:space="preserve" text-anchor="start" x="456.75" y="-237" font-family="Helvetica,sans-Serif" font-size="9.00" fill="#111827">supabaseAdmin.ts</text>
</a>
</g>
</g>
<!-- lib/ghostme/memory/memorySearchFlow.ts&#45;&gt;lib/supabaseAdmin.ts -->
<g id="edge2" class="edge">
<title>lib/ghostme/memory/memorySearchFlow.ts&#45;&gt;lib/supabaseAdmin.ts</title>
<path fill="none" stroke="#6b7280" stroke-width="2" stroke-opacity="0.400000" d="M157.72,-44.23C165.12,-46.9 171.93,-50.96 177,-57 189.65,-72.08 170.9,-220.26 185,-234 193.92,-242.69 352.66,-241.92 438.91,-240.85"/>
<polygon fill="#6b7280" fill-opacity="0.400000" stroke="#6b7280" stroke-width="2" stroke-opacity="0.400000" points="438.78,-242.95 444.76,-240.78 438.73,-238.75 438.78,-242.95"/>
</g>
<!-- node_modules/@supabase/supabase&#45;js -->
<g id="node10" class="node">
<title>node_modules/@supabase/supabase&#45;js</title>
<g id="a_node10"><a xlink:href="https://www.npmjs.com/package/@supabase/supabase-js" xlink:title="supabase&#45;js">
<polygon fill="#d1d5db" stroke="#4b5563" stroke-width="2" points="638.75,-249.25 574.56,-249.25 572.5,-247.19 572.5,-230.75 636.69,-230.75 638.75,-232.81 638.75,-249.25"/>
<polyline fill="none" stroke="#4b5563" stroke-width="2" points="636.69,-247.19 572.5,-247.19"/>
<polyline fill="none" stroke="#4b5563" stroke-width="2" points="636.69,-247.19 636.69,-230.75"/>
<polyline fill="none" stroke="#4b5563" stroke-width="2" points="636.69,-247.19 638.75,-249.25"/>
<text xml:space="preserve" text-anchor="start" x="580.5" y="-237" font-family="Helvetica,sans-Serif" font-size="9.00" fill="#111827">supabase&#45;js</text>
</a>
</g>
</g>
<!-- lib/supabaseAdmin.ts&#45;&gt;node_modules/@supabase/supabase&#45;js -->
<g id="edge11" class="edge">
<title>lib/supabaseAdmin.ts&#45;&gt;node_modules/@supabase/supabase&#45;js</title>
<path fill="none" stroke="#6b7280" stroke-opacity="0.400000" d="M541.22,-240C548.92,-240 556.86,-240 564.41,-240"/>
<polygon fill="#6b7280" fill-opacity="0.400000" stroke="#6b7280" stroke-opacity="0.400000" points="564.3,-242.1 570.3,-240 564.3,-237.9 564.3,-242.1"/>
</g>
<!-- lib/ghostme/memory/memorySnapshot.ts -->
<g id="node4" class="node">
<title>lib/ghostme/memory/memorySnapshot.ts</title>
<g id="a_node4"><a xlink:href="lib/ghostme/memory/memorySnapshot.ts" xlink:title="memorySnapshot.ts">
<path fill="#dbeafe" stroke="#60a5fa" d="M146.83,-81.25C146.83,-81.25 62.17,-81.25 62.17,-81.25 59.08,-81.25 56,-78.17 56,-75.08 56,-75.08 56,-68.92 56,-68.92 56,-65.83 59.08,-62.75 62.17,-62.75 62.17,-62.75 146.83,-62.75 146.83,-62.75 149.92,-62.75 153,-65.83 153,-68.92 153,-68.92 153,-75.08 153,-75.08 153,-78.17 149.92,-81.25 146.83,-81.25"/>
<text xml:space="preserve" text-anchor="start" x="64" y="-69" font-family="Helvetica,sans-Serif" font-size="9.00" fill="#111827">memorySnapshot.ts</text>
</a>
</g>
</g>
<!-- lib/ghostme/memory/memorySnapshot.ts&#45;&gt;lib/ghostme/context/temporalPriority.ts -->
<g id="edge3" class="edge">
<title>lib/ghostme/memory/memorySnapshot.ts&#45;&gt;lib/ghostme/context/temporalPriority.ts</title>
<path fill="none" stroke="#6b7280" stroke-width="2" stroke-opacity="0.400000" d="M153.49,-66.13C163.42,-64.92 173.93,-63.63 184.01,-62.4"/>
<polygon fill="#6b7280" fill-opacity="0.400000" stroke="#6b7280" stroke-width="2" stroke-opacity="0.400000" points="184.02,-64.52 189.72,-61.7 183.51,-60.35 184.02,-64.52"/>
</g>
<!-- lib/ghostme/memory/memorySnapshot.ts&#45;&gt;lib/supabaseAdmin.ts -->
<g id="edge4" class="edge">
<title>lib/ghostme/memory/memorySnapshot.ts&#45;&gt;lib/supabaseAdmin.ts</title>
<path fill="none" stroke="#6b7280" stroke-width="2" stroke-opacity="0.400000" d="M136.19,-81.75C151.12,-88.16 167.79,-98.17 177,-113 184.69,-125.39 174.38,-234.01 185,-244 203,-260.94 355.4,-251.38 439.1,-244.72"/>
<polygon fill="#6b7280" fill-opacity="0.400000" stroke="#6b7280" stroke-width="2" stroke-opacity="0.400000" points="439.13,-246.83 444.95,-244.25 438.8,-242.64 439.13,-246.83"/>
</g>
<!-- lib/ghostme/people/peopleGraphLinkService.ts -->
<g id="node5" class="node">
<title>lib/ghostme/people/peopleGraphLinkService.ts</title>
<g id="a_node5"><a xlink:href="lib/ghostme/people/peopleGraphLinkService.ts" xlink:title="peopleGraphLinkService.ts">
<path fill="#fef3c7" stroke="#f59e0b" d="M418.58,-184.25C418.58,-184.25 303.92,-184.25 303.92,-184.25 300.83,-184.25 297.75,-181.17 297.75,-178.08 297.75,-178.08 297.75,-171.92 297.75,-171.92 297.75,-168.83 300.83,-165.75 303.92,-165.75 303.92,-165.75 418.58,-165.75 418.58,-165.75 421.67,-165.75 424.75,-168.83 424.75,-171.92 424.75,-171.92 424.75,-178.08 424.75,-178.08 424.75,-181.17 421.67,-184.25 418.58,-184.25"/>
<text xml:space="preserve" text-anchor="start" x="305.75" y="-172" font-family="Helvetica,sans-Serif" font-size="9.00" fill="#111827">peopleGraphLinkService.ts</text>
</a>
</g>
</g>
<!-- lib/ghostme/people/peopleGraphLinkService.ts&#45;&gt;lib/supabaseAdmin.ts -->
<g id="edge5" class="edge">
<title>lib/ghostme/people/peopleGraphLinkService.ts&#45;&gt;lib/supabaseAdmin.ts</title>
<path fill="none" stroke="#6b7280" stroke-width="2" stroke-opacity="0.400000" d="M425.08,-181.8C430.52,-183.45 435.82,-185.49 440.75,-188 457.1,-196.32 471.62,-211.48 481.29,-223.29"/>
<polygon fill="#6b7280" fill-opacity="0.400000" stroke="#6b7280" stroke-width="2" stroke-opacity="0.400000" points="479.43,-224.32 484.79,-227.74 482.73,-221.73 479.43,-224.32"/>
</g>
<!-- lib/ghostme/people/peopleGraphService.ts -->
<g id="node6" class="node">
<title>lib/ghostme/people/peopleGraphService.ts</title>
<g id="a_node6"><a xlink:href="lib/ghostme/people/peopleGraphService.ts" xlink:title="peopleGraphService.ts">
<path fill="#fef3c7" stroke="#f59e0b" d="M153.21,-142.25C153.21,-142.25 55.79,-142.25 55.79,-142.25 52.71,-142.25 49.62,-139.17 49.62,-136.08 49.62,-136.08 49.62,-129.92 49.62,-129.92 49.62,-126.83 52.71,-123.75 55.79,-123.75 55.79,-123.75 153.21,-123.75 153.21,-123.75 156.29,-123.75 159.38,-126.83 159.38,-129.92 159.38,-129.92 159.38,-136.08 159.38,-136.08 159.38,-139.17 156.29,-142.25 153.21,-142.25"/>
<text xml:space="preserve" text-anchor="start" x="57.62" y="-130" font-family="Helvetica,sans-Serif" font-size="9.00" fill="#111827">peopleGraphService.ts</text>
</a>
</g>
</g>
<!-- lib/ghostme/people/peopleGraphService.ts&#45;&gt;lib/supabaseAdmin.ts -->
<g id="edge8" class="edge">
<title>lib/ghostme/people/peopleGraphService.ts&#45;&gt;lib/supabaseAdmin.ts</title>
<path fill="none" stroke="#6b7280" stroke-width="2" stroke-opacity="0.400000" d="M159.71,-137.16C166.31,-139.81 172.35,-143.61 177,-149 192.87,-167.39 167.21,-241.47 185,-258 262.54,-330.06 403.78,-280.41 464.55,-253.81"/>
<polygon fill="#6b7280" fill-opacity="0.400000" stroke="#6b7280" stroke-width="2" stroke-opacity="0.400000" points="465.19,-255.82 469.81,-251.46 463.48,-251.99 465.19,-255.82"/>
</g>
<!-- lib/ghostme/people/peopleGraphService.ts&#45;&gt;lib/ghostme/people/peopleGraphLinkService.ts -->
<g id="edge6" class="edge">
<title>lib/ghostme/people/peopleGraphService.ts&#45;&gt;lib/ghostme/people/peopleGraphLinkService.ts</title>
<path fill="none" stroke="#6b7280" stroke-width="2" stroke-opacity="0.400000" d="M159.66,-140.01C196.45,-144.99 246.16,-152.18 289.75,-160 295.76,-161.08 302.04,-162.29 308.28,-163.55"/>
<polygon fill="#6b7280" fill-opacity="0.400000" stroke="#6b7280" stroke-width="2" stroke-opacity="0.400000" points="307.45,-165.52 313.75,-164.67 308.29,-161.41 307.45,-165.52"/>
</g>
<!-- lib/ghostme/people/peopleSnapshot.ts -->
<g id="node7" class="node">
<title>lib/ghostme/people/peopleSnapshot.ts</title>
<g id="a_node7"><a xlink:href="lib/ghostme/people/peopleSnapshot.ts" xlink:title="peopleSnapshot.ts">
<path fill="#dbeafe" stroke="#60a5fa" d="M277.46,-184.25C277.46,-184.25 197.29,-184.25 197.29,-184.25 194.21,-184.25 191.12,-181.17 191.12,-178.08 191.12,-178.08 191.12,-171.92 191.12,-171.92 191.12,-168.83 194.21,-165.75 197.29,-165.75 197.29,-165.75 277.46,-165.75 277.46,-165.75 280.54,-165.75 283.62,-168.83 283.62,-171.92 283.62,-171.92 283.62,-178.08 283.62,-178.08 283.62,-181.17 280.54,-184.25 277.46,-184.25"/>
<text xml:space="preserve" text-anchor="start" x="199.12" y="-172" font-family="Helvetica,sans-Serif" font-size="9.00" fill="#111827">peopleSnapshot.ts</text>
</a>
</g>
</g>
<!-- lib/ghostme/people/peopleGraphService.ts&#45;&gt;lib/ghostme/people/peopleSnapshot.ts -->
<g id="edge7" class="edge">
<title>lib/ghostme/people/peopleGraphService.ts&#45;&gt;lib/ghostme/people/peopleSnapshot.ts</title>
<path fill="none" stroke="#6b7280" stroke-width="2" stroke-opacity="0.400000" d="M154.69,-142.69C162.23,-144.56 169.87,-146.66 177,-149 187.69,-152.5 199.09,-157.24 209.02,-161.7"/>
<polygon fill="#6b7280" fill-opacity="0.400000" stroke="#6b7280" stroke-width="2" stroke-opacity="0.400000" points="207.88,-163.49 214.2,-164.09 209.63,-159.68 207.88,-163.49"/>
</g>
<!-- lib/ghostme/people/peopleSnapshot.ts&#45;&gt;lib/supabaseAdmin.ts -->
<g id="edge10" class="edge">
<title>lib/ghostme/people/peopleSnapshot.ts&#45;&gt;lib/supabaseAdmin.ts</title>
<path fill="none" stroke="#6b7280" stroke-width="2" stroke-opacity="0.400000" d="M276.81,-184.72C281.18,-185.82 285.56,-186.94 289.75,-188 342.96,-201.52 403.97,-217.09 445.28,-227.64"/>
<polygon fill="#6b7280" fill-opacity="0.400000" stroke="#6b7280" stroke-width="2" stroke-opacity="0.400000" points="444.52,-229.61 450.85,-229.07 445.56,-225.55 444.52,-229.61"/>
</g>
<!-- lib/ghostme/people/peopleSnapshot.ts&#45;&gt;lib/ghostme/people/peopleGraphLinkService.ts -->
<g id="edge9" class="edge">
<title>lib/ghostme/people/peopleSnapshot.ts&#45;&gt;lib/ghostme/people/peopleGraphLinkService.ts</title>
<path fill="none" stroke="#6b7280" stroke-width="2" stroke-opacity="0.400000" d="M284.1,-175C285.59,-175 287.09,-175 288.6,-175"/>
<polygon fill="#6b7280" fill-opacity="0.400000" stroke="#6b7280" stroke-width="2" stroke-opacity="0.400000" points="288.28,-177.1 294.28,-175 288.28,-172.9 288.28,-177.1"/>
</g>
<!-- lib/ghostme/people/relationshipMemorySnapshot.ts -->
<g id="node8" class="node">
<title>lib/ghostme/people/relationshipMemorySnapshot.ts</title>
<g id="a_node8"><a xlink:href="lib/ghostme/people/relationshipMemorySnapshot.ts" xlink:title="no&#45;orphans">
<path fill="#fee2e2" stroke="#ef4444" stroke-width="2.5" d="M170.83,-173.25C170.83,-173.25 38.17,-173.25 38.17,-173.25 35.08,-173.25 32,-170.17 32,-167.08 32,-167.08 32,-160.92 32,-160.92 32,-157.83 35.08,-154.75 38.17,-154.75 38.17,-154.75 170.83,-154.75 170.83,-154.75 173.92,-154.75 177,-157.83 177,-160.92 177,-160.92 177,-167.08 177,-167.08 177,-170.17 173.92,-173.25 170.83,-173.25"/>
<text xml:space="preserve" text-anchor="start" x="40" y="-161" font-family="Helvetica,sans-Serif" font-size="9.00" fill="#991b1b">relationshipMemorySnapshot.ts</text>
</a>
</g>
</g>
<!-- lib/ghostme/people/socialSuggestionSnapshot.ts -->
<g id="node9" class="node">
<title>lib/ghostme/people/socialSuggestionSnapshot.ts</title>
<g id="a_node9"><a xlink:href="lib/ghostme/people/socialSuggestionSnapshot.ts" xlink:title="no&#45;orphans">
<path fill="#fee2e2" stroke="#ef4444" stroke-width="2.5" d="M165.58,-204.25C165.58,-204.25 43.42,-204.25 43.42,-204.25 40.33,-204.25 37.25,-201.17 37.25,-198.08 37.25,-198.08 37.25,-191.92 37.25,-191.92 37.25,-188.83 40.33,-185.75 43.42,-185.75 43.42,-185.75 165.58,-185.75 165.58,-185.75 168.67,-185.75 171.75,-188.83 171.75,-191.92 171.75,-191.92 171.75,-198.08 171.75,-198.08 171.75,-201.17 168.67,-204.25 165.58,-204.25"/>
<text xml:space="preserve" text-anchor="start" x="45.25" y="-192" font-family="Helvetica,sans-Serif" font-size="9.00" fill="#991b1b">socialSuggestionSnapshot.ts</text>
</a>
</g>
</g>
</g>
</svg>
