<?xml version="1.0" encoding="UTF-8" standalone="no"?>
<!DOCTYPE svg PUBLIC "-//W3C//DTD SVG 1.1//EN"
 "http://www.w3.org/Graphics/SVG/1.1/DTD/svg11.dtd">
<!-- Generated by graphviz version 15.0.0 (20260523.1842)
 -->
<!-- Title: dependency&#45;cruiser output Pages: 1 -->
<svg width="669pt" height="209pt"
 viewBox="0.00 0.00 669.00 209.00" xmlns="http://www.w3.org/2000/svg" xmlns:xlink="http://www.w3.org/1999/xlink">
<g id="graph0" class="graph" transform="scale(1 1) rotate(0) translate(4 205)">
<title>dependency&#45;cruiser output</title>
<polygon fill="#fbfbfd" stroke="none" points="-4,4 -4,-205 664.5,-205 664.5,4 -4,4"/>
<g id="clust1" class="cluster">
<title>cluster_lib</title>
<path fill="#ffffff" stroke="black" stroke-width="2" d="M20,-8C20,-8 534.25,-8 534.25,-8 540.25,-8 546.25,-14 546.25,-20 546.25,-20 546.25,-181 546.25,-181 546.25,-187 540.25,-193 534.25,-193 534.25,-193 20,-193 20,-193 14,-193 8,-187 8,-181 8,-181 8,-20 8,-20 8,-14 14,-8 20,-8"/>
<text xml:space="preserve" text-anchor="middle" x="277.12" y="-180.45" font-family="Helvetica,sans-Serif" font-weight="bold" font-size="9.00" fill="#374151">lib</text>
</g>
<g id="clust2" class="cluster">
<title>cluster_lib/ghostme</title>
<path fill="#ffffff" stroke="black" stroke-width="2" d="M28,-16C28,-16 426.5,-16 426.5,-16 432.5,-16 438.5,-22 438.5,-28 438.5,-28 438.5,-154 438.5,-154 438.5,-160 432.5,-166 426.5,-166 426.5,-166 28,-166 28,-166 22,-166 16,-160 16,-154 16,-154 16,-28 16,-28 16,-22 22,-16 28,-16"/>
<text xml:space="preserve" text-anchor="middle" x="227.25" y="-153.45" font-family="Helvetica,sans-Serif" font-weight="bold" font-size="9.00" fill="#374151">ghostme</text>
</g>
<g id="clust3" class="cluster">
<title>cluster_lib/ghostme/people</title>
<path fill="#ffffff" stroke="black" stroke-width="2" d="M36,-24C36,-24 418.5,-24 418.5,-24 424.5,-24 430.5,-30 430.5,-36 430.5,-36 430.5,-127 430.5,-127 430.5,-133 424.5,-139 418.5,-139 418.5,-139 36,-139 36,-139 30,-139 24,-133 24,-127 24,-127 24,-36 24,-36 24,-30 30,-24 36,-24"/>
<text xml:space="preserve" text-anchor="middle" x="227.25" y="-126.45" font-family="Helvetica,sans-Serif" font-weight="bold" font-size="9.00" fill="#374151">people</text>
</g>
<g id="clust4" class="cluster">
<title>cluster_node_modules</title>
<path fill="#ffffff" stroke="black" stroke-width="2" d="M566.25,-38C566.25,-38 640.5,-38 640.5,-38 646.5,-38 652.5,-44 652.5,-50 652.5,-50 652.5,-114 652.5,-114 652.5,-120 646.5,-126 640.5,-126 640.5,-126 566.25,-126 566.25,-126 560.25,-126 554.25,-120 554.25,-114 554.25,-114 554.25,-50 554.25,-50 554.25,-44 560.25,-38 566.25,-38"/>
<text xml:space="preserve" text-anchor="middle" x="603.38" y="-113.45" font-family="Helvetica,sans-Serif" font-weight="bold" font-size="9.00" fill="#374151">node_modules</text>
</g>
<g id="clust5" class="cluster">
<title>cluster_node_modules/@supabase</title>
<path fill="#ffffff" stroke="black" stroke-width="2" d="M574.25,-46C574.25,-46 632.5,-46 632.5,-46 638.5,-46 644.5,-52 644.5,-58 644.5,-58 644.5,-87 644.5,-87 644.5,-93 638.5,-99 632.5,-99 632.5,-99 574.25,-99 574.25,-99 568.25,-99 562.25,-93 562.25,-87 562.25,-87 562.25,-58 562.25,-58 562.25,-52 568.25,-46 574.25,-46"/>
<text xml:space="preserve" text-anchor="middle" x="603.38" y="-86.45" font-family="Helvetica,sans-Serif" font-weight="bold" font-size="9.00" fill="#374151">@supabase</text>
</g>
<!-- lib/ghostme/people/peopleGraphLinkService.ts -->
<g id="node1" class="node">
<title>lib/ghostme/people/peopleGraphLinkService.ts</title>
<g id="a_node1"><a xlink:href="lib/ghostme/people/peopleGraphLinkService.ts" xlink:title="peopleGraphLinkService.ts">
<path fill="#fef3c7" stroke="#f59e0b" d="M416.33,-50.25C416.33,-50.25 301.67,-50.25 301.67,-50.25 298.58,-50.25 295.5,-47.17 295.5,-44.08 295.5,-44.08 295.5,-37.92 295.5,-37.92 295.5,-34.83 298.58,-31.75 301.67,-31.75 301.67,-31.75 416.33,-31.75 416.33,-31.75 419.42,-31.75 422.5,-34.83 422.5,-37.92 422.5,-37.92 422.5,-44.08 422.5,-44.08 422.5,-47.17 419.42,-50.25 416.33,-50.25"/>
<text xml:space="preserve" text-anchor="start" x="303.5" y="-38" font-family="Helvetica,sans-Serif" font-size="9.00" fill="#111827">peopleGraphLinkService.ts</text>
</a>
</g>
</g>
<!-- lib/supabaseAdmin.ts -->
<g id="node2" class="node">
<title>lib/supabaseAdmin.ts</title>
<g id="a_node2"><a xlink:href="lib/supabaseAdmin.ts" xlink:title="supabaseAdmin.ts">
<path fill="#d1d5db" stroke="#4b5563" stroke-width="2" d="M532.08,-72.25C532.08,-72.25 452.67,-72.25 452.67,-72.25 449.58,-72.25 446.5,-69.17 446.5,-66.08 446.5,-66.08 446.5,-59.92 446.5,-59.92 446.5,-56.83 449.58,-53.75 452.67,-53.75 452.67,-53.75 532.08,-53.75 532.08,-53.75 535.17,-53.75 538.25,-56.83 538.25,-59.92 538.25,-59.92 538.25,-66.08 538.25,-66.08 538.25,-69.17 535.17,-72.25 532.08,-72.25"/>
<text xml:space="preserve" text-anchor="start" x="454.5" y="-60" font-family="Helvetica,sans-Serif" font-size="9.00" fill="#111827">supabaseAdmin.ts</text>
</a>
</g>
</g>
<!-- lib/ghostme/people/peopleGraphLinkService.ts&#45;&gt;lib/supabaseAdmin.ts -->
<g id="edge1" class="edge">
<title>lib/ghostme/people/peopleGraphLinkService.ts&#45;&gt;lib/supabaseAdmin.ts</title>
<path fill="none" stroke="#6b7280" stroke-width="2" stroke-opacity="0.400000" d="M418.73,-50.7C423.78,-51.54 428.85,-52.38 436.86,-53.73"/>
<polygon fill="#6b7280" fill-opacity="0.400000" stroke="#6b7280" stroke-width="2" stroke-opacity="0.400000" points="436.27,-55.76 442.54,-54.68 436.97,-51.62 436.27,-55.76"/>
</g>
<!-- node_modules/@supabase/supabase&#45;js -->
<g id="node7" class="node">
<title>node_modules/@supabase/supabase&#45;js</title>
<g id="a_node7"><a xlink:href="https://www.npmjs.com/package/@supabase/supabase-js" xlink:title="supabase&#45;js">
<polygon fill="#d1d5db" stroke="#4b5563" stroke-width="2" points="636.5,-72.25 572.31,-72.25 570.25,-70.19 570.25,-53.75 634.44,-53.75 636.5,-55.81 636.5,-72.25"/>
<polyline fill="none" stroke="#4b5563" stroke-width="2" points="634.44,-70.19 570.25,-70.19"/>
<polyline fill="none" stroke="#4b5563" stroke-width="2" points="634.44,-70.19 634.44,-53.75"/>
<polyline fill="none" stroke="#4b5563" stroke-width="2" points="634.44,-70.19 636.5,-72.25"/>
<text xml:space="preserve" text-anchor="start" x="578.25" y="-60" font-family="Helvetica,sans-Serif" font-size="9.00" fill="#111827">supabase&#45;js</text>
</a>
</g>
</g>
<!-- lib/supabaseAdmin.ts&#45;&gt;node_modules/@supabase/supabase&#45;js -->
<g id="edge7" class="edge">
<title>lib/supabaseAdmin.ts&#45;&gt;node_modules/@supabase/supabase&#45;js</title>
<path fill="none" stroke="#6b7280" stroke-opacity="0.400000" d="M538.97,-63C546.67,-63 554.61,-63 562.16,-63"/>
<polygon fill="#6b7280" fill-opacity="0.400000" stroke="#6b7280" stroke-opacity="0.400000" points="562.05,-65.1 568.05,-63 562.05,-60.9 562.05,-65.1"/>
</g>
<!-- lib/ghostme/people/peopleGraphService.ts -->
<g id="node3" class="node">
<title>lib/ghostme/people/peopleGraphService.ts</title>
<g id="a_node3"><a xlink:href="lib/ghostme/people/peopleGraphService.ts" xlink:title="peopleGraphService.ts">
<path fill="#fef3c7" stroke="#f59e0b" d="M153.21,-50.25C153.21,-50.25 55.79,-50.25 55.79,-50.25 52.71,-50.25 49.62,-47.17 49.62,-44.08 49.62,-44.08 49.62,-37.92 49.62,-37.92 49.62,-34.83 52.71,-31.75 55.79,-31.75 55.79,-31.75 153.21,-31.75 153.21,-31.75 156.29,-31.75 159.38,-34.83 159.38,-37.92 159.38,-37.92 159.38,-44.08 159.38,-44.08 159.38,-47.17 156.29,-50.25 153.21,-50.25"/>
<text xml:space="preserve" text-anchor="start" x="57.62" y="-38" font-family="Helvetica,sans-Serif" font-size="9.00" fill="#111827">peopleGraphService.ts</text>
</a>
</g>
</g>
<!-- lib/ghostme/people/peopleGraphService.ts&#45;&gt;lib/ghostme/people/peopleGraphLinkService.ts -->
<g id="edge2" class="edge">
<title>lib/ghostme/people/peopleGraphService.ts&#45;&gt;lib/ghostme/people/peopleGraphLinkService.ts</title>
<path fill="none" stroke="#6b7280" stroke-width="2" stroke-opacity="0.400000" d="M159.59,-40.26C169.7,-40.15 180.17,-40.06 190,-40 231.11,-39.76 241.39,-39.73 282.5,-40 283.81,-40.01 285.13,-40.02 286.47,-40.03"/>
<polygon fill="#6b7280" fill-opacity="0.400000" stroke="#6b7280" stroke-width="2" stroke-opacity="0.400000" points="286.33,-42.13 292.35,-40.08 286.37,-37.93 286.33,-42.13"/>
</g>
<!-- lib/ghostme/people/peopleGraphService.ts&#45;&gt;lib/supabaseAdmin.ts -->
<g id="edge4" class="edge">
<title>lib/ghostme/people/peopleGraphService.ts&#45;&gt;lib/supabaseAdmin.ts</title>
<path fill="none" stroke="#6b7280" stroke-width="2" stroke-opacity="0.400000" d="M159.81,-49.7C165.79,-51.66 171.65,-54.06 177,-57 184.16,-60.94 182.45,-66.87 190,-70 274.57,-105.03 384.25,-88.93 445.26,-75.21"/>
<polygon fill="#6b7280" fill-opacity="0.400000" stroke="#6b7280" stroke-width="2" stroke-opacity="0.400000" points="445.58,-77.29 450.95,-73.89 444.63,-73.2 445.58,-77.29"/>
</g>
<!-- lib/ghostme/people/peopleSnapshot.ts -->
<g id="node4" class="node">
<title>lib/ghostme/people/peopleSnapshot.ts</title>
<g id="a_node4"><a xlink:href="lib/ghostme/people/peopleSnapshot.ts" xlink:title="peopleSnapshot.ts">
<path fill="#dbeafe" stroke="#60a5fa" d="M276.33,-64.25C276.33,-64.25 196.17,-64.25 196.17,-64.25 193.08,-64.25 190,-61.17 190,-58.08 190,-58.08 190,-51.92 190,-51.92 190,-48.83 193.08,-45.75 196.17,-45.75 196.17,-45.75 276.33,-45.75 276.33,-45.75 279.42,-45.75 282.5,-48.83 282.5,-51.92 282.5,-51.92 282.5,-58.08 282.5,-58.08 282.5,-61.17 279.42,-64.25 276.33,-64.25"/>
<text xml:space="preserve" text-anchor="start" x="198" y="-52" font-family="Helvetica,sans-Serif" font-size="9.00" fill="#111827">peopleSnapshot.ts</text>
</a>
</g>
</g>
<!-- lib/ghostme/people/peopleGraphService.ts&#45;&gt;lib/ghostme/people/peopleSnapshot.ts -->
<g id="edge3" class="edge">
<title>lib/ghostme/people/peopleGraphService.ts&#45;&gt;lib/ghostme/people/peopleSnapshot.ts</title>
<path fill="none" stroke="#6b7280" stroke-width="2" stroke-opacity="0.400000" d="M159.77,-46.86C166.81,-47.61 174.01,-48.39 181.04,-49.15"/>
<polygon fill="#6b7280" fill-opacity="0.400000" stroke="#6b7280" stroke-width="2" stroke-opacity="0.400000" points="180.62,-51.22 186.81,-49.77 181.07,-47.04 180.62,-51.22"/>
</g>
<!-- lib/ghostme/people/peopleSnapshot.ts&#45;&gt;lib/ghostme/people/peopleGraphLinkService.ts -->
<g id="edge5" class="edge">
<title>lib/ghostme/people/peopleSnapshot.ts&#45;&gt;lib/ghostme/people/peopleGraphLinkService.ts</title>
<path fill="none" stroke="#6b7280" stroke-width="2" stroke-opacity="0.400000" d="M282.9,-49.71C284.03,-49.58 285.16,-49.45 286.3,-49.31"/>
<polygon fill="#6b7280" fill-opacity="0.400000" stroke="#6b7280" stroke-width="2" stroke-opacity="0.400000" points="286.4,-51.42 292.11,-48.64 285.91,-47.24 286.4,-51.42"/>
</g>
<!-- lib/ghostme/people/peopleSnapshot.ts&#45;&gt;lib/supabaseAdmin.ts -->
<g id="edge6" class="edge">
<title>lib/ghostme/people/peopleSnapshot.ts&#45;&gt;lib/supabaseAdmin.ts</title>
<path fill="none" stroke="#6b7280" stroke-width="2" stroke-opacity="0.400000" d="M282.98,-56.44C326.11,-57.8 390.83,-59.83 436.68,-61.28"/>
<polygon fill="#6b7280" fill-opacity="0.400000" stroke="#6b7280" stroke-width="2" stroke-opacity="0.400000" points="436.5,-63.37 442.56,-61.46 436.63,-59.18 436.5,-63.37"/>
</g>
<!-- lib/ghostme/people/relationshipMemorySnapshot.ts -->
<g id="node5" class="node">
<title>lib/ghostme/people/relationshipMemorySnapshot.ts</title>
<g id="a_node5"><a xlink:href="lib/ghostme/people/relationshipMemorySnapshot.ts" xlink:title="no&#45;orphans">
<path fill="#fee2e2" stroke="#ef4444" stroke-width="2.5" d="M170.83,-81.25C170.83,-81.25 38.17,-81.25 38.17,-81.25 35.08,-81.25 32,-78.17 32,-75.08 32,-75.08 32,-68.92 32,-68.92 32,-65.83 35.08,-62.75 38.17,-62.75 38.17,-62.75 170.83,-62.75 170.83,-62.75 173.92,-62.75 177,-65.83 177,-68.92 177,-68.92 177,-75.08 177,-75.08 177,-78.17 173.92,-81.25 170.83,-81.25"/>
<text xml:space="preserve" text-anchor="start" x="40" y="-69" font-family="Helvetica,sans-Serif" font-size="9.00" fill="#991b1b">relationshipMemorySnapshot.ts</text>
</a>
</g>
</g>
<!-- lib/ghostme/people/socialSuggestionSnapshot.ts -->
<g id="node6" class="node">
<title>lib/ghostme/people/socialSuggestionSnapshot.ts</title>
<g id="a_node6"><a xlink:href="lib/ghostme/people/socialSuggestionSnapshot.ts" xlink:title="no&#45;orphans">
<path fill="#fee2e2" stroke="#ef4444" stroke-width="2.5" d="M165.58,-112.25C165.58,-112.25 43.42,-112.25 43.42,-112.25 40.33,-112.25 37.25,-109.17 37.25,-106.08 37.25,-106.08 37.25,-99.92 37.25,-99.92 37.25,-96.83 40.33,-93.75 43.42,-93.75 43.42,-93.75 165.58,-93.75 165.58,-93.75 168.67,-93.75 171.75,-96.83 171.75,-99.92 171.75,-99.92 171.75,-106.08 171.75,-106.08 171.75,-109.17 168.67,-112.25 165.58,-112.25"/>
<text xml:space="preserve" text-anchor="start" x="45.25" y="-100" font-family="Helvetica,sans-Serif" font-size="9.00" fill="#991b1b">socialSuggestionSnapshot.ts</text>
</a>
</g>
</g>
</g>
</svg>
