<?xml version="1.0" encoding="UTF-8" standalone="no"?>
<!DOCTYPE svg PUBLIC "-//W3C//DTD SVG 1.1//EN"
 "http://www.w3.org/Graphics/SVG/1.1/DTD/svg11.dtd">
<!-- Generated by graphviz version 15.0.0 (20260523.1842)
 -->
<!-- Title: dependency&#45;cruiser output Pages: 1 -->
<svg width="529pt" height="209pt"
 viewBox="0.00 0.00 529.00 209.00" xmlns="http://www.w3.org/2000/svg" xmlns:xlink="http://www.w3.org/1999/xlink">
<g id="graph0" class="graph" transform="scale(1 1) rotate(0) translate(4 205)">
<title>dependency&#45;cruiser output</title>
<polygon fill="#fbfbfd" stroke="none" points="-4,4 -4,-205 524.5,-205 524.5,4 -4,4"/>
<g id="clust1" class="cluster">
<title>cluster_lib</title>
<path fill="#ffffff" stroke="black" stroke-width="2" d="M20,-8C20,-8 394.25,-8 394.25,-8 400.25,-8 406.25,-14 406.25,-20 406.25,-20 406.25,-181 406.25,-181 406.25,-187 400.25,-193 394.25,-193 394.25,-193 20,-193 20,-193 14,-193 8,-187 8,-181 8,-181 8,-20 8,-20 8,-14 14,-8 20,-8"/>
<text xml:space="preserve" text-anchor="middle" x="207.12" y="-180.45" font-family="Helvetica,sans-Serif" font-weight="bold" font-size="9.00" fill="#374151">lib</text>
</g>
<g id="clust2" class="cluster">
<title>cluster_lib/ghostme</title>
<path fill="#ffffff" stroke="black" stroke-width="2" d="M28,-16C28,-16 286.5,-16 286.5,-16 292.5,-16 298.5,-22 298.5,-28 298.5,-28 298.5,-154 298.5,-154 298.5,-160 292.5,-166 286.5,-166 286.5,-166 28,-166 28,-166 22,-166 16,-160 16,-154 16,-154 16,-28 16,-28 16,-22 22,-16 28,-16"/>
<text xml:space="preserve" text-anchor="middle" x="157.25" y="-153.45" font-family="Helvetica,sans-Serif" font-weight="bold" font-size="9.00" fill="#374151">ghostme</text>
</g>
<g id="clust3" class="cluster">
<title>cluster_lib/ghostme/people</title>
<path fill="#ffffff" stroke="black" stroke-width="2" d="M36,-24C36,-24 278.5,-24 278.5,-24 284.5,-24 290.5,-30 290.5,-36 290.5,-36 290.5,-127 290.5,-127 290.5,-133 284.5,-139 278.5,-139 278.5,-139 36,-139 36,-139 30,-139 24,-133 24,-127 24,-127 24,-36 24,-36 24,-30 30,-24 36,-24"/>
<text xml:space="preserve" text-anchor="middle" x="157.25" y="-126.45" font-family="Helvetica,sans-Serif" font-weight="bold" font-size="9.00" fill="#374151">people</text>
</g>
<g id="clust4" class="cluster">
<title>cluster_node_modules</title>
<path fill="#ffffff" stroke="black" stroke-width="2" d="M426.25,-27C426.25,-27 500.5,-27 500.5,-27 506.5,-27 512.5,-33 512.5,-39 512.5,-39 512.5,-103 512.5,-103 512.5,-109 506.5,-115 500.5,-115 500.5,-115 426.25,-115 426.25,-115 420.25,-115 414.25,-109 414.25,-103 414.25,-103 414.25,-39 414.25,-39 414.25,-33 420.25,-27 426.25,-27"/>
<text xml:space="preserve" text-anchor="middle" x="463.38" y="-102.45" font-family="Helvetica,sans-Serif" font-weight="bold" font-size="9.00" fill="#374151">node_modules</text>
</g>
<g id="clust5" class="cluster">
<title>cluster_node_modules/@supabase</title>
<path fill="#ffffff" stroke="black" stroke-width="2" d="M434.25,-35C434.25,-35 492.5,-35 492.5,-35 498.5,-35 504.5,-41 504.5,-47 504.5,-47 504.5,-76 504.5,-76 504.5,-82 498.5,-88 492.5,-88 492.5,-88 434.25,-88 434.25,-88 428.25,-88 422.25,-82 422.25,-76 422.25,-76 422.25,-47 422.25,-47 422.25,-41 428.25,-35 434.25,-35"/>
<text xml:space="preserve" text-anchor="middle" x="463.38" y="-75.45" font-family="Helvetica,sans-Serif" font-weight="bold" font-size="9.00" fill="#374151">@supabase</text>
</g>
<!-- lib/ghostme/people/peopleGraphService.ts -->
<g id="node1" class="node">
<title>lib/ghostme/people/peopleGraphService.ts</title>
<g id="a_node1"><a xlink:href="lib/ghostme/people/peopleGraphService.ts" xlink:title="peopleGraphService.ts">
<path fill="#fef3c7" stroke="#f59e0b" d="M153.21,-50.25C153.21,-50.25 55.79,-50.25 55.79,-50.25 52.71,-50.25 49.62,-47.17 49.62,-44.08 49.62,-44.08 49.62,-37.92 49.62,-37.92 49.62,-34.83 52.71,-31.75 55.79,-31.75 55.79,-31.75 153.21,-31.75 153.21,-31.75 156.29,-31.75 159.38,-34.83 159.38,-37.92 159.38,-37.92 159.38,-44.08 159.38,-44.08 159.38,-47.17 156.29,-50.25 153.21,-50.25"/>
<text xml:space="preserve" text-anchor="start" x="57.62" y="-38" font-family="Helvetica,sans-Serif" font-size="9.00" fill="#111827">peopleGraphService.ts</text>
</a>
</g>
</g>
<!-- lib/ghostme/people/peopleSnapshot.ts -->
<g id="node2" class="node">
<title>lib/ghostme/people/peopleSnapshot.ts</title>
<g id="a_node2"><a xlink:href="lib/ghostme/people/peopleSnapshot.ts" xlink:title="peopleSnapshot.ts">
<path fill="#dbeafe" stroke="#60a5fa" d="M276.33,-50.25C276.33,-50.25 196.17,-50.25 196.17,-50.25 193.08,-50.25 190,-47.17 190,-44.08 190,-44.08 190,-37.92 190,-37.92 190,-34.83 193.08,-31.75 196.17,-31.75 196.17,-31.75 276.33,-31.75 276.33,-31.75 279.42,-31.75 282.5,-34.83 282.5,-37.92 282.5,-37.92 282.5,-44.08 282.5,-44.08 282.5,-47.17 279.42,-50.25 276.33,-50.25"/>
<text xml:space="preserve" text-anchor="start" x="198" y="-38" font-family="Helvetica,sans-Serif" font-size="9.00" fill="#111827">peopleSnapshot.ts</text>
</a>
</g>
</g>
<!-- lib/ghostme/people/peopleGraphService.ts&#45;&gt;lib/ghostme/people/peopleSnapshot.ts -->
<g id="edge1" class="edge">
<title>lib/ghostme/people/peopleGraphService.ts&#45;&gt;lib/ghostme/people/peopleSnapshot.ts</title>
<path fill="none" stroke="#6b7280" stroke-width="2" stroke-opacity="0.400000" d="M159.77,-41C166.81,-41 174.01,-41 181.04,-41"/>
<polygon fill="#6b7280" fill-opacity="0.400000" stroke="#6b7280" stroke-width="2" stroke-opacity="0.400000" points="180.8,-43.1 186.8,-41 180.8,-38.9 180.8,-43.1"/>
</g>
<!-- lib/supabaseAdmin.ts -->
<g id="node3" class="node">
<title>lib/supabaseAdmin.ts</title>
<g id="a_node3"><a xlink:href="lib/supabaseAdmin.ts" xlink:title="supabaseAdmin.ts">
<path fill="#d1d5db" stroke="#4b5563" stroke-width="2" d="M392.08,-61.25C392.08,-61.25 312.67,-61.25 312.67,-61.25 309.58,-61.25 306.5,-58.17 306.5,-55.08 306.5,-55.08 306.5,-48.92 306.5,-48.92 306.5,-45.83 309.58,-42.75 312.67,-42.75 312.67,-42.75 392.08,-42.75 392.08,-42.75 395.17,-42.75 398.25,-45.83 398.25,-48.92 398.25,-48.92 398.25,-55.08 398.25,-55.08 398.25,-58.17 395.17,-61.25 392.08,-61.25"/>
<text xml:space="preserve" text-anchor="start" x="314.5" y="-49" font-family="Helvetica,sans-Serif" font-size="9.00" fill="#111827">supabaseAdmin.ts</text>
</a>
</g>
</g>
<!-- lib/ghostme/people/peopleGraphService.ts&#45;&gt;lib/supabaseAdmin.ts -->
<g id="edge2" class="edge">
<title>lib/ghostme/people/peopleGraphService.ts&#45;&gt;lib/supabaseAdmin.ts</title>
<path fill="none" stroke="#6b7280" stroke-width="2" stroke-opacity="0.400000" d="M151.79,-50.73C164.15,-52.91 177.53,-54.9 190,-56 235.32,-59.99 248.81,-58.07 296.55,-56.05"/>
<polygon fill="#6b7280" fill-opacity="0.400000" stroke="#6b7280" stroke-width="2" stroke-opacity="0.400000" points="296.6,-58.15 302.51,-55.8 296.43,-53.95 296.6,-58.15"/>
</g>
<!-- lib/ghostme/people/peopleSnapshot.ts&#45;&gt;lib/supabaseAdmin.ts -->
<g id="edge3" class="edge">
<title>lib/ghostme/people/peopleSnapshot.ts&#45;&gt;lib/supabaseAdmin.ts</title>
<path fill="none" stroke="#6b7280" stroke-width="2" stroke-opacity="0.400000" d="M282.68,-45.38C287.42,-45.84 292.27,-46.3 297.1,-46.77"/>
<polygon fill="#6b7280" fill-opacity="0.400000" stroke="#6b7280" stroke-width="2" stroke-opacity="0.400000" points="296.54,-48.82 302.71,-47.31 296.94,-44.64 296.54,-48.82"/>
</g>
<!-- node_modules/@supabase/supabase&#45;js -->
<g id="node6" class="node">
<title>node_modules/@supabase/supabase&#45;js</title>
<g id="a_node6"><a xlink:href="https://www.npmjs.com/package/@supabase/supabase-js" xlink:title="supabase&#45;js">
<polygon fill="#d1d5db" stroke="#4b5563" stroke-width="2" points="496.5,-61.25 432.31,-61.25 430.25,-59.19 430.25,-42.75 494.44,-42.75 496.5,-44.81 496.5,-61.25"/>
<polyline fill="none" stroke="#4b5563" stroke-width="2" points="494.44,-59.19 430.25,-59.19"/>
<polyline fill="none" stroke="#4b5563" stroke-width="2" points="494.44,-59.19 494.44,-42.75"/>
<polyline fill="none" stroke="#4b5563" stroke-width="2" points="494.44,-59.19 496.5,-61.25"/>
<text xml:space="preserve" text-anchor="start" x="438.25" y="-49" font-family="Helvetica,sans-Serif" font-size="9.00" fill="#111827">supabase&#45;js</text>
</a>
</g>
</g>
<!-- lib/supabaseAdmin.ts&#45;&gt;node_modules/@supabase/supabase&#45;js -->
<g id="edge4" class="edge">
<title>lib/supabaseAdmin.ts&#45;&gt;node_modules/@supabase/supabase&#45;js</title>
<path fill="none" stroke="#6b7280" stroke-opacity="0.400000" d="M398.97,-52C406.67,-52 414.61,-52 422.16,-52"/>
<polygon fill="#6b7280" fill-opacity="0.400000" stroke="#6b7280" stroke-opacity="0.400000" points="422.05,-54.1 428.05,-52 422.05,-49.9 422.05,-54.1"/>
</g>
<!-- lib/ghostme/people/relationshipMemorySnapshot.ts -->
<g id="node4" class="node">
<title>lib/ghostme/people/relationshipMemorySnapshot.ts</title>
<g id="a_node4"><a xlink:href="lib/ghostme/people/relationshipMemorySnapshot.ts" xlink:title="no&#45;orphans">
<path fill="#fee2e2" stroke="#ef4444" stroke-width="2.5" d="M170.83,-81.25C170.83,-81.25 38.17,-81.25 38.17,-81.25 35.08,-81.25 32,-78.17 32,-75.08 32,-75.08 32,-68.92 32,-68.92 32,-65.83 35.08,-62.75 38.17,-62.75 38.17,-62.75 170.83,-62.75 170.83,-62.75 173.92,-62.75 177,-65.83 177,-68.92 177,-68.92 177,-75.08 177,-75.08 177,-78.17 173.92,-81.25 170.83,-81.25"/>
<text xml:space="preserve" text-anchor="start" x="40" y="-69" font-family="Helvetica,sans-Serif" font-size="9.00" fill="#991b1b">relationshipMemorySnapshot.ts</text>
</a>
</g>
</g>
<!-- lib/ghostme/people/socialSuggestionSnapshot.ts -->
<g id="node5" class="node">
<title>lib/ghostme/people/socialSuggestionSnapshot.ts</title>
<g id="a_node5"><a xlink:href="lib/ghostme/people/socialSuggestionSnapshot.ts" xlink:title="no&#45;orphans">
<path fill="#fee2e2" stroke="#ef4444" stroke-width="2.5" d="M165.58,-112.25C165.58,-112.25 43.42,-112.25 43.42,-112.25 40.33,-112.25 37.25,-109.17 37.25,-106.08 37.25,-106.08 37.25,-99.92 37.25,-99.92 37.25,-96.83 40.33,-93.75 43.42,-93.75 43.42,-93.75 165.58,-93.75 165.58,-93.75 168.67,-93.75 171.75,-96.83 171.75,-99.92 171.75,-99.92 171.75,-106.08 171.75,-106.08 171.75,-109.17 168.67,-112.25 165.58,-112.25"/>
<text xml:space="preserve" text-anchor="start" x="45.25" y="-100" font-family="Helvetica,sans-Serif" font-size="9.00" fill="#991b1b">socialSuggestionSnapshot.ts</text>
</a>
</g>
</g>
</g>
</svg>
