<?xml version="1.0" encoding="UTF-8" standalone="no"?>
<!DOCTYPE svg PUBLIC "-//W3C//DTD SVG 1.1//EN"
 "http://www.w3.org/Graphics/SVG/1.1/DTD/svg11.dtd">
<!-- Generated by graphviz version 15.0.0 (20260523.1842)
 -->
<!-- Title: dependency&#45;cruiser output Pages: 1 -->
<svg width="358pt" height="209pt"
 viewBox="0.00 0.00 358.00 209.00" xmlns="http://www.w3.org/2000/svg" xmlns:xlink="http://www.w3.org/1999/xlink">
<g id="graph0" class="graph" transform="scale(1 1) rotate(0) translate(4 205)">
<title>dependency&#45;cruiser output</title>
<polygon fill="#fbfbfd" stroke="none" points="-4,4 -4,-205 354,-205 354,4 -4,4"/>
<g id="clust1" class="cluster">
<title>cluster_lib</title>
<path fill="#ffffff" stroke="black" stroke-width="2" d="M20,-8C20,-8 248,-8 248,-8 254,-8 260,-14 260,-20 260,-20 260,-181 260,-181 260,-187 254,-193 248,-193 248,-193 20,-193 20,-193 14,-193 8,-187 8,-181 8,-181 8,-20 8,-20 8,-14 14,-8 20,-8"/>
<text xml:space="preserve" text-anchor="middle" x="134" y="-180.45" font-family="Helvetica,sans-Serif" font-weight="bold" font-size="9.00" fill="#374151">lib</text>
</g>
<g id="clust2" class="cluster">
<title>cluster_lib/ghostme</title>
<path fill="#ffffff" stroke="black" stroke-width="2" d="M28,-16C28,-16 240,-16 240,-16 246,-16 252,-22 252,-28 252,-28 252,-154 252,-154 252,-160 246,-166 240,-166 240,-166 28,-166 28,-166 22,-166 16,-160 16,-154 16,-154 16,-28 16,-28 16,-22 22,-16 28,-16"/>
<text xml:space="preserve" text-anchor="middle" x="134" y="-153.45" font-family="Helvetica,sans-Serif" font-weight="bold" font-size="9.00" fill="#374151">ghostme</text>
</g>
<g id="clust3" class="cluster">
<title>cluster_lib/ghostme/services</title>
<path fill="#ffffff" stroke="black" stroke-width="2" d="M36,-24C36,-24 232,-24 232,-24 238,-24 244,-30 244,-36 244,-36 244,-127 244,-127 244,-133 238,-139 232,-139 232,-139 36,-139 36,-139 30,-139 24,-133 24,-127 24,-127 24,-36 24,-36 24,-30 30,-24 36,-24"/>
<text xml:space="preserve" text-anchor="middle" x="134" y="-126.45" font-family="Helvetica,sans-Serif" font-weight="bold" font-size="9.00" fill="#374151">services</text>
</g>
<g id="clust4" class="cluster">
<title>cluster_node_modules</title>
<path fill="#ffffff" stroke="black" stroke-width="2" d="M280,-86C280,-86 335,-86 335,-86 341,-86 347,-92 347,-98 347,-98 347,-127 347,-127 347,-133 341,-139 335,-139 335,-139 280,-139 280,-139 274,-139 268,-133 268,-127 268,-127 268,-98 268,-98 268,-92 274,-86 280,-86"/>
<text xml:space="preserve" text-anchor="middle" x="307.5" y="-126.45" font-family="Helvetica,sans-Serif" font-weight="bold" font-size="9.00" fill="#374151">node_modules</text>
</g>
<!-- lib/ghostme/services/serviceRouter.ts -->
<g id="node1" class="node">
<title>lib/ghostme/services/serviceRouter.ts</title>
<g id="a_node1"><a xlink:href="lib/ghostme/services/serviceRouter.ts" xlink:title="no&#45;orphans">
<path fill="#fee2e2" stroke="#ef4444" stroke-width="2.5" d="M110.83,-50.25C110.83,-50.25 41.92,-50.25 41.92,-50.25 38.83,-50.25 35.75,-47.17 35.75,-44.08 35.75,-44.08 35.75,-37.92 35.75,-37.92 35.75,-34.83 38.83,-31.75 41.92,-31.75 41.92,-31.75 110.83,-31.75 110.83,-31.75 113.92,-31.75 117,-34.83 117,-37.92 117,-37.92 117,-44.08 117,-44.08 117,-47.17 113.92,-50.25 110.83,-50.25"/>
<text xml:space="preserve" text-anchor="start" x="43.75" y="-38" font-family="Helvetica,sans-Serif" font-size="9.00" fill="#991b1b">serviceRouter.ts</text>
</a>
</g>
</g>
<!-- lib/ghostme/services/timeService.ts -->
<g id="node2" class="node">
<title>lib/ghostme/services/timeService.ts</title>
<g id="a_node2"><a xlink:href="lib/ghostme/services/timeService.ts" xlink:title="no&#45;orphans">
<path fill="#fee2e2" stroke="#ef4444" stroke-width="2.5" d="M106.71,-81.25C106.71,-81.25 46.04,-81.25 46.04,-81.25 42.96,-81.25 39.88,-78.17 39.88,-75.08 39.88,-75.08 39.88,-68.92 39.88,-68.92 39.88,-65.83 42.96,-62.75 46.04,-62.75 46.04,-62.75 106.71,-62.75 106.71,-62.75 109.79,-62.75 112.88,-65.83 112.88,-68.92 112.88,-68.92 112.88,-75.08 112.88,-75.08 112.88,-78.17 109.79,-81.25 106.71,-81.25"/>
<text xml:space="preserve" text-anchor="start" x="47.88" y="-69" font-family="Helvetica,sans-Serif" font-size="9.00" fill="#991b1b">timeService.ts</text>
</a>
</g>
</g>
<!-- lib/ghostme/services/weatherService.ts -->
<g id="node3" class="node">
<title>lib/ghostme/services/weatherService.ts</title>
<g id="a_node3"><a xlink:href="lib/ghostme/services/weatherService.ts" xlink:title="weatherService.ts">
<path fill="#fef3c7" stroke="#f59e0b" d="M114.58,-112.25C114.58,-112.25 38.17,-112.25 38.17,-112.25 35.08,-112.25 32,-109.17 32,-106.08 32,-106.08 32,-99.92 32,-99.92 32,-96.83 35.08,-93.75 38.17,-93.75 38.17,-93.75 114.58,-93.75 114.58,-93.75 117.67,-93.75 120.75,-96.83 120.75,-99.92 120.75,-99.92 120.75,-106.08 120.75,-106.08 120.75,-109.17 117.67,-112.25 114.58,-112.25"/>
<text xml:space="preserve" text-anchor="start" x="40" y="-100" font-family="Helvetica,sans-Serif" font-size="9.00" fill="#111827">weatherService.ts</text>
</a>
</g>
</g>
<!-- lib/ghostme/services/webSearchService.ts -->
<g id="node4" class="node">
<title>lib/ghostme/services/webSearchService.ts</title>
<g id="a_node4"><a xlink:href="lib/ghostme/services/webSearchService.ts" xlink:title="webSearchService.ts">
<path fill="#fef3c7" stroke="#f59e0b" d="M229.83,-112.25C229.83,-112.25 139.92,-112.25 139.92,-112.25 136.83,-112.25 133.75,-109.17 133.75,-106.08 133.75,-106.08 133.75,-99.92 133.75,-99.92 133.75,-96.83 136.83,-93.75 139.92,-93.75 139.92,-93.75 229.83,-93.75 229.83,-93.75 232.92,-93.75 236,-96.83 236,-99.92 236,-99.92 236,-106.08 236,-106.08 236,-109.17 232.92,-112.25 229.83,-112.25"/>
<text xml:space="preserve" text-anchor="start" x="141.75" y="-100" font-family="Helvetica,sans-Serif" font-size="9.00" fill="#111827">webSearchService.ts</text>
</a>
</g>
</g>
<!-- lib/ghostme/services/weatherService.ts&#45;&gt;lib/ghostme/services/webSearchService.ts -->
<g id="edge1" class="edge">
<title>lib/ghostme/services/weatherService.ts&#45;&gt;lib/ghostme/services/webSearchService.ts</title>
<path fill="none" stroke="#6b7280" stroke-width="2" stroke-opacity="0.400000" d="M121,-103C122.29,-103 123.59,-103 124.9,-103"/>
<polygon fill="#6b7280" fill-opacity="0.400000" stroke="#6b7280" stroke-width="2" stroke-opacity="0.400000" points="124.52,-105.1 130.52,-103 124.52,-100.9 124.52,-105.1"/>
</g>
<!-- node_modules/openai -->
<g id="node5" class="node">
<title>node_modules/openai</title>
<g id="a_node5"><a xlink:href="https://www.npmjs.com/package/openai" xlink:title="openai">
<polygon fill="#d1d5db" stroke="#4b5563" stroke-width="2" points="334,-112.25 282.06,-112.25 280,-110.19 280,-93.75 331.94,-93.75 334,-95.81 334,-112.25"/>
<polyline fill="none" stroke="#4b5563" stroke-width="2" points="331.94,-110.19 280,-110.19"/>
<polyline fill="none" stroke="#4b5563" stroke-width="2" points="331.94,-110.19 331.94,-93.75"/>
<polyline fill="none" stroke="#4b5563" stroke-width="2" points="331.94,-110.19 334,-112.25"/>
<text xml:space="preserve" text-anchor="start" x="292.75" y="-100" font-family="Helvetica,sans-Serif" font-size="9.00" fill="#111827">openai</text>
</a>
</g>
</g>
<!-- lib/ghostme/services/webSearchService.ts&#45;&gt;node_modules/openai -->
<g id="edge2" class="edge">
<title>lib/ghostme/services/webSearchService.ts&#45;&gt;node_modules/openai</title>
<path fill="none" stroke="#6b7280" stroke-opacity="0.400000" d="M236.47,-103C248.35,-103 260.73,-103 271.7,-103"/>
<polygon fill="#6b7280" fill-opacity="0.400000" stroke="#6b7280" stroke-opacity="0.400000" points="271.54,-105.1 277.54,-103 271.54,-100.9 271.54,-105.1"/>
</g>
</g>
</svg>
